<?xml version="1.0" encoding="UTF-8"?>
<svg version="1.1" xmlns="http://www.w3.org/2000/svg" width="409" height="484">
<path d="M0 0 C2.51660241 -0.00202864 5.03320425 -0.00494658 7.54980469 -0.00869751 C12.78716712 -0.01308374 18.02437455 -0.00681046 23.26171875 0.00732422 C29.91107531 0.0244135 36.56006833 0.01455225 43.20941162 -0.00339317 C48.39504644 -0.0143319 53.58059776 -0.01073886 58.76623535 -0.0030098 C61.21537318 -0.00103554 63.66451907 -0.00336708 66.11364746 -0.01044846 C117.1357095 -0.12566719 117.1357095 -0.12566719 135.25 16.3984375 C135.58 17.3884375 135.91 18.3784375 136.25 19.3984375 C138.25016466 20.60725846 138.25016466 20.60725846 140.25 21.3984375 C140.25 22.0584375 140.25 22.7184375 140.25 23.3984375 C141.24 23.7284375 142.23 24.0584375 143.25 24.3984375 C159.22929575 44.0344373 157.56480588 73.31282478 157.515625 97.0703125 C157.51697727 99.40944458 157.51892243 101.74857638 157.52142334 104.08770752 C157.52435054 108.96214505 157.52015672 113.83650866 157.51074219 118.7109375 C157.49937483 124.89051614 157.50590553 131.06992044 157.51788712 137.24949265 C157.52519307 142.07315327 157.52277779 146.89677413 157.51763153 151.7204361 C157.5163177 153.99569979 157.51786099 156.27096735 157.52259064 158.5462265 C157.54126951 170.0564153 157.3280487 181.48668421 156.37402344 192.96191406 C156.29867496 193.89332592 156.22332649 194.82473778 156.14569473 195.78437424 C155.02495425 207.8566648 151.00553832 220.25649123 144.25 230.3984375 C142.12890625 231.60546875 142.12890625 231.60546875 140.25 232.3984375 C139.54848848 233.7137716 138.88474075 235.04961342 138.25 236.3984375 C136.25 238.6484375 136.25 238.6484375 134.25 240.3984375 C133.59 240.3984375 132.93 240.3984375 132.25 240.3984375 C132.25 241.0584375 132.25 241.7184375 132.25 242.3984375 C130.56480498 243.3400745 128.87671303 244.2765276 127.1875 245.2109375 C126.24777344 245.73300781 125.30804688 246.25507813 124.33984375 246.79296875 C118.19862739 249.98391682 112.60086487 251.96519816 105.8125 253.0234375 C105.11962891 253.14460937 104.42675781 253.26578125 103.71289062 253.390625 C90.11382702 255.60302792 76.23601638 255.55136274 62.49609375 255.53125 C60.82202643 255.53192739 59.1479592 255.53290098 57.47389221 255.53414917 C53.98038793 255.53561184 50.48690945 255.53352227 46.9934082 255.52880859 C42.61715444 255.5231779 38.24096235 255.52645742 33.86471081 255.53224182 C17.20149001 255.55099723 0.54688971 255.48531192 -16.109375 254.96875 C-17.95922752 254.91377853 -17.95922752 254.91377853 -19.84645081 254.85769653 C-38.77788971 254.19333706 -56.41788733 251.5375586 -71.75 239.3984375 C-72.08 238.4084375 -72.41 237.4184375 -72.75 236.3984375 C-74.75016466 235.18961654 -74.75016466 235.18961654 -76.75 234.3984375 C-76.75 233.7384375 -76.75 233.0784375 -76.75 232.3984375 C-77.74 232.0684375 -78.73 231.7384375 -79.75 231.3984375 C-97.06562025 208.14501729 -95.92006723 177.77917021 -95.8828125 150.03125 C-95.88348907 148.21776313 -95.884462 146.40427636 -95.88571167 144.59078979 C-95.88717284 140.81751632 -95.88508612 137.04426676 -95.88037109 133.27099609 C-95.87468309 128.49226023 -95.87795716 123.71358068 -95.88394356 118.93484688 C-95.88759936 115.1973734 -95.88638771 111.45991273 -95.88381577 107.72243881 C-95.88315986 105.96301135 -95.88392673 104.20358264 -95.88629532 102.44415665 C-95.91925805 71.0878767 -95.91925805 71.0878767 -93.5 56.5234375 C-93.30821167 55.35276733 -93.30821167 55.35276733 -93.11254883 54.15844727 C-90.17842505 37.62359667 -82.5061785 22.9870697 -68.6328125 13.19921875 C-59.14562971 7.16090594 -49.98465774 3.07097204 -38.796875 1.67333984 C-37.854953 1.55152029 -36.91303101 1.42970074 -35.94256592 1.30418968 C-23.98890508 -0.10184135 -12.0189997 -0.03475159 0 0 Z " fill="#F7F8FA" transform="translate(172.75,169.6015625)"/>
<path d="M0 0 C2.18502243 1.78583564 3.97824026 3.40960552 5.25 5.953125 C5.34405374 7.96765593 5.37190486 9.98538108 5.37025452 12.00210571 C5.37231651 13.93727806 5.37231651 13.93727806 5.37442017 15.9115448 C5.37088077 17.34939598 5.36724596 18.78724693 5.36352539 20.22509766 C5.36324345 21.73276264 5.36340139 23.24042775 5.3639679 24.74809265 C5.36425559 28.84909505 5.35836332 32.95006839 5.35139394 37.05106401 C5.34515581 41.3338764 5.34455624 45.61668939 5.34336853 49.89950562 C5.34025658 58.01324357 5.33204501 66.12696809 5.32201904 74.24070013 C5.3108537 83.47636097 5.30534639 92.71202244 5.30032361 101.94768834 C5.28986229 120.94950972 5.27151848 139.9513127 5.25 158.953125 C-4.98 158.953125 -15.21 158.953125 -25.75 158.953125 C-25.75 129.253125 -25.75 99.553125 -25.75 68.953125 C-26.41 68.953125 -27.07 68.953125 -27.75 68.953125 C-27.98074219 69.47261719 -28.21148437 69.99210937 -28.44921875 70.52734375 C-30.20826108 73.80771999 -32.37981045 76.76000684 -34.5625 79.765625 C-34.98853516 80.35666016 -35.41457031 80.94769531 -35.85351562 81.55664062 C-36.71659221 82.75397985 -37.58826567 83.94516731 -38.46826172 85.13012695 C-39.78646066 86.93954878 -39.78646066 86.93954878 -40.86376953 88.93823242 C-43.6175169 93.61034067 -43.6175169 93.61034067 -46.77856445 94.56713867 C-49.22609695 94.79087001 -51.54590239 94.76975035 -54 94.640625 C-54.85029785 94.61572998 -55.7005957 94.59083496 -56.57666016 94.56518555 C-64.32823178 94.19943294 -70.1362895 92.66161783 -75.8125 87.203125 C-76.451875 86.460625 -77.09125 85.718125 -77.75 84.953125 C-76.12660195 83.24428495 -74.45680947 81.57865783 -72.75 79.953125 C-72.09 79.953125 -71.43 79.953125 -70.75 79.953125 C-70.09 77.973125 -69.43 75.993125 -68.75 73.953125 C-68.09 73.953125 -67.43 73.953125 -66.75 73.953125 C-66.5128125 73.25832031 -66.275625 72.56351562 -66.03125 71.84765625 C-64.5189473 68.43114315 -62.49761633 65.59555829 -60.25 62.640625 C-59.84652344 62.09083984 -59.44304687 61.54105469 -59.02734375 60.97460938 C-57.98731309 59.59305049 -56.87366546 58.26756202 -55.75 56.953125 C-55.09 56.953125 -54.43 56.953125 -53.75 56.953125 C-53.39035156 55.63828125 -53.39035156 55.63828125 -53.0234375 54.296875 C-51.62845123 50.63396627 -49.93006341 48.4071518 -47.375 45.453125 C-44.22720001 41.73801816 -41.43042761 38.01998068 -38.75 33.953125 C-37.7618164 32.79708555 -36.76085365 31.65189474 -35.75 30.515625 C-33.35375009 27.7839001 -31.55557075 25.00491546 -29.8203125 21.796875 C-27.79866549 18.31432979 -25.46039327 14.9345576 -22.75 11.953125 C-22.09 11.953125 -21.43 11.953125 -20.75 11.953125 C-20.5025 11.416875 -20.255 10.880625 -20 10.328125 C-14.97276029 0.77636955 -14.97276029 0.77636955 -11.0625 -0.671875 C-3.24285941 -1.93992483 -3.24285941 -1.93992483 0 0 Z " fill="#FCCB02" transform="translate(280.75,217.046875)"/>
<path d="M0 0 C5.0247531 4.22634674 9.11098764 9.14693412 13.1796875 14.27734375 C16.45866341 18.36433439 19.89010414 22.31083699 23.32641602 26.265625 C26.17711908 29.56696882 28.83503858 32.92278543 31.38671875 36.46484375 C35.21559582 41.51370616 39.76962456 43.38414569 45.63671875 45.33984375 C47.04336801 45.48476498 48.45483205 45.58613306 49.8671875 45.65625 C51.07084961 45.7190918 51.07084961 45.7190918 52.29882812 45.78320312 C53.54889648 45.84217773 53.54889648 45.84217773 54.82421875 45.90234375 C55.66919922 45.94552734 56.51417969 45.98871094 57.38476562 46.03320312 C59.46856308 46.13915893 61.55261978 46.23999395 63.63671875 46.33984375 C59.67105345 52.46222709 55.46550754 58.30113092 50.94921875 64.02734375 C50.34706543 64.7961084 49.74491211 65.56487305 49.12451172 66.35693359 C47.29832003 68.68700197 45.4677821 71.01360281 43.63671875 73.33984375 C42.51796576 74.76541833 41.39946387 76.19119001 40.28125 77.6171875 C37.73658292 80.86084645 35.18794828 84.10134423 32.63671875 87.33984375 C29.22800769 84.02115146 26.12078674 80.60616053 23.13671875 76.90234375 C20.65265772 73.8252598 18.16047979 70.76885937 15.57421875 67.77734375 C13.63671875 65.33984375 13.63671875 65.33984375 13.63671875 63.33984375 C12.97671875 63.33984375 12.31671875 63.33984375 11.63671875 63.33984375 C9.99629215 61.37253142 8.46388178 59.40070003 6.94921875 57.33984375 C3.42909871 52.6363124 -0.17953517 48.13663965 -4.18359375 43.828125 C-5.36328125 42.33984375 -5.36328125 42.33984375 -5.36328125 40.33984375 C-6.02328125 40.33984375 -6.68328125 40.33984375 -7.36328125 40.33984375 C-8.96517745 38.39111498 -10.45664601 36.44706436 -11.92578125 34.40234375 C-14.47080447 30.72283478 -14.47080447 30.72283478 -17.36328125 27.33984375 C-17.69328125 55.05984375 -18.02328125 82.77984375 -18.36328125 111.33984375 C-28.26328125 111.33984375 -38.16328125 111.33984375 -48.36328125 111.33984375 C-48.45378375 98.84806244 -48.52711366 86.35650022 -48.57052994 73.86446476 C-48.59137146 68.06340886 -48.61962669 62.26258963 -48.66503906 56.46166992 C-48.7086188 50.85955427 -48.73244418 45.25766574 -48.74279022 39.6553936 C-48.7501598 37.52203231 -48.76455079 35.38868293 -48.78620148 33.25541878 C-48.81539629 30.25863264 -48.81923049 27.26277545 -48.81738281 24.26586914 C-48.83176392 23.39120499 -48.84614502 22.51654083 -48.86096191 21.6153717 C-48.81308271 14.40087032 -46.90771 8.42950724 -42.28515625 2.81640625 C-30.05194347 -7.61262767 -13.77981509 -9.68003539 0 0 Z " fill="#0797F7" transform="translate(171.36328125,264.66015625)"/>
<path d="M0 0 C0.33 0 0.66 0 1 0 C1.03141787 9.33331582 1.05125531 18.66663957 1.0625 28 C1.06335602 28.70535889 1.06421204 29.41071777 1.06509399 30.13745117 C1.08998393 53.42912058 0.89214245 76.71168461 0.5 100 C0.48804218 100.71051514 0.47608437 101.42103027 0.46376419 102.15307617 C0.31797085 110.76889306 0.16039619 119.3844334 0 128 C-8.58 128 -17.16 128 -26 128 C-26.04597982 120.72241586 -26.08578595 113.4453384 -26.10986328 106.16772461 C-26.11990364 103.69342335 -26.13353863 101.21913391 -26.15087891 98.74487305 C-26.17521328 95.18275023 -26.18650299 91.6207847 -26.1953125 88.05859375 C-26.20563507 86.95728622 -26.21595764 85.8559787 -26.22659302 84.72129822 C-26.22741993 79.02535509 -25.77985273 74.39894528 -24 69 C-24 67.68 -24 66.36 -24 65 C-24.99 67.97 -25.98 70.94 -27 74 C-27.33 74 -27.66 74 -28 74 C-28.09938127 69.14369582 -28.17170794 64.28799235 -28.21972656 59.4309082 C-28.23975797 57.78106363 -28.26699142 56.1312893 -28.30175781 54.48168945 C-28.35065357 52.10089726 -28.3730528 49.721049 -28.390625 47.33984375 C-28.42159271 46.24566383 -28.42159271 46.24566383 -28.45318604 45.12937927 C-28.45624882 38.03112648 -25.37342246 33.44563371 -20.9375 28 C-17.6636006 23.88645829 -14.53621957 19.68327385 -11.4375 15.4375 C-10.96320557 14.789021 -10.48891113 14.14054199 -10.00024414 13.47241211 C-8.66635658 11.6486198 -7.33305525 9.82440072 -6 8 C-4.03013348 5.30439318 -2.04624326 2.63857684 0 0 Z " fill="#F7C101" transform="translate(283,246)"/>
<path d="M0 0 C1.76923828 0.04060547 1.76923828 0.04060547 3.57421875 0.08203125 C4.47785156 0.11683594 5.38148438 0.15164063 6.3125 0.1875 C6.3125 0.8475 6.3125 1.5075 6.3125 2.1875 C7.6325 2.5175 8.9525 2.8475 10.3125 3.1875 C10.3125 4.1775 10.3125 5.1675 10.3125 6.1875 C10.89 6.435 11.4675 6.6825 12.0625 6.9375 C14.81435288 8.46630716 16.3675979 9.67913393 18.3125 12.1875 C18.69171095 15.05987024 18.82974755 17.54392998 18.7824707 20.41259766 C18.7846611 21.23902267 18.7868515 22.06544769 18.78910828 22.91691589 C18.79141779 25.64554 18.76517584 28.37308247 18.73828125 31.1015625 C18.73335783 32.99677182 18.73005864 34.89198601 18.72831726 36.78720093 C18.72067823 40.75672969 18.70011813 44.72589775 18.66918945 48.6953125 C18.62956077 53.79111248 18.61157205 58.886678 18.60188007 63.98261452 C18.59192129 68.83479579 18.57202324 73.68691944 18.55078125 78.5390625 C18.5473855 79.46886555 18.54398975 80.39866859 18.5404911 81.35664749 C18.5289499 83.97823244 18.5104354 86.59966669 18.48950195 89.22119141 C18.48681305 90.00252945 18.48412415 90.78386749 18.48135376 91.58888245 C18.42741264 96.95767471 18.42741264 96.95767471 17.3125 99.1875 C8.4025 99.1875 -0.5075 99.1875 -9.6875 99.1875 C-9.75520508 86.72247329 -9.81027526 74.25756818 -9.84293652 61.79239941 C-9.85861015 56.00467805 -9.8798795 50.21708872 -9.91381836 44.42944336 C-9.9463511 38.84681712 -9.96434021 33.26431808 -9.97213173 27.68160439 C-9.97768618 25.54888213 -9.98853229 23.41616704 -10.00469017 21.28349876 C-10.02638342 18.30237003 -10.02947031 15.32177079 -10.02807617 12.34057617 C-10.038862 11.4536911 -10.04964783 10.56680603 -10.0607605 9.65304565 C-10.05663651 8.84116287 -10.05251251 8.02928009 -10.04826355 7.1927948 C-10.05102893 6.48762317 -10.05379431 5.78245153 -10.05664349 5.05591106 C-8.97217269 -0.43311234 -4.74999111 -0.14108884 0 0 Z " fill="#0186F4" transform="translate(133.6875,275.8125)"/>
<path d="M0 0 C3.43219098 3.01363111 5.312696 5.57788851 5.99609375 10.15234375 C6.00949993 20.56894744 6.00949993 20.56894744 1.5625 25.25 C-2.01907713 28.49047455 -4.70679705 29.52412738 -9.4375 29.6875 C-13.81865262 29.46417288 -16.87375736 28.98496528 -20.4375 26.25 C-23.45055737 22.31784024 -25.70634888 18.1934018 -26.0625 13.1875 C-25.17101674 7.57115545 -23.07786796 3.69602616 -18.8984375 -0.17578125 C-12.90024401 -4.31197629 -6.20072276 -3.15673159 0 0 Z " fill="#0496F8" transform="translate(147.4375,218.75)"/>
<path d="M0 0 C0.33 0 0.66 0 1 0 C1 8.58 1 17.16 1 26 C-0.9955516 22.00889681 -1.19546065 20.30013434 -1 16 C-5.28307292 22.85291667 -8.46185157 29.84371708 -11 37.5 C-15.03907212 49.68379447 -15.03907212 49.68379447 -18 54 C-19.485 54.495 -19.485 54.495 -21 55 C-20.62875 56.36125 -20.62875 56.36125 -20.25 57.75 C-20.12625 59.35875 -20.12625 59.35875 -20 61 C-21.30973998 62.3565164 -22.64802142 63.68557638 -24 65 C-25.22566011 67.93647735 -26.13674922 70.93938361 -27 74 C-27.33 74 -27.66 74 -28 74 C-28.09938127 69.14369582 -28.17170794 64.28799235 -28.21972656 59.4309082 C-28.23975797 57.78106363 -28.26699142 56.1312893 -28.30175781 54.48168945 C-28.35065357 52.10089726 -28.3730528 49.721049 -28.390625 47.33984375 C-28.42159271 46.24566383 -28.42159271 46.24566383 -28.45318604 45.12937927 C-28.45624882 38.03112648 -25.37342246 33.44563371 -20.9375 28 C-17.6636006 23.88645829 -14.53621957 19.68327385 -11.4375 15.4375 C-10.96320557 14.789021 -10.48891113 14.14054199 -10.00024414 13.47241211 C-8.66635658 11.6486198 -7.33305525 9.82440072 -6 8 C-4.03013348 5.30439318 -2.04624326 2.63857684 0 0 Z " fill="#CB9502" transform="translate(283,246)"/>
<path d="M0 0 C3 1 3 1 4 3 C4.09405374 5.01453093 4.12190486 7.03225608 4.12025452 9.04898071 C4.12162918 10.33909561 4.12300385 11.62921051 4.12442017 12.9584198 C4.12088077 14.39627098 4.11724596 15.83412193 4.11352539 17.27197266 C4.11324345 18.77963764 4.11340139 20.28730275 4.1139679 21.79496765 C4.11425559 25.89597005 4.10836332 29.99694339 4.10139394 34.09793901 C4.09515581 38.3807514 4.09455624 42.66356439 4.09336853 46.94638062 C4.09025658 55.06011857 4.08204501 63.17384309 4.07201904 71.28757513 C4.0608537 80.52323597 4.05534639 89.75889744 4.05032361 98.99456334 C4.03986229 117.99638472 4.02151848 136.9981877 4 156 C-6.23 156 -16.46 156 -27 156 C-27.09210083 148.20724633 -27.17166399 140.41640051 -27.21972656 132.62353516 C-27.2397738 129.9756834 -27.26701884 127.32787554 -27.30175781 124.68017578 C-27.35057744 120.86219412 -27.37303881 117.04480064 -27.390625 113.2265625 C-27.41127014 112.05324371 -27.43191528 110.87992493 -27.45318604 109.67105103 C-27.455178 102.28399424 -26.31179858 96.62347981 -23 90 C-21.64438583 92.71122834 -22.32088191 94.07979223 -23 97 C-23.78819723 100.49613823 -24.14431225 103.75890523 -24.20532227 107.34106445 C-24.22526749 108.3817659 -24.24521271 109.42246735 -24.26576233 110.4947052 C-24.28247482 111.6063353 -24.29918732 112.71796539 -24.31640625 113.86328125 C-24.33718735 115.01040085 -24.35796844 116.15752045 -24.37937927 117.33940125 C-24.44466619 120.99704098 -24.50366286 124.65475138 -24.5625 128.3125 C-24.60570504 130.79492913 -24.64931997 133.27735116 -24.69335938 135.75976562 C-24.80109604 141.83977243 -24.90032515 147.9198343 -25 154 C-16.42 154 -7.84 154 1 154 C1.02316034 134.95447748 1.04100048 115.90895895 1.05181217 96.86342525 C1.05696591 88.02002927 1.06399107 79.17664221 1.07543945 70.33325195 C1.08541443 62.62432253 1.09186014 54.91539957 1.09408849 47.20646387 C1.09539081 43.1256048 1.09844641 39.0447642 1.10573006 34.96391106 C1.11253466 31.12018916 1.11460793 27.2764933 1.11310768 23.43276596 C1.11338201 22.02471716 1.11536074 20.61666746 1.11920547 19.20862389 C1.12421209 17.27991242 1.12238154 15.35118688 1.12025452 13.42247009 C1.12117631 12.34489409 1.1220981 11.2673181 1.12304783 10.15708828 C0.98898311 6.71733521 0.54002891 3.39773656 0 0 Z " fill="#EBC837" transform="translate(282,220)"/>
<path d="M0 0 C1.89510699 -0.08160748 3.79124504 -0.13946459 5.6875 -0.1875 C6.74324219 -0.22230469 7.79898437 -0.25710937 8.88671875 -0.29296875 C12.47541926 0.04473832 14.17573106 0.78196255 17 3 C19.67824762 6.71218796 20.36578701 9.22283734 20.29942322 13.7723999 C20.29072236 14.90886082 20.2820215 16.04532173 20.27305698 17.21622086 C20.2486098 18.44134258 20.22416262 19.66646431 20.19897461 20.92871094 C20.1787365 22.8944786 20.15851116 24.8602465 20.13904017 26.82602191 C20.11645627 28.86968747 20.0869889 30.91315792 20.05591965 32.95671082 C19.98177725 37.99605111 19.96225665 43.03541105 19.94065189 48.07521439 C19.91198649 54.43043577 19.86293952 60.7855135 19.81640625 67.140625 C19.80651567 68.50550074 19.79663253 69.87037653 19.78675652 71.23525238 C19.74562882 76.89815065 19.70396313 82.56104445 19.66066074 88.22392654 C19.59923948 96.25704963 19.54132225 104.29018146 19.48800808 112.32336259 C19.44983705 118.03434677 19.40791052 123.74529575 19.36312145 129.45623183 C19.3366165 132.84786754 19.31175475 136.23949646 19.29092598 139.63117218 C19.26700186 143.37819042 19.23695141 147.12511034 19.20532227 150.87207031 C19.1995668 151.99175705 19.19381134 153.11144379 19.18788147 154.26506042 C19.17319824 155.78191185 19.17319824 155.78191185 19.15821838 157.32940674 C19.15176583 158.21261219 19.14531328 159.09581764 19.1386652 160.0057869 C19 162 19 162 18 163 C15.70848583 163.08790975 13.41427476 163.10694038 11.12109375 163.09765625 C10.09110008 163.09553383 10.09110008 163.09553383 9.04029846 163.09336853 C6.83932199 163.08775479 4.63844591 163.07520007 2.4375 163.0625 C0.94856917 163.05748676 -0.54036324 163.05292355 -2.02929688 163.04882812 C-5.68623075 163.03778093 -9.34310558 163.02050713 -13 163 C-13 162.34 -13 161.68 -13 161 C-2.77 161 7.46 161 18 161 C17.67 109.85 17.34 58.7 17 6 C15.68 5.34 14.36 4.68 13 4 C12.34 3.34 11.68 2.68 11 2 C8.33050591 1.75684344 8.33050591 1.75684344 5.375 1.875 C4.37210937 1.89304688 3.36921875 1.91109375 2.3359375 1.9296875 C1.17964844 1.96449219 1.17964844 1.96449219 0 2 C0 1.34 0 0.68 0 0 Z " fill="#FAF1C3" transform="translate(268,215)"/>
<path d="M0 0 C1 2 1 2 0.546875 3.8046875 C-0.93171143 7.64611303 -2.37737844 10.78132808 -5 14 C-5.33 14.99 -5.66 15.98 -6 17 C-8.0625 18.1875 -8.0625 18.1875 -10 19 C-9.28436734 21.0162233 -9.28436734 21.0162233 -8 23 C-6.06381575 23.67156616 -6.06381575 23.67156616 -4 24 C-3.01 24.66 -2.02 25.32 -1 26 C-1 26.66 -1 27.32 -1 28 C5.27 27.67 11.54 27.34 18 27 C17.67 27.66 17.34 28.32 17 29 C-5.28346539 29.81607808 -5.28346539 29.81607808 -12.63671875 23.62109375 C-14.0625 22.25 -14.0625 22.25 -16 20 C-14.37660195 18.29115995 -12.70680947 16.62553283 -11 15 C-10.34 15 -9.68 15 -9 15 C-8.34 13.02 -7.68 11.04 -7 9 C-6.34 9 -5.68 9 -5 9 C-4.731875 8.2575 -4.46375 7.515 -4.1875 6.75 C-3.05770579 4.13363446 -1.79106798 2.19812889 0 0 Z " fill="#B9B754" transform="translate(219,282)"/>
<path d="M0 0 C3 1 3 1 4 3 C4.09584168 4.74366895 4.12795618 6.49100432 4.12939453 8.23730469 C4.13254669 9.3331488 4.13569885 10.42899292 4.13894653 11.55804443 C4.1369223 12.75060852 4.13489807 13.94317261 4.1328125 15.171875 C4.13376923 16.40101624 4.13472595 17.63015747 4.13571167 18.89654541 C4.13656869 22.1791559 4.13253663 25.46171949 4.12695312 28.74432373 C4.1237522 32.03137848 4.13137529 35.31841845 4.13671875 38.60546875 C4.1360569 41.14843775 4.13477355 43.69140667 4.1328125 46.234375 C4.13584885 47.98678497 4.13584885 47.98678497 4.13894653 49.77459717 C4.11639254 57.88610662 3.67108322 65.91696282 3 74 C2.67 74 2.34 74 2 74 C1.85566413 66.70837011 1.71349444 59.41670017 1.57275391 52.125 C1.52473741 49.65005563 1.47624474 47.17512044 1.42724609 44.70019531 C0.92869665 19.48783778 0.92869665 19.48783778 1.03125 9.52734375 C0.99090533 6.26446891 0.60989004 3.20192269 0 0 Z " fill="#D8B032" transform="translate(282,220)"/>
<path d="M0 0 C1.89510699 -0.08160748 3.79124504 -0.13946459 5.6875 -0.1875 C6.74324219 -0.22230469 7.79898437 -0.25710937 8.88671875 -0.29296875 C12.47541926 0.04473832 14.17573106 0.78196255 17 3 C19.60998787 6.64228185 20.3715387 9.10864213 20.328125 13.56640625 C20.32361328 14.67540283 20.31910156 15.78439941 20.31445312 16.92700195 C20.29318359 18.12671631 20.27191406 19.32643066 20.25 20.5625 C20.23904297 21.80926514 20.22808594 23.05603027 20.21679688 24.34057617 C20.03403237 40.56390623 19.52330032 56.78464887 19 73 C18.67 73 18.34 73 18 73 C17.505 39.835 17.505 39.835 17 6 C15.68 5.34 14.36 4.68 13 4 C12.34 3.34 11.68 2.68 11 2 C8.33050591 1.75684344 8.33050591 1.75684344 5.375 1.875 C4.37210937 1.89304688 3.36921875 1.91109375 2.3359375 1.9296875 C1.17964844 1.96449219 1.17964844 1.96449219 0 2 C0 1.34 0 0.68 0 0 Z " fill="#FEFAD1" transform="translate(268,215)"/>
<path d="M0 0 C0 3.75265869 -1.1312249 5.07897326 -3.1875 8.1875 C-5.39650913 11.55212759 -7.56397572 14.9180104 -9.625 18.375 C-11.69266959 21.72135999 -14.21787473 24.21787473 -17 27 C-17.495 28.03125 -17.99 29.0625 -18.5 30.125 C-20.24337046 33.46646005 -21.68164214 34.34082107 -25 36 C-25.99 36.66 -26.98 37.32 -28 38 C-26.40435348 34.50280581 -24.32710016 31.5370924 -22.0625 28.4375 C-21.37285156 27.48746094 -20.68320313 26.53742188 -19.97265625 25.55859375 C-18.39994229 23.51873703 -16.80997625 21.80997625 -15 20 C-14.05158206 18.33209258 -13.10484227 16.66314162 -12.17578125 14.984375 C-10.09154124 11.46678721 -7.75310055 8.0284106 -5 5 C-4.34 5 -3.68 5 -3 5 C-2.690625 4.360625 -2.38125 3.72125 -2.0625 3.0625 C-1 1 -1 1 0 0 Z " fill="#F3CF2C" transform="translate(263,224)"/>
<path d="M0 0 C0.66 0 1.32 0 2 0 C2 29.7 2 59.4 2 90 C1.67 90 1.34 90 1 90 C1 61.95 1 33.9 1 5 C-0.32 5.33 -1.64 5.66 -3 6 C-2 4 -1 2 0 0 Z " fill="#FEF4C0" transform="translate(253,286)"/>
<path d="M0 0 C0.33 0 0.66 0 1 0 C1 7.26 1 14.52 1 22 C-0.9955516 18.00889681 -1.19546065 16.30013434 -1 12 C-6.15476348 20.24762157 -9.62001299 28.91282181 -13 38 C-14.28513616 34.14459153 -13.40203737 32.76456138 -12 29 C-11.46632813 27.38544922 -11.46632813 27.38544922 -10.921875 25.73828125 C-8.56933223 18.86101454 -5.92904265 12.57038676 -2.234375 6.3046875 C-1.09134329 4.17054601 -0.45759078 2.36421904 0 0 Z " fill="#DBA302" transform="translate(283,250)"/>
<path d="M0 0 C-4.51297043 1.49266205 -9.20713435 1.04892705 -13.89257812 0.9609375 C-18.37901492 0.9100035 -22.57247158 1.25918479 -27 2 C-27.33 2.99 -27.66 3.98 -28 5 C-28.99 5.495 -28.99 5.495 -30 6 C-30.99 7.485 -30.99 7.485 -32 9 C-32.66 9 -33.32 9 -34 9 C-34.66 10.32 -35.32 11.64 -36 13 C-36.66 13 -37.32 13 -38 13 C-38.33 14.65 -38.66 16.3 -39 18 C-40 16 -40 16 -39.125 12.875 C-36.31211141 6.7354532 -30.40321944 1.78282871 -24.3125 -1 C-16.52181594 -3.4296902 -7.53545598 -2.87446725 0 0 Z " fill="#2E97D6" transform="translate(164,261)"/>
<path d="M0 0 C1.63001953 0.01353516 1.63001953 0.01353516 3.29296875 0.02734375 C4.12441406 0.03894531 4.95585937 0.05054688 5.8125 0.0625 C5.8125 0.7225 5.8125 1.3825 5.8125 2.0625 C5.17183594 2.01609375 4.53117187 1.9696875 3.87109375 1.921875 C-2.47459453 1.65707728 -6.12767425 2.11583591 -11.1875 6.0625 C-14.53440054 9.98542496 -15.83365567 13.93233265 -15.59375 19.0703125 C-14.88643445 22.53887913 -13.08431765 25.09872243 -11.1875 28.0625 C-11.1875 28.7225 -11.1875 29.3825 -11.1875 30.0625 C-9.2075 30.7225 -7.2275 31.3825 -5.1875 32.0625 C-6.875 32.75 -6.875 32.75 -9.1875 33.0625 C-11.875 31.875 -11.875 31.875 -14.1875 30.0625 C-14.875 27.9375 -14.875 27.9375 -15.1875 26.0625 C-15.8475 25.7325 -16.5075 25.4025 -17.1875 25.0625 C-17.1875 20.1125 -17.1875 15.1625 -17.1875 10.0625 C-16.5275 10.0625 -15.8675 10.0625 -15.1875 10.0625 C-15.06375 9.27875 -14.94 8.495 -14.8125 7.6875 C-14.1875 5.0625 -14.1875 5.0625 -12.1875 3.0625 C-11.1975 3.0625 -10.2075 3.0625 -9.1875 3.0625 C-9.1875 2.4025 -9.1875 1.7425 -9.1875 1.0625 C-5.90230525 -0.03256492 -3.45086585 -0.03710608 0 0 Z " fill="#CEF4FD" transform="translate(138.1875,214.9375)"/>
<path d="M0 0 C3.44999038 1.47856731 5.7471361 2.96931995 8 6 C8.56352652 9.26695477 8.46482917 12.49040945 8.390625 15.796875 C8.38496521 16.74564514 8.37930542 17.69441528 8.37347412 18.67193604 C8.35110609 21.69847336 8.30090858 24.72382129 8.25 27.75 C8.22993557 29.8033683 8.2116847 31.85675519 8.1953125 33.91015625 C8.15123981 38.94056156 8.08220891 43.97007921 8 49 C7.67 49 7.34 49 7 49 C6.82916444 45.08350386 6.6641234 41.1667827 6.5 37.25 C6.45230469 36.15816406 6.40460938 35.06632812 6.35546875 33.94140625 C6.08853656 27.4969005 5.98446819 21.10226938 6.16552734 14.65356445 C5.81705576 9.0672258 3.03978209 4.55967313 0 0 Z " fill="#0F67C6" transform="translate(144,282)"/>
<path d="M0 0 C0.66 0.33 1.32 0.66 2 1 C1.90642301 5.50272703 1.80032075 10.004919 1.68261719 14.50708008 C1.64434202 16.03857339 1.60948651 17.57015615 1.578125 19.10180664 C1.53244193 21.3038733 1.47445463 23.50532496 1.4140625 25.70703125 C1.40251129 26.39150833 1.39096008 27.07598541 1.37905884 27.78120422 C1.26726256 31.38460837 1.05605447 32.9159183 -1 36 C-1.02465098 31.03377651 -1.04283649 26.06758834 -1.05493164 21.10131836 C-1.0599719 19.41055684 -1.06680405 17.71979971 -1.07543945 16.02905273 C-1.08751857 13.60399293 -1.09323123 11.17899056 -1.09765625 8.75390625 C-1.10281754 7.99348526 -1.10797882 7.23306427 -1.11329651 6.44960022 C-1.11349238 4.6326743 -1.06197277 2.81586873 -1 1 C-0.67 0.67 -0.34 0.34 0 0 Z " fill="#BA9430" transform="translate(256,284)"/>
<path d="M0 0 C0.556875 0.226875 1.11375 0.45375 1.6875 0.6875 C-8.48880156 6.71020909 -18.36259953 10.21860669 -30.3125 9.6875 C-28.75393428 7.85618527 -27.82626146 6.79881498 -25.4375 6.28125 C-24.73625 6.2503125 -24.035 6.219375 -23.3125 6.1875 C-16.08687422 5.5971711 -6.12349212 -0.82749893 0 0 Z " fill="#CAC7D0" transform="translate(299.3125,413.3125)"/>
<path d="M0 0 C1.19882813 0.00483398 1.19882813 0.00483398 2.421875 0.00976562 C3.246875 0.01814453 4.071875 0.02652344 4.921875 0.03515625 C5.76234375 0.03966797 6.6028125 0.04417969 7.46875 0.04882812 C9.53648901 0.06057664 11.60419124 0.07851103 13.671875 0.09765625 C13.671875 0.75765625 13.671875 1.41765625 13.671875 2.09765625 C15.321875 2.09765625 16.971875 2.09765625 18.671875 2.09765625 C18.671875 2.75765625 18.671875 3.41765625 18.671875 4.09765625 C19.991875 4.42765625 21.311875 4.75765625 22.671875 5.09765625 C19.25278433 6.23735314 18.97881397 6.0021711 15.859375 4.66015625 C7.83184593 1.77814172 -1.06631767 2.54308249 -9.328125 4.09765625 C-8.998125 3.10765625 -8.668125 2.11765625 -8.328125 1.09765625 C-5.56446253 0.04678677 -2.93308759 -0.02095063 0 0 Z " fill="#EAFEFF" transform="translate(147.328125,256.90234375)"/>
<path d="M0 0 C0.99 0 1.98 0 3 0 C1.3965653 5.13099103 -1.73947253 8.82863692 -5 13 C-5.87338594 14.13465523 -6.74570502 15.27013214 -7.6171875 16.40625 C-10.07329981 19.60790562 -12.53544192 22.8048417 -15 26 C-15.33 25.01 -15.66 24.02 -16 23 C-15.34 23 -14.68 23 -14 23 C-13.896875 22.236875 -13.79375 21.47375 -13.6875 20.6875 C-12.95288806 17.81583516 -12.3283935 16.76957906 -10 15 C-9.34 15 -8.68 15 -8 15 C-7.34 12.69 -6.68 10.38 -6 8 C-5.34 8 -4.68 8 -4 8 C-3.67 6.68 -3.34 5.36 -3 4 C-2.34 4 -1.68 4 -1 4 C-0.67 2.68 -0.34 1.36 0 0 Z " fill="#F8C712" transform="translate(272,256)"/>
<path d="M0 0 C0.66 0 1.32 0 2 0 C1.43694572 4.89481851 -0.11081977 8.89279635 -2.3125 13.25 C-2.60833984 13.87390625 -2.90417969 14.4978125 -3.20898438 15.140625 C-4.98808823 18.70651781 -6.26031139 20.56472506 -10 22 C-10.33 22.66 -10.66 23.32 -11 24 C-10.67 21.69 -10.34 19.38 -10 17 C-9.34 17 -8.68 17 -8 17 C-7.34 15.68 -6.68 14.36 -6 13 C-5.34 13 -4.68 13 -4 13 C-3.87882812 12.39671875 -3.75765625 11.7934375 -3.6328125 11.171875 C-3.38144531 9.97304688 -3.38144531 9.97304688 -3.125 8.75 C-2.96257812 7.96109375 -2.80015625 7.1721875 -2.6328125 6.359375 C-2.00849925 4.03168856 -1.15161458 2.10968048 0 0 Z " fill="#C7C6CB" transform="translate(323,380)"/>
<path d="M0 0 C0.78503906 0.00386719 1.57007813 0.00773437 2.37890625 0.01171875 C4.4375 0.3125 4.4375 0.3125 6.4375 2.3125 C5.73882812 2.27769531 5.04015625 2.24289062 4.3203125 2.20703125 C3.41023437 2.17996094 2.50015625 2.15289062 1.5625 2.125 C0.65757812 2.09019531 -0.24734375 2.05539062 -1.1796875 2.01953125 C-1.96601563 2.11621094 -2.75234375 2.21289062 -3.5625 2.3125 C-6.16618313 6.2180247 -5.91398497 9.59913889 -5.9765625 14.13671875 C-5.99592865 14.99811966 -6.0152948 15.85952057 -6.0352478 16.74702454 C-6.0950203 19.49791568 -6.14141948 22.24884873 -6.1875 25 C-6.22568194 26.86525261 -6.2647338 28.73048763 -6.3046875 30.59570312 C-6.4007199 35.16782586 -6.4847595 39.74003114 -6.5625 44.3125 C-6.8925 44.3125 -7.2225 44.3125 -7.5625 44.3125 C-7.63660115 38.52843031 -7.69107885 32.74463629 -7.72729492 26.96020508 C-7.74239082 24.99205717 -7.76286948 23.02394294 -7.78881836 21.0559082 C-7.82516649 18.22859388 -7.84221814 15.4017239 -7.85546875 12.57421875 C-7.87095261 11.69287766 -7.88643646 10.81153656 -7.90238953 9.90348816 C-7.90261612 9.08286392 -7.90284271 8.26223969 -7.90307617 7.41674805 C-7.90973801 6.69504929 -7.91639984 5.97335052 -7.92326355 5.2297821 C-7.08433074 0.77126385 -4.11897905 -0.08821537 0 0 Z " fill="#0C88EA" transform="translate(131.5625,275.6875)"/>
<path d="M0 0 C3.00609963 1.00203321 4.06176821 1.60028446 6 4 C6 4.99 6 5.98 6 7 C6.99 7.33 7.98 7.66 9 8 C9 8.66 9 9.32 9 10 C9.61875 10.061875 10.2375 10.12375 10.875 10.1875 C13 11 13 11 14.25 13.5625 C14.4975 14.366875 14.745 15.17125 15 16 C15.66 16 16.32 16 17 16 C17 17.65 17 19.3 17 21 C12.99483596 18.17282538 10.38405329 15.02394419 7.55859375 11.09765625 C5.55768698 8.40470653 3.35411665 5.92889784 1.1015625 3.4453125 C0 2 0 2 0 0 Z " fill="#2198E3" transform="translate(166,305)"/>
<path d="M0 0 C2.76276177 0.52268466 5.3260876 1.10869587 8 2 C9.40664926 2.14492123 10.8181133 2.24628931 12.23046875 2.31640625 C13.43413086 2.37924805 13.43413086 2.37924805 14.66210938 2.44335938 C15.49548828 2.48267578 16.32886719 2.52199219 17.1875 2.5625 C18.03248047 2.60568359 18.87746094 2.64886719 19.74804688 2.69335938 C21.83184433 2.79931518 23.91590103 2.9001502 26 3 C25.01 4.65 24.02 6.3 23 8 C22.67 7.01 22.34 6.02 22 5 C19.58325776 4.97294692 17.1668206 4.95313562 14.75 4.9375 C14.06808594 4.92912109 13.38617188 4.92074219 12.68359375 4.91210938 C9.30657446 4.89571608 6.22708361 4.94371232 3 6 C3.33 4.68 3.66 3.36 4 2 C2.68 1.34 1.36 0.68 0 0 Z " fill="#2F97BD" transform="translate(209,308)"/>
<path d="M0 0 C3 1 3 1 4 3 C4.1251687 5.94874168 4.18517983 8.86356546 4.1875 11.8125 C4.19974609 12.62009766 4.21199219 13.42769531 4.22460938 14.25976562 C4.23534342 18.62852255 4.04117085 22.02254059 2 26 C1.67 26 1.34 26 1 26 C1.01740234 24.06447266 1.01740234 24.06447266 1.03515625 22.08984375 C1.0445412 20.37239729 1.05364064 18.65494925 1.0625 16.9375 C1.07087891 16.08994141 1.07925781 15.24238281 1.08789062 14.36914062 C1.10683006 9.4638278 0.83326345 4.83555245 0 0 Z " fill="#EFD034" transform="translate(282,220)"/>
<path d="M0 0 C0.66 0 1.32 0 2 0 C0.60917658 2.99291115 -1.02282365 5.50012472 -3.0390625 8.109375 C-3.61914062 8.86347656 -4.19921875 9.61757813 -4.796875 10.39453125 C-5.40015625 11.17183594 -6.0034375 11.94914062 -6.625 12.75 C-7.23601562 13.54277344 -7.84703125 14.33554687 -8.4765625 15.15234375 C-9.98138165 17.10390608 -11.48927284 19.05300989 -13 21 C-13.33 19.68 -13.66 18.36 -14 17 C-13.01 16.67 -12.02 16.34 -11 16 C-11.33 15.01 -11.66 14.02 -12 13 C-11.01 12.67 -10.02 12.34 -9 12 C-6.37884447 9.14756605 -4.57468925 6.87915244 -4 3 C-3.01 3 -2.02 3 -1 3 C-0.67 2.01 -0.34 1.02 0 0 Z " fill="#2999DC" transform="translate(229,316)"/>
<path d="M0 0 C6.32403768 4.7781618 10.78003759 10.60234453 15.546875 16.85546875 C17.30574664 19.11007332 18.96588833 21.03115986 21 23 C16.18438039 21.61171327 13.71037436 18.79762587 10.6875 15 C10.23310547 14.4534375 9.77871094 13.906875 9.31054688 13.34375 C6 9.28148496 6 9.28148496 6 7 C5.01 7 4.02 7 3 7 C3 6.01 3 5.02 3 4 C2.01 4 1.02 4 0 4 C0 2.68 0 1.36 0 0 Z " fill="#359CD5" transform="translate(188,285)"/>
<path d="M0 0 C0.8125 1.6875 0.8125 1.6875 1 4 C-0.12530137 5.12530137 -1.26294799 6.24042575 -2.453125 7.296875 C-5.76753893 10.94607822 -7.77479007 15.63369461 -10 20 C-11.32 19.67 -12.64 19.34 -14 19 C-13.21654285 17.82780457 -12.42297164 16.66236332 -11.625 15.5 C-11.18414062 14.8503125 -10.74328125 14.200625 -10.2890625 13.53125 C-9.65097656 12.77328125 -9.65097656 12.77328125 -9 12 C-8.34 12 -7.68 12 -7 12 C-6.773125 11.13375 -6.54625 10.2675 -6.3125 9.375 C-4.75974905 5.38221186 -2.85680105 3.15751695 0 0 Z " fill="#EBC938" transform="translate(234,262)"/>
<path d="M0 0 C1.63671875 1.046875 1.63671875 1.046875 4.01171875 3.109375 C4.01171875 3.769375 4.01171875 4.429375 4.01171875 5.109375 C-0.72512336 3.26726974 -0.72512336 3.26726974 -2.86328125 1.984375 C-8.30518195 -0.25640764 -13.66667682 1.37170825 -18.98828125 3.109375 C-13.64941476 -2.59768918 -7.19374261 -3.22234443 0 0 Z " fill="#2B97D8" transform="translate(145.98828125,217.890625)"/>
<path d="M0 0 C0.33 0.99 0.66 1.98 1 3 C-0.07421875 5.04296875 -0.07421875 5.04296875 -1.6875 7.1875 C-2.20699219 7.90292969 -2.72648438 8.61835938 -3.26171875 9.35546875 C-5 11 -5 11 -9 11 C-9 10.34 -9 9.68 -9 9 C-9.99 9 -10.98 9 -12 9 C-11.67 7.68 -11.34 6.36 -11 5 C-9.68 6.32 -8.36 7.64 -7 9 C-4.69 6.03 -2.38 3.06 0 0 Z " fill="#CAEFFB" transform="translate(211,342)"/>
<path d="M0 0 C2.64824722 0.35787125 4.55535876 0.68239911 6.75 2.25 C8.31760089 4.44464124 8.64212875 6.35175278 9 9 C9.99 9 10.98 9 12 9 C12 10.65 12 12.3 12 14 C7.76014063 9.88862122 3.72154258 5.59026002 0 1 C0 0.67 0 0.34 0 0 Z " fill="#D2F3FD" transform="translate(173,266)"/>
<path d="M0 0 C0.33 0 0.66 0 1 0 C1 7.26 1 14.52 1 22 C-0.9955516 18.00889681 -1.19546065 16.30013434 -1 12 C-1.99 12.495 -1.99 12.495 -3 13 C-2.45144652 8.428721 -1.58255197 4.32564205 0 0 Z " fill="#E3AA08" transform="translate(283,250)"/>
<path d="M0 0 C0.99 0.33 1.98 0.66 3 1 C-0.58065422 6.66936919 -4.7697739 11.80462523 -9 17 C-9.33 15.68 -9.66 14.36 -10 13 C-9.34 13 -8.68 13 -8 13 C-8 12.01 -8 11.02 -8 10 C-7.34 10 -6.68 10 -6 10 C-6 9.34 -6 8.68 -6 8 C-5.34 8 -4.68 8 -4 8 C-3.67 6.68 -3.34 5.36 -3 4 C-2.01 4 -1.02 4 0 4 C0 2.68 0 1.36 0 0 Z " fill="#FDFBDD" transform="translate(239,251)"/>
<path d="M0 0 C1.55614118 3.11228237 0.28840156 5.80615169 -0.50390625 9.0859375 C-1.19547259 13.14820906 -1.36452498 17.20046146 -1.5625 21.3125 C-1.60568359 22.14845703 -1.64886719 22.98441406 -1.69335938 23.84570312 C-1.79885307 25.89696935 -1.89987315 27.9484648 -2 30 C-2.33 30 -2.66 30 -3 30 C-3.08776185 26.31265225 -3.14064603 22.62557653 -3.1875 18.9375 C-3.22520508 17.37999023 -3.22520508 17.37999023 -3.26367188 15.79101562 C-3.32160147 9.70840838 -2.90687164 5.37885697 0 0 Z " fill="#DDAF1E" transform="translate(259,310)"/>
<path d="M0 0 C2.35135517 1.81497176 2.9555788 2.72266763 3.43359375 5.70703125 C3.44164924 12.11114409 3.32859657 16.13032886 -1 21 C-1.33 20.34 -1.66 19.68 -2 19 C-0.44444444 14.44444444 -0.44444444 14.44444444 1 13 C1.21122745 8.56422358 0.70024812 4.37655074 0 0 Z " fill="#2A9ADB" transform="translate(150,223)"/>
<path d="M0 0 C0.33 0.66 0.66 1.32 1 2 C-0.010625 2.103125 -1.02125 2.20625 -2.0625 2.3125 C-7.00396432 3.17529536 -11.36339595 4.36339595 -15 8 C-14.43850643 4.74333728 -13.62770014 3.04376677 -11 1 C-7.44656135 -0.39599376 -3.76814664 -0.07246436 0 0 Z " fill="#EFD44A" transform="translate(279,216)"/>
<path d="M0 0 C0.99 0.33 1.98 0.66 3 1 C2.34 1 1.68 1 1 1 C0.66355469 1.76570313 0.66355469 1.76570313 0.3203125 2.546875 C-1.53605381 5.99598163 -3.82730426 9.08342773 -6.125 12.25 C-6.59292969 12.8996875 -7.06085938 13.549375 -7.54296875 14.21875 C-8.69274282 15.81435483 -9.84602566 17.40743025 -11 19 C-11.33 18.01 -11.66 17.02 -12 16 C-10.46870656 13.7015789 -8.93004335 11.62689323 -7.1875 9.5 C-6.2636798 8.34426377 -5.34048121 7.18803034 -4.41796875 6.03125 C-3.62003906 5.0309375 -2.82210937 4.030625 -2 3 C-1.34 2.01 -0.68 1.02 0 0 Z " fill="#E8C739" transform="translate(252,285)"/>
<path d="M0 0 C1.00016187 2.00032373 1.49396008 3.83125748 2 6 C2.928125 6.0825 3.85625 6.165 4.8125 6.25 C8.51361463 7.1208505 8.97420377 7.95826392 11 11 C9.05844468 10.60265845 7.12177962 10.18136959 5.1875 9.75 C3.56908203 9.40195312 3.56908203 9.40195312 1.91796875 9.046875 C-1.3059958 7.89021838 -2.29029522 6.90349865 -4 4 C-2.68 2.68 -1.36 1.36 0 0 Z " fill="#C9B946" transform="translate(207,298)"/>
<path d="M0 0 C0.99 0 1.98 0 3 0 C1.71706845 5.01509604 -0.17218054 7.55496249 -4 11 C-4.66 11.66 -5.32 12.32 -6 13 C-6 11.02 -6 9.04 -6 7 C-5.01 7 -4.02 7 -3 7 C-1.79371992 4.66785852 -0.8345262 2.50357861 0 0 Z " fill="#FDF8D0" transform="translate(226,268)"/>
<path d="M0 0 C1.13643966 3.40931897 0.86747764 4.00335456 -0.4375 7.1875 C-0.72496094 7.90292969 -1.01242188 8.61835938 -1.30859375 9.35546875 C-1.53675781 9.89816406 -1.76492187 10.44085938 -2 11 C-3.98 11 -5.96 11 -8 11 C-7.59007812 10.45730469 -7.18015625 9.91460937 -6.7578125 9.35546875 C-6.21898437 8.64003906 -5.68015625 7.92460937 -5.125 7.1875 C-4.59132812 6.47980469 -4.05765625 5.77210938 -3.5078125 5.04296875 C-2.29185219 3.39543703 -1.13583859 1.70375789 0 0 Z " fill="#D1F1FB" transform="translate(225,324)"/>
<path d="M0 0 C1.32 0.33 2.64 0.66 4 1 C4.625 3.375 4.625 3.375 5 6 C4.34 6.66 3.68 7.32 3 8 C2.01 8 1.02 8 0 8 C0 5.36 0 2.72 0 0 Z " fill="#E3F8FB" transform="translate(154,294)"/>
<path d="M0 0 C0.598125 0.226875 1.19625 0.45375 1.8125 0.6875 C1.02875 1.55375 0.245 2.42 -0.5625 3.3125 C-3.02136728 6.23806447 -4.21200104 8.96286762 -5.1875 12.6875 C-5.5175 12.6875 -5.8475 12.6875 -6.1875 12.6875 C-6.10016424 11.08232903 -5.99197776 9.47828338 -5.875 7.875 C-5.81699219 6.98167969 -5.75898437 6.08835937 -5.69921875 5.16796875 C-4.98381883 1.70019049 -3.76218507 -0.53745501 0 0 Z " fill="#CDF2FC" transform="translate(129.1875,266.3125)"/>
<path d="M0 0 C0 4.86678243 -3.03987715 8.27731622 -6 12 C-8.875 14.0625 -8.875 14.0625 -11 15 C-9.34643078 11.41726669 -7.32019297 8.19026533 -5 5 C-4.34 5 -3.68 5 -3 5 C-2.690625 4.360625 -2.38125 3.72125 -2.0625 3.0625 C-1 1 -1 1 0 0 Z " fill="#EDD34D" transform="translate(263,224)"/>
<path d="M0 0 C1.32 0.33 2.64 0.66 4 1 C1.66685617 4.80670836 1.66685617 4.80670836 -1.15625 5.625 C-4.56967416 6.07512187 -7.87018554 6.09467116 -11.3125 6.0625 C-12.56675781 6.05347656 -13.82101563 6.04445313 -15.11328125 6.03515625 C-16.06589844 6.02355469 -17.01851562 6.01195312 -18 6 C-18 5.67 -18 5.34 -18 5 C-17.10796875 4.93941406 -16.2159375 4.87882812 -15.296875 4.81640625 C-13.54117188 4.69072266 -13.54117188 4.69072266 -11.75 4.5625 C-10.58984375 4.48128906 -9.4296875 4.40007812 -8.234375 4.31640625 C-4.53008123 4.00763632 -4.53008123 4.00763632 -1 3 C-0.67 2.01 -0.34 1.02 0 0 Z " fill="#D8BF38" transform="translate(236,304)"/>
<path d="M0 0 C0.83583327 2.37607949 1.1842383 3.54449627 0.22265625 5.921875 C-0.8515625 7.61458333 -1.92578125 9.30729167 -3 11 C-4.32 11 -5.64 11 -7 11 C-5.22054913 6.95579349 -2.60470327 3.53921513 0 0 Z " fill="#FAF2C7" transform="translate(249,292)"/>
<path d="M0 0 C1.32 0.33 2.64 0.66 4 1 C3 4 3 4 0.9375 5.1875 C0.298125 5.455625 -0.34125 5.72375 -1 6 C-0.34 7.32 0.32 8.64 1 10 C-0.32 9.34 -1.64 8.68 -3 8 C-2.67 6.02 -2.34 4.04 -2 2 C-1.34 2 -0.68 2 0 2 C0 1.34 0 0.68 0 0 Z " fill="#EFB612" transform="translate(210,295)"/>
<path d="M0 0 C0.99 0 1.98 0 3 0 C1.79618552 2.49361571 0.54571278 4.68143083 -1 7 C-1.66 7 -2.32 7 -3 7 C-3.268125 7.78375 -3.53625 8.5675 -3.8125 9.375 C-5 12 -5 12 -8 14 C-8 13.01 -8 12.02 -8 11 C-7.34 11 -6.68 11 -6 11 C-5.731875 10.05125 -5.46375 9.1025 -5.1875 8.125 C-4 5 -4 5 -1 3 C-0.67 2.01 -0.34 1.02 0 0 Z " fill="#FEF9C7" transform="translate(261,222)"/>
<path d="M0 0 C0.99 0.33 1.98 0.66 3 1 C1.37660195 2.70884005 -0.29319053 4.37446717 -2 6 C-2.66 6 -3.32 6 -4 6 C-4 6.66 -4 7.32 -4 8 C-5.32 8.33 -6.64 8.66 -8 9 C-6.40758592 4.70048197 -3.64459275 2.60328053 0 0 Z " fill="#C8C7CE" transform="translate(309,404)"/>
<path d="M0 0 C0.33 2.31 0.66 4.62 1 7 C1.66 7 2.32 7 3 7 C3.33 8.65 3.66 10.3 4 12 C0.36440339 8.56638098 -2.36113346 5.2026393 -5 1 C-1.125 0 -1.125 0 0 0 Z " fill="#2097E1" transform="translate(192,330)"/>
<path d="M0 0 C1 2 1 2 0.3125 4.875 C-1.03712351 8.08838932 -2.39272995 9.74036595 -5 12 C-5.99 11.67 -6.98 11.34 -8 11 C-5.36 7.37 -2.72 3.74 0 0 Z " fill="#C9F1FC" transform="translate(234,312)"/>
<path d="M0 0 C0.78503906 0.00386719 1.57007813 0.00773437 2.37890625 0.01171875 C4.4375 0.3125 4.4375 0.3125 6.4375 2.3125 C5.73882812 2.27769531 5.04015625 2.24289062 4.3203125 2.20703125 C3.41023437 2.17996094 2.50015625 2.15289062 1.5625 2.125 C0.65757812 2.09019531 -0.24734375 2.05539062 -1.1796875 2.01953125 C-1.96601563 2.11621094 -2.75234375 2.21289062 -3.5625 2.3125 C-5.49645001 5.21342502 -5.86381941 6.20924737 -6.1875 9.5 C-6.31125 10.758125 -6.435 12.01625 -6.5625 13.3125 C-6.8925 13.3125 -7.2225 13.3125 -7.5625 13.3125 C-7.64371924 11.70917209 -7.70179134 10.10465974 -7.75 8.5 C-7.78480469 7.60667969 -7.81960937 6.71335937 -7.85546875 5.79296875 C-7.5625 3.3125 -7.5625 3.3125 -6.3359375 1.5078125 C-4.08244257 -0.01106294 -2.69983245 -0.05782178 0 0 Z " fill="#0573DE" transform="translate(131.5625,275.6875)"/>
<path d="M0 0 C6.27 0 12.54 0 19 0 C19 0.33 19 0.66 19 1 C17.58847656 1.09087891 17.58847656 1.09087891 16.1484375 1.18359375 C14.90320313 1.26738281 13.65796875 1.35117187 12.375 1.4375 C11.14523438 1.51871094 9.91546875 1.59992188 8.6484375 1.68359375 C5.38467612 1.96663944 2.22056141 2.41038953 -1 3 C-0.67 2.01 -0.34 1.02 0 0 Z " fill="#BCEDFB" transform="translate(139,258)"/>
<path d="M0 0 C0.33 0.99 0.66 1.98 1 3 C-3.85359495 7.01676824 -9.04972335 6.28136159 -15 6 C-15 5.67 -15 5.34 -15 5 C-14.12988281 4.96132812 -14.12988281 4.96132812 -13.2421875 4.921875 C-7.6291606 4.51432849 -4.41122445 3.50635789 0 0 Z " fill="#C5EEFB" transform="translate(149,243)"/>
<path d="M0 0 C0.94875 0.04125 1.8975 0.0825 2.875 0.125 C0.52622581 2.63035913 -1.2161787 4.03064909 -4.68359375 4.390625 C-7.17463675 4.37649142 -9.64024028 4.29869194 -12.125 4.125 C-12.125 3.795 -12.125 3.465 -12.125 3.125 C-11.01125 3.00125 -9.8975 2.8775 -8.75 2.75 C-4.70641243 2.05282973 -3.97840317 0.15913613 0 0 Z " fill="#2C98DE" transform="translate(145.125,243.875)"/>
<path d="M0 0 C3.37471011 1.44630433 5.78192764 3.04257018 8 6 C7.75 9.25 7.75 9.25 7 12 C5.05515683 9.08273524 3.56582063 6.13164127 2 3 C1.34 2.01 0.68 1.02 0 0 Z " fill="#016AD7" transform="translate(144,282)"/>
<path d="M0 0 C0 3.99904969 -1.72586967 5.80200422 -4 9 C-4.8125 7.3125 -4.8125 7.3125 -5 5 C-2.5625 2.25 -2.5625 2.25 0 0 Z M-7 9 C-6.34 9.33 -5.68 9.66 -5 10 C-6.65 11.32 -8.3 12.64 -10 14 C-8.125 10.125 -8.125 10.125 -7 9 Z " fill="#F5C913" transform="translate(240,257)"/>
<path d="M0 0 C1.98 0.99 1.98 0.99 4 2 C4 2.66 4 3.32 4 4 C4.66 4 5.32 4 6 4 C6 4.66 6 5.32 6 6 C7.32 6.33 8.64 6.66 10 7 C9.01 7.99 8.02 8.98 7 10 C5.83043409 8.52312468 4.66441854 7.04343707 3.5 5.5625 C2.8503125 4.73878906 2.200625 3.91507812 1.53125 3.06640625 C0 1 0 1 0 0 Z " fill="#3798D0" transform="translate(196,342)"/>
<path d="M0 0 C0.6875 1.6875 0.6875 1.6875 1 4 C0.02616054 5.68208635 -0.97695052 7.34738161 -2 9 C-2.71401232 12.19395026 -2.71401232 12.19395026 -3 15 C-3.33 15 -3.66 15 -4 15 C-4.45356243 8.53673535 -3.59378942 5.39068413 0 0 Z " fill="#41A3E1" transform="translate(126,221)"/>
<path d="M0 0 C3.28788824 3.11016455 5.83735988 6.01618925 8 10 C7.01 10.33 6.02 10.66 5 11 C4.71125 10.195625 4.4225 9.39125 4.125 8.5625 C3.26737432 5.8673532 3.26737432 5.8673532 1 5 C0.375 2.4375 0.375 2.4375 0 0 Z " fill="#CAF1FD" transform="translate(172,314)"/>
<path d="M0 0 C0.33 0.66 0.66 1.32 1 2 C0.67 2.99 0.34 3.98 0 5 C-0.66 5 -1.32 5 -2 5 C-2.2475 5.598125 -2.495 6.19625 -2.75 6.8125 C-4.16370012 9.28647521 -5.65055383 10.43370255 -8 12 C-6.59023295 8.96147295 -4.91129772 6.4060405 -2.875 3.75 C-2.06675781 2.69039062 -2.06675781 2.69039062 -1.2421875 1.609375 C-0.83226562 1.07828125 -0.42234375 0.5471875 0 0 Z " fill="#EED456" transform="translate(243,250)"/>
<path d="M0 0 C0.33 0 0.66 0 1 0 C1 1.65 1 3.3 1 5 C0.360625 5.28875 -0.27875 5.5775 -0.9375 5.875 C-3.15206079 6.82823451 -3.15206079 6.82823451 -4 9 C-3.67 6.69 -3.34 4.38 -3 2 C-2.34 2 -1.68 2 -1 2 C-0.67 1.34 -0.34 0.68 0 0 Z " fill="#CFCED6" transform="translate(316,395)"/>
<path d="M0 0 C4.875 4.75 4.875 4.75 6 7 C3.03 6.505 3.03 6.505 0 6 C-1.125 2.25 -1.125 2.25 0 0 Z " fill="#CFF2FC" transform="translate(190,336)"/>
<path d="M0 0 C3.34373475 0.55728913 6.03312999 1.35173889 9 3 C7.6875 4.5 7.6875 4.5 6 6 C5.01 6 4.02 6 3 6 C3.33 4.68 3.66 3.36 4 2 C2.68 1.34 1.36 0.68 0 0 Z " fill="#1996D7" transform="translate(209,308)"/>
<path d="M0 0 C3.00609963 1.00203321 4.06176821 1.60028446 6 4 C6 4.99 6 5.98 6 7 C6.66 7 7.32 7 8 7 C7.67 7.99 7.34 8.98 7 10 C5.82739389 8.71372289 4.6620717 7.42080217 3.5 6.125 C2.8503125 5.40570313 2.200625 4.68640625 1.53125 3.9453125 C0 2 0 2 0 0 Z " fill="#2D9CE0" transform="translate(166,305)"/>
<path d="M0 0 C0.33 0.66 0.66 1.32 1 2 C-0.98 4.31 -2.96 6.62 -5 9 C-6 5 -6 5 -5 3 C-4.01 3 -3.02 3 -2 3 C-2 2.34 -2 1.68 -2 1 C-1.34 0.67 -0.68 0.34 0 0 Z " fill="#FAEEBE" transform="translate(210,293)"/>
<path d="M0 0 C5.03985731 0.44469329 7.37634988 2.71343362 11 6 C10.01 6.33 9.02 6.66 8 7 C7.67 6.01 7.34 5.02 7 4 C5.01276732 3.29618843 3.01222047 2.6288189 1 2 C0.67 1.34 0.34 0.68 0 0 Z " fill="#2599D7" transform="translate(164,262)"/>
<path d="M0 0 C0.66 0 1.32 0 2 0 C2 2.64 2 5.28 2 8 C1.67 7.01 1.34 6.02 1 5 C-0.32 5.33 -1.64 5.66 -3 6 C-2 4 -1 2 0 0 Z " fill="#FDF3B8" transform="translate(253,286)"/>
<path d="M0 0 C2.64 0 5.28 0 8 0 C8 0.66 8 1.32 8 2 C9.32 2.33 10.64 2.66 12 3 C8.52128379 4.15957207 7.65780355 3.77456651 4.3125 2.5625 C3.50425781 2.27503906 2.69601563 1.98757813 1.86328125 1.69140625 C1.24839844 1.46324219 0.63351563 1.23507812 0 1 C0 0.67 0 0.34 0 0 Z " fill="#B8E9F9" transform="translate(158,259)"/>
<path d="M0 0 C0.33 0 0.66 0 1 0 C1 1.65 1 3.3 1 5 C-0.65 5.66 -2.3 6.32 -4 7 C-2.92598892 4.08482708 -2.22189824 2.22189824 0 0 Z " fill="#F5F5C9" transform="translate(241,303)"/>
<path d="M0 0 C2.0625 0.4375 2.0625 0.4375 4 1 C3.01 1.66 2.02 2.32 1 3 C0.01 4.485 0.01 4.485 -1 6 C-1.66 5.67 -2.32 5.34 -3 5 C-1.125 1.125 -1.125 1.125 0 0 Z " fill="#2399DE" transform="translate(133,264)"/>
<path d="M0 0 C0.33 1.32 0.66 2.64 1 4 C-1.4375 6.75 -1.4375 6.75 -4 9 C-4.66 8.67 -5.32 8.34 -6 8 C-4.02 5.36 -2.04 2.72 0 0 Z " fill="#ECD355" transform="translate(234,262)"/>
<path d="M0 0 C1.35561417 2.71122834 0.67911809 4.07979223 0 7 C-0.185625 7.928125 -0.37125 8.85625 -0.5625 9.8125 C-0.706875 10.534375 -0.85125 11.25625 -1 12 C-1.33 12 -1.66 12 -2 12 C-2.28571429 3.42857143 -2.28571429 3.42857143 0 0 Z " fill="#DEA704" transform="translate(259,310)"/>
<path d="M0 0 C0.66 0 1.32 0 2 0 C1.67 1.32 1.34 2.64 1 4 C-1.31 4.33 -3.62 4.66 -6 5 C-5.195625 4.360625 -4.39125 3.72125 -3.5625 3.0625 C-1.7249496 1.59396498 -1.7249496 1.59396498 0 0 Z " fill="#F6BD0B" transform="translate(234,304)"/>
<path d="M0 0 C0.99 0.33 1.98 0.66 3 1 C-0.75 6.875 -0.75 6.875 -3 8 C-3 6.68 -3 5.36 -3 4 C-2.01 4 -1.02 4 0 4 C0 2.68 0 1.36 0 0 Z " fill="#FDF8CD" transform="translate(239,251)"/>
</svg>
