<?xml version="1.0" encoding="UTF-8"?>
<svg version="1.1" xmlns="http://www.w3.org/2000/svg" width="409" height="610">
<path d="M0 0 C1.14670384 -0.85299768 2.29228934 -1.70749867 3.4375 -2.5625 C4.16453125 -3.10132813 4.8915625 -3.64015625 5.640625 -4.1953125 C7.24418683 -5.42187801 8.8168349 -6.68971158 10.359375 -7.9921875 C11.12765625 -8.63414062 11.8959375 -9.27609375 12.6875 -9.9375 C13.39261719 -10.54464844 14.09773438 -11.15179688 14.82421875 -11.77734375 C17 -13 17 -13 19.76953125 -12.69140625 C20.87361328 -12.34916016 20.87361328 -12.34916016 22 -12 C21.93941406 -10.83855469 21.87882812 -9.67710937 21.81640625 -8.48046875 C21.73045516 -6.71620944 21.64597924 -4.951878 21.5625 -3.1875 C21.51593262 -2.21006836 21.46936523 -1.23263672 21.42138672 -0.22558594 C21.1013631 7.08830975 20.92831023 14.395218 20.81640625 21.71484375 C20.78392089 23.62980395 20.7512861 25.54476162 20.71850586 27.4597168 C20.66950532 30.34008208 20.62529678 33.22009401 20.59671021 36.10073853 C20.38470859 57.25647413 15.97971683 72.03451245 1.8046875 88.2421875 C0 90 0 90 -2 90 C-2 90.66 -2 91.32 -2 92 C-17.15520768 103.38397362 -34.25265343 106.19152456 -52.72265625 103.62109375 C-57.92344761 102.72884052 -62.18294389 101.18049692 -66.796875 98.609375 C-70.69106297 97.53225918 -73.60122385 99.23328844 -77.02392578 101.109375 C-80.03995484 102.87498752 -83.01196588 104.7083154 -85.98632812 106.54296875 C-86.71658203 106.98511719 -87.44683594 107.42726563 -88.19921875 107.8828125 C-89.18668091 108.49213623 -89.18668091 108.49213623 -90.1940918 109.11376953 C-92 110 -92 110 -95 110 C-94.30453597 103.52120349 -92.97603297 97.39835463 -91.37304688 91.09179688 C-89.99190956 85.61368701 -89.99190956 85.61368701 -90 80 C-91.19192486 78.57631197 -92.39012115 77.15694177 -93.6328125 75.77734375 C-96.33902936 72.25926184 -97.57663152 68.15866479 -99 64 C-99.26901123 63.22301758 -99.53802246 62.44603516 -99.81518555 61.64550781 C-102.93114821 51.10595702 -102.56652218 40.26648498 -102.6875 29.375 C-102.72076383 27.36586448 -102.75526141 25.35674899 -102.79101562 23.34765625 C-102.98841458 11.56506782 -103.04155151 -0.2159914 -103 -12 C-98.2988184 -11.23318305 -95.2241652 -9.34694081 -91.4375 -6.5625 C-89.3050229 -5.01980514 -87.1606575 -3.50390592 -85 -2 C-84.34386719 -1.49082031 -83.68773437 -0.98164063 -83.01171875 -0.45703125 C-80.73457676 0.289589 -80.73457676 0.289589 -77.8984375 -1.6328125 C-76.71512263 -2.45090673 -75.54104782 -3.28247716 -74.375 -4.125 C-50.49051083 -20.4190663 -22.80256189 -15.76735287 0 0 Z " fill="#F8FCFB" transform="translate(245,229)"/>
<path d="M0 0 C0.66 0 1.32 0 2 0 C2.04990393 5.21035408 2.08595515 10.42056518 2.10986328 15.63110352 C2.11984339 17.39903186 2.13343228 19.16694403 2.15087891 20.93481445 C2.3319431 39.77081595 2.3319431 39.77081595 0 49 C-0.66 49 -1.32 49 -2 49 C-2 49.66 -2 50.32 -2 51 C-2.66 51 -3.32 51 -4 51 C-4.2165625 52.175625 -4.2165625 52.175625 -4.4375 53.375 C-5 56 -5 56 -6 58 C-6.66 58 -7.32 58 -8 58 C-8.26296875 58.58136719 -8.5259375 59.16273438 -8.796875 59.76171875 C-13.65723453 68.80388113 -22.89606494 73.24748196 -32 77 C-36.41513343 78.25119416 -40.87910885 78.18353963 -45.4375 78.1875 C-46.17548828 78.19974609 -46.91347656 78.21199219 -47.67382812 78.22460938 C-52.24310657 78.23679412 -55.63931398 77.45356201 -60 76 C-63.78730881 76.3151316 -66.44984882 77.63310176 -69.6875 79.5625 C-73.79603399 82 -73.79603399 82 -76 82 C-76.33 82.99 -76.66 83.98 -77 85 C-79.44140625 86.4296875 -79.44140625 86.4296875 -82.5625 87.875 C-87.07265942 90.02269496 -91.25790462 92.29895413 -95.37890625 95.1171875 C-97 96 -97 96 -100 96 C-99.3370459 89.69456991 -98.10981707 83.66022321 -96.625 77.5 C-96.41617188 76.60152344 -96.20734375 75.70304687 -95.9921875 74.77734375 C-95.00826128 70.65565283 -93.95083822 66.71209788 -92.359375 62.78125 C-90.92953097 59.13427194 -90.59811442 55.94321799 -90.625 52 C-90.61726562 50.865625 -90.60953125 49.73125 -90.6015625 48.5625 C-90.84741652 44.89405734 -90.84741652 44.89405734 -92.5065918 41.31835938 C-94.20765807 36.90582284 -94.39024412 33.03144211 -94.29296875 28.34375 C-94.28872391 27.55601196 -94.28447906 26.76827393 -94.28010559 25.95666504 C-94.26347617 23.4707441 -94.22585614 20.98567081 -94.1875 18.5 C-94.17243271 16.80209514 -94.15874791 15.10417742 -94.14648438 13.40625 C-94.11362466 9.27051281 -94.06195474 5.1353995 -94 1 C-91.36720744 2.26557156 -88.93931473 3.63316696 -86.53125 5.28515625 C-85.88381836 5.72875488 -85.23638672 6.17235352 -84.56933594 6.62939453 C-83.88645508 7.10231934 -83.20357422 7.57524414 -82.5 8.0625 C-81.78875977 8.55347168 -81.07751953 9.04444336 -80.34472656 9.55029297 C-73.00970134 14.64195429 -65.77471034 19.88639995 -58.875 25.55859375 C-53.04880853 30.57511536 -53.04880853 30.57511536 -46 33.125 C-40.34564851 32.37885877 -35.83728367 27.80321232 -31.59863281 24.30859375 C-29.00788351 22.18788266 -26.34517521 20.16054499 -23.6875 18.125 C-23.16091797 17.71781738 -22.63433594 17.31063477 -22.09179688 16.89111328 C-17.08054861 13.02465017 -11.97579268 9.28920945 -6.84838867 5.57861328 C-4.42504415 3.81812191 -2.12181799 2.12181799 0 0 Z " fill="#019AED" transform="translate(250,243)"/>
<path d="M0 0 C2.64952466 2.64952466 2.25751613 3.90681245 2.265625 7.6015625 C2.26949219 9.29732422 2.26949219 9.29732422 2.2734375 11.02734375 C2.26570313 12.21457031 2.25796875 13.40179688 2.25 14.625 C2.26160156 16.37103516 2.26160156 16.37103516 2.2734375 18.15234375 C2.23535113 34.96747425 -4.25767082 46.73612928 -15.1953125 59.2421875 C-17 61 -17 61 -19 61 C-19 61.66 -19 62.32 -19 63 C-34.15520768 74.38397362 -51.25265343 77.19152456 -69.72265625 74.62109375 C-76.17574592 73.5139949 -83.26184879 71.73815121 -88 67 C-86.13818673 65.79193022 -84.25988465 64.60924703 -82.375 63.4375 C-81.33085937 62.77621094 -80.28671875 62.11492187 -79.2109375 61.43359375 C-74.94104998 59.52720844 -72.47463174 60.27369299 -68.13671875 61.546875 C-59.24005053 63.43355418 -48.19333532 63.02826319 -40 59 C-39.10925781 58.58621094 -38.21851563 58.17242187 -37.30078125 57.74609375 C-30.5893465 54.38579832 -23.46986945 49.9397389 -20 43 C-19.34 43 -18.68 43 -18 43 C-17.34 40.69 -16.68 38.38 -16 36 C-15.34 36 -14.68 36 -14 36 C-14 35.34 -14 34.68 -14 34 C-13.34 34 -12.68 34 -12 34 C-12.061875 32.865625 -12.12375 31.73125 -12.1875 30.5625 C-12.19483054 26.40608232 -11.22044302 23.10631141 -9.78515625 19.234375 C-9.02782439 17.07918186 -8.52851032 14.98349093 -8.0625 12.75 C-6.96746445 8.88516866 -5.77228093 6.85891471 -3 4 C-2.34 3.67 -1.68 3.34 -1 3 C-0.67 2.01 -0.34 1.02 0 0 Z " fill="#EBA206" transform="translate(262,258)"/>
<path d="M0 0 C1.4530957 -0.01836914 1.4530957 -0.01836914 2.93554688 -0.03710938 C8.75450748 -0.04891254 13.73527101 0.51366971 19.3125 2.1875 C19.3125 2.8475 19.3125 3.5075 19.3125 4.1875 C20.199375 4.435 21.08625 4.6825 22 4.9375 C25.41677135 6.22684768 27.5922748 7.78730129 30.3125 10.1875 C28.92430863 13.45010204 27.45705257 15.14079513 24.625 17.25 C23.83351562 17.84167969 23.04203125 18.43335938 22.2265625 19.04296875 C20.78410156 20.10451172 20.78410156 20.10451172 19.3125 21.1875 C18.04887863 22.14113186 16.78590027 23.09561611 15.5234375 24.05078125 C14.18285724 25.05544262 12.84170995 26.05934781 11.5 27.0625 C10.85393799 27.55113525 10.20787598 28.03977051 9.54223633 28.54321289 C8.92372803 29.00074951 8.30521973 29.45828613 7.66796875 29.9296875 C6.84268677 30.54626221 6.84268677 30.54626221 6.00073242 31.17529297 C4.03611298 32.3532123 2.59788021 32.94366006 0.3125 33.1875 C-1.55932617 32.31054688 -1.55932617 32.31054688 -3.48046875 30.90625 C-4.18929199 30.39690918 -4.89811523 29.88756836 -5.62841797 29.36279297 C-6.36979004 28.80994629 -7.11116211 28.25709961 -7.875 27.6875 C-8.63441895 27.13594238 -9.39383789 26.58438477 -10.17626953 26.01611328 C-14.85997374 22.59784146 -19.49705615 19.11689925 -24.0234375 15.4921875 C-25.5228975 14.31655454 -27.1021236 13.2444176 -28.6875 12.1875 C-28.6875 11.5275 -28.6875 10.8675 -28.6875 10.1875 C-27.06226449 9.12148531 -25.38566803 8.13301738 -23.6875 7.1875 C-22.83929688 6.66929687 -21.99109375 6.15109375 -21.1171875 5.6171875 C-19.85261719 4.84761719 -19.85261719 4.84761719 -18.5625 4.0625 C-17.71429688 3.54429687 -16.86609375 3.02609375 -15.9921875 2.4921875 C-10.79172631 -0.45180239 -5.81106439 0.00379065 0 0 Z " fill="#04C0F6" transform="translate(202.6875,227.8125)"/>
<path d="M0 0 C0.83144531 0.77988281 1.66289062 1.55976563 2.51953125 2.36328125 C2.51953125 3.02328125 2.51953125 3.68328125 2.51953125 4.36328125 C1.85953125 4.36328125 1.19953125 4.36328125 0.51953125 4.36328125 C0.29265625 4.98203125 0.06578125 5.60078125 -0.16796875 6.23828125 C-1.8792056 9.00885519 -3.4515422 9.32901365 -6.48046875 10.36328125 C-7.47046875 11.02328125 -8.46046875 11.68328125 -9.48046875 12.36328125 C-10.18171875 11.60015625 -10.88296875 10.83703125 -11.60546875 10.05078125 C-14.44399479 7.39737647 -16.94995926 5.92327382 -20.48046875 4.36328125 C-20.48046875 3.70328125 -20.48046875 3.04328125 -20.48046875 2.36328125 C-34.67736907 0.3470548 -50.37409469 -1.69996053 -62.48046875 7.36328125 C-62.99222656 7.90339844 -63.50398437 8.44351563 -64.03125 9 C-65.88022071 10.73932825 -66.94079492 11.20807896 -69.48046875 11.36328125 C-71.83984375 10.1484375 -71.83984375 10.1484375 -74.23046875 8.42578125 C-75.0296875 7.85988281 -75.82890625 7.29398438 -76.65234375 6.7109375 C-77.255625 6.26621094 -77.85890625 5.82148438 -78.48046875 5.36328125 C-78.3515625 3.1171875 -78.3515625 3.1171875 -77.48046875 0.36328125 C-74.890625 -1.734375 -74.890625 -1.734375 -71.54296875 -3.69921875 C-70.66487549 -4.21464233 -70.66487549 -4.21464233 -69.76904297 -4.74047852 C-48.0606847 -17.20312222 -19.81176246 -15.81806408 0 0 Z " fill="#F7C10B" transform="translate(242.48046875,227.63671875)"/>
<path d="M0 0 C2.64 0 5.28 0 8 0 C10.31 5.28 12.62 10.56 15 16 C18.29818961 14.35090519 18.870756 10.72914036 20.125 7.4375 C20.54072266 6.37112305 20.54072266 6.37112305 20.96484375 5.28320312 C21.64942596 3.52453504 22.32551635 1.76256576 23 0 C25.64 0 28.28 0 31 0 C31 9.24 31 18.48 31 28 C29.02 28 27.04 28 25 28 C24.67 23.05 24.34 18.1 24 13 C22.39639698 17.56127862 22.39639698 17.56127862 20.79907227 22.12475586 C19.11111111 26.88888889 19.11111111 26.88888889 18 28 C16.35 28 14.7 28 13 28 C11.02 24.04 9.04 20.08 7 16 C6.67 19.96 6.34 23.92 6 28 C4.02 28 2.04 28 0 28 C0 18.76 0 9.52 0 0 Z " fill="#45495B" transform="translate(93,362)"/>
<path d="M0 0 C3 1 3 1 4 3 C4.80050781 3.22042969 5.60101563 3.44085938 6.42578125 3.66796875 C9 5 9 5 10.29296875 8.30078125 C10.61245767 9.63308981 10.9099564 10.97082611 11.1875 12.3125 C12.33058395 17.52737236 12.33058395 17.52737236 14.09375 22.5546875 C16.47919993 28.99128947 15.90570574 37.50159001 13.5 43.875 C13.005 44.90625 12.51 45.9375 12 47 C4.75632352 40.1478736 -0.39546564 30.85306106 -1.17553711 20.71972656 C-1.23167674 18.24758677 -1.2240009 15.78495588 -1.1875 13.3125 C-1.18685547 12.47138672 -1.18621094 11.63027344 -1.18554688 10.76367188 C-1.15859463 6.98736265 -1.0327979 3.65265333 0 0 Z " fill="#F5B205" transform="translate(145,263)"/>
<path d="M0 0 C1.65 0 3.3 0 5 0 C5 0.66 5 1.32 5 2 C6.010625 1.649375 7.02125 1.29875 8.0625 0.9375 C11.95562961 -0.19276344 15.0024497 0.34585541 19 1 C20.03125 0.79375 21.0625 0.5875 22.125 0.375 C25 0 25 0 27.8125 1.3125 C30 3 30 3 31 5 C31.07194869 7.88370333 31.09291708 10.74239664 31.0625 13.625 C31.05798828 14.42679687 31.05347656 15.22859375 31.04882812 16.0546875 C31.03703168 18.03649006 31.01909605 20.01825433 31 22 C28.69 22 26.38 22 24 22 C24 16.72 24 11.44 24 6 C22.35 6.66 20.7 7.32 19 8 C18.67 12.62 18.34 17.24 18 22 C16.02 22 14.04 22 12 22 C12 16.72 12 11.44 12 6 C10.02 6.33 8.04 6.66 6 7 C6 11.95 6 16.9 6 22 C4.02 22 2.04 22 0 22 C0 14.74 0 7.48 0 0 Z " fill="#4E5267" transform="translate(196,368)"/>
<path d="M0 0 C2.64952466 2.64952466 2.25751613 3.90681245 2.265625 7.6015625 C2.26949219 9.29732422 2.26949219 9.29732422 2.2734375 11.02734375 C2.26570313 12.21457031 2.25796875 13.40179688 2.25 14.625 C2.26160156 16.37103516 2.26160156 16.37103516 2.2734375 18.15234375 C2.25402263 26.72401102 1.45719054 33.70408799 -2.5 41.4375 C-2.9228125 42.28183594 -3.345625 43.12617188 -3.78125 43.99609375 C-5 46 -5 46 -7 47 C-7.37250554 40.41906874 -7.37250554 40.41906874 -5.5 38.3125 C-5.005 37.879375 -4.51 37.44625 -4 37 C-4 35.68 -4 34.36 -4 33 C-4.99 33 -5.98 33 -7 33 C-7.268125 33.78375 -7.53625 34.5675 -7.8125 35.375 C-9 38 -9 38 -12 40 C-12.66 40 -13.32 40 -14 40 C-14.268125 40.969375 -14.53625 41.93875 -14.8125 42.9375 C-15.204375 43.948125 -15.59625 44.95875 -16 46 C-17.485 46.495 -17.485 46.495 -19 47 C-19.33 47.66 -19.66 48.32 -20 49 C-21.66279327 50.0064275 -23.32983484 51.00585407 -25 52 C-26.75149165 53.58245275 -26.75149165 53.58245275 -28 55 C-28.66 54.67 -29.32 54.34 -30 54 C-29.36191406 53.37351562 -28.72382813 52.74703125 -28.06640625 52.1015625 C-27.24011719 51.28429687 -26.41382813 50.46703125 -25.5625 49.625 C-24.73878906 48.81289063 -23.91507813 48.00078125 -23.06640625 47.1640625 C-20.96565328 45.17651485 -20.96565328 45.17651485 -20 43 C-19.34 43 -18.68 43 -18 43 C-17.34 40.69 -16.68 38.38 -16 36 C-15.34 36 -14.68 36 -14 36 C-14 35.34 -14 34.68 -14 34 C-13.34 34 -12.68 34 -12 34 C-12.061875 32.865625 -12.12375 31.73125 -12.1875 30.5625 C-12.19483054 26.40608232 -11.22044302 23.10631141 -9.78515625 19.234375 C-9.02782439 17.07918186 -8.52851032 14.98349093 -8.0625 12.75 C-6.96746445 8.88516866 -5.77228093 6.85891471 -3 4 C-2.34 3.67 -1.68 3.34 -1 3 C-0.67 2.01 -0.34 1.02 0 0 Z " fill="#F4B309" transform="translate(262,258)"/>
<path d="M0 0 C0.495 0.99 0.495 0.99 1 2 C0.34 2 -0.32 2 -1 2 C-1.26296875 2.58136719 -1.5259375 3.16273438 -1.796875 3.76171875 C-6.65723453 12.80388113 -15.89606494 17.24748196 -25 21 C-29.41513343 22.25119416 -33.87910885 22.18353963 -38.4375 22.1875 C-39.17548828 22.19974609 -39.91347656 22.21199219 -40.67382812 22.22460938 C-45.24310657 22.23679412 -48.63931398 21.45356201 -53 20 C-56.78730881 20.3151316 -59.44984882 21.63310176 -62.6875 23.5625 C-66.79603399 26 -66.79603399 26 -69 26 C-69.33 26.99 -69.66 27.98 -70 29 C-72.44140625 30.4296875 -72.44140625 30.4296875 -75.5625 31.875 C-80.07265942 34.02269496 -84.25790462 36.29895413 -88.37890625 39.1171875 C-90 40 -90 40 -93 40 C-92.326956 33.57205173 -91.06320013 27.40781453 -89.5625 21.125 C-89.34529297 20.17625 -89.12808594 19.2275 -88.90429688 18.25 C-88.68966797 17.34507812 -88.47503906 16.44015625 -88.25390625 15.5078125 C-88.06127197 14.68941895 -87.8686377 13.87102539 -87.67016602 13.02783203 C-87 11 -87 11 -85 9 C-85 10.98 -85 12.96 -85 15 C-84.34 15 -83.68 15 -83 15 C-83.15597656 15.58007812 -83.31195313 16.16015625 -83.47265625 16.7578125 C-84.66056198 21.52516927 -85.24917875 25.12820288 -84 30 C-81.03 29.34 -78.06 28.68 -75 28 C-74.67 26.35 -74.34 24.7 -74 23 C-72.88625 22.87625 -71.7725 22.7525 -70.625 22.625 C-66.96896323 22.3534187 -66.96896323 22.3534187 -65 20 C-64.030625 19.855625 -63.06125 19.71125 -62.0625 19.5625 C-59.00597386 19.32330221 -59.00597386 19.32330221 -57.609375 17.453125 C-56 16 -56 16 -53.73046875 15.85546875 C-52.47169922 16.01982422 -52.47169922 16.01982422 -51.1875 16.1875 C-50.29546875 16.30351562 -49.4034375 16.41953125 -48.484375 16.5390625 C-46 17 -46 17 -42.9375 18.0625 C-38.97085118 19.32845175 -35.13743009 19.3745463 -31 19 C-30.505 18.505 -30.505 18.505 -30 18 C-28.00041636 17.95919217 -25.99954746 17.95745644 -24 18 C-23.67 16.35 -23.34 14.7 -23 13 C-20.03 13.495 -20.03 13.495 -17 14 C-16.67 13.01 -16.34 12.02 -16 11 C-15.01 11 -14.02 11 -13 11 C-13 10.34 -13 9.68 -13 9 C-12.030625 8.71125 -11.06125 8.4225 -10.0625 8.125 C-6.89335797 7.35785318 -6.89335797 7.35785318 -6 5 C-5.34 5 -4.68 5 -4 5 C-4 4.01 -4 3.02 -4 2 C-2.68 1.34 -1.36 0.68 0 0 Z " fill="#1979BC" transform="translate(243,299)"/>
<path d="M0 0 C1.32 0 2.64 0 4 0 C4.1875 2.3125 4.1875 2.3125 4 5 C3.50242187 5.45761719 3.00484375 5.91523438 2.4921875 6.38671875 C0.79029344 7.89173192 0.79029344 7.89173192 0.83984375 10.09375 C0.87207031 10.8878125 0.90429688 11.681875 0.9375 12.5 C0.53522263 18.99390604 -3.37041978 22.4970404 -7.65234375 26.9453125 C-10 29 -10 29 -12 29 C-12 29.66 -12 30.32 -12 31 C-16.90293609 34.8428418 -24.67769869 40 -31 40 C-29.9024777 37.00675737 -29.32317108 36.15389099 -26.375 34.75 C-25.59125 34.5025 -24.8075 34.255 -24 34 C-24 33.67 -24 33.34 -24 33 C-22.35 33 -20.7 33 -19 33 C-19 32.34 -19 31.68 -19 31 C-19.99 30.67 -20.98 30.34 -22 30 C-22.33 29.34 -22.66 28.68 -23 28 C-24.89533342 27.53476937 -24.89533342 27.53476937 -27.0625 27.375 C-28.361875 27.25125 -29.66125 27.1275 -31 27 C-28.55799529 24.94871604 -26.48424833 23.78817342 -23.5 22.5625 C-20.1048696 21.04681679 -18.52599071 19.61620467 -16 17 C-15.01 17 -14.02 17 -13 17 C-12.67 16.01 -12.34 15.02 -12 14 C-11.01 14 -10.02 14 -9 14 C-8.938125 13.05125 -8.87625 12.1025 -8.8125 11.125 C-8.544375 10.09375 -8.27625 9.0625 -8 8 C-6.34561387 7.30341637 -4.67745682 6.63903117 -3 6 C-1.15725024 2.98303591 -1.15725024 2.98303591 0 0 Z " fill="#E8A90D" transform="translate(255,290)"/>
<path d="M0 0 C3.14447232 1.29880379 4.54042422 2.3206271 6.4375 5.125 C7.27564384 9.40884631 6.70067664 12.98430539 5 17 C1.79178777 20.05899306 -0.18760261 20.88597931 -4.5625 21.5 C-8.60466383 20.9120489 -10.17502528 19.90568828 -13 17 C-15.28647877 13.73360176 -15.54954056 10.92528971 -15 7 C-11.09037254 0.73587571 -7.22748841 -0.76297862 0 0 Z " fill="#ECAB09" transform="translate(258,322)"/>
<path d="M0 0 C2.3925 -0.0825 4.785 -0.165 7.25 -0.25 C7.99668945 -0.28641602 8.74337891 -0.32283203 9.51269531 -0.36035156 C12.85169638 -0.41603152 14.69102518 -0.22276088 17.421875 1.74609375 C19.94687661 5.35234605 20.32870627 8.65377266 20 13 C18.76940171 16.3669669 17.32077062 19.33961469 14 21 C12.45976004 21.06950541 10.91665012 21.08452357 9.375 21.0625 C8.14910156 21.04896484 8.14910156 21.04896484 6.8984375 21.03515625 C6.27195313 21.02355469 5.64546875 21.01195312 5 21 C5 23.64 5 26.28 5 29 C3.35 29 1.7 29 0 29 C0 19.43 0 9.86 0 0 Z M5 5 C5 8.3 5 11.6 5 15 C7.31 15 9.62 15 12 15 C13.58538318 12.48203847 14.0373656 11.32134414 13.6875 8.3125 C13.21715153 6.05839048 13.21715153 6.05839048 12 5 C9.66702567 4.95907063 7.33294775 4.95758277 5 5 Z " fill="#3B3E53" transform="translate(231,369)"/>
<path d="M0 0 C2.1875 1.625 2.1875 1.625 3.1875 3.625 C3.25944869 6.50870333 3.28041708 9.36739664 3.25 12.25 C3.24548828 13.05179687 3.24097656 13.85359375 3.23632812 14.6796875 C3.22453168 16.66149006 3.20659605 18.64325433 3.1875 20.625 C0.58222895 20.73292837 -2.01858311 20.81224878 -4.625 20.875 C-5.36298828 20.90851563 -6.10097656 20.94203125 -6.86132812 20.9765625 C-12.32160274 21.075391 -12.32160274 21.075391 -14.80078125 18.80078125 C-16.16389067 15.86930655 -16.22030404 13.81946502 -15.8125 10.625 C-14.12306971 8.31372729 -13.16115886 7.69692805 -10.33203125 7.11328125 C-9.43871094 7.05527344 -8.54539062 6.99726563 -7.625 6.9375 C-6.72394531 6.87175781 -5.82289063 6.80601562 -4.89453125 6.73828125 C-3.86392578 6.68220703 -3.86392578 6.68220703 -2.8125 6.625 C-2.8125 5.965 -2.8125 5.305 -2.8125 4.625 C-6.4425 4.955 -10.0725 5.285 -13.8125 5.625 C-13.8125 3.645 -13.8125 1.665 -13.8125 -0.375 C-8.86428338 -1.53928626 -4.68542986 -2.2906546 0 0 Z M-9.8125 12.625 C-9.4825 13.615 -9.1525 14.605 -8.8125 15.625 C-6.8325 15.295 -4.8525 14.965 -2.8125 14.625 C-3.1425 13.635 -3.4725 12.645 -3.8125 11.625 C-6.86520463 11.46688612 -6.86520463 11.46688612 -9.8125 12.625 Z " fill="#52556B" transform="translate(267.8125,369.375)"/>
<path d="M0 0 C0.74958984 0.00902344 1.49917969 0.01804687 2.27148438 0.02734375 C4.11862654 0.05087422 5.96560412 0.08674439 7.8125 0.125 C7.8125 1.775 7.8125 3.425 7.8125 5.125 C2.8625 5.455 -2.0875 5.785 -7.1875 6.125 C-7.290625 8.208125 -7.39375 10.29125 -7.5 12.4375 C-7.55800781 13.60925781 -7.61601562 14.78101563 -7.67578125 15.98828125 C-7.51199755 19.25523973 -7.51199755 19.25523973 -5 21.03125 C-2.03817565 22.18307058 -0.03214925 22.43878597 3.125 22.3125 C4.00800781 22.28542969 4.89101562 22.25835937 5.80078125 22.23046875 C6.46464844 22.19566406 7.12851563 22.16085937 7.8125 22.125 C7.8125 24.105 7.8125 26.085 7.8125 28.125 C-6.14435258 28.81328314 -6.14435258 28.81328314 -9.875 26.4375 C-13.82292617 22.48957383 -15.3617958 19.85370231 -15.625 14.25 C-15.47215394 9.12965714 -14.19114521 6.24428486 -11.1875 2.125 C-7.39586973 -0.40275351 -4.37875969 -0.09943035 0 0 Z " fill="#404457" transform="translate(162.1875,361.875)"/>
<path d="M0 0 C0 0.66 0 1.32 0 2 C0.59167969 1.82082031 1.18335938 1.64164062 1.79296875 1.45703125 C8.31669312 -0.29894676 8.31669312 -0.29894676 12 1.3125 C13.02612141 2.17828994 14.05065355 3.05065355 15 4 C15.08631874 5.34267413 15.10706473 6.68974322 15.09765625 8.03515625 C15.09443359 8.84404297 15.09121094 9.65292969 15.08789062 10.48632812 C15.07951172 11.33646484 15.07113281 12.18660156 15.0625 13.0625 C15.05798828 13.91650391 15.05347656 14.77050781 15.04882812 15.65039062 C15.03700373 17.76695663 15.01906769 19.88348685 15 22 C13.02 22 11.04 22 9 22 C8.67 17.05 8.34 12.1 8 7 C6.02 7 4.04 7 2 7 C2 11.95 2 16.9 2 22 C-0.31 22 -2.62 22 -5 22 C-5 15.07 -5 8.14 -5 1 C-2 0 -2 0 0 0 Z " fill="#5A5B6C" transform="translate(279,368)"/>
<path d="M0 0 C0.66 0 1.32 0 2 0 C2.04990393 5.21035408 2.08595515 10.42056518 2.10986328 15.63110352 C2.11984339 17.39903186 2.13343228 19.16694403 2.15087891 20.93481445 C2.3319431 39.77081595 2.3319431 39.77081595 0 49 C-0.66 49 -1.32 49 -2 49 C-2 49.66 -2 50.32 -2 51 C-2.66 51 -3.32 51 -4 51 C-4.33 52.65 -4.66 54.3 -5 56 C-6.09658936 52.71023192 -5.79953138 51.28696233 -5 48 C-4.34 48 -3.68 48 -3 48 C-1.79838489 44.39515466 -1.76982864 41.02710143 -1.68359375 37.26953125 C-1.66281265 36.51911057 -1.64203156 35.76868988 -1.62062073 34.99552917 C-1.55530074 32.60127816 -1.49632208 30.20691861 -1.4375 27.8125 C-1.39429807 26.18813987 -1.35068324 24.56379067 -1.30664062 22.93945312 C-1.19963737 18.95974629 -1.09832063 14.97993042 -1 11 C-11.63832683 10.72071218 -17.88828088 16.21966303 -25.8671875 22.52734375 C-29.00276962 25.002186 -32.19041663 27.38818684 -35.4140625 29.74609375 C-37.05692815 30.99355635 -37.05692815 30.99355635 -38.5859375 32.59765625 C-40.38426026 34.38107578 -41.48252536 34.97502536 -44.0234375 35.09765625 C-44.79945313 35.08605469 -45.57546875 35.07445312 -46.375 35.0625 C-47.14585937 35.05347656 -47.91671875 35.04445313 -48.7109375 35.03515625 C-49.46632812 35.02355469 -50.22171875 35.01195312 -51 35 C-52.32 35 -53.64 35 -55 35 C-55.99 35 -56.98 35 -58 35 C-58 34.34 -58 33.68 -58 33 C-56.68 33 -55.36 33 -54 33 C-54.66 31.35 -55.32 29.7 -56 28 C-54.7625 28.99 -54.7625 28.99 -53.5 30 C-50.54782302 31.88802016 -47.90992217 32.89696441 -44.31640625 32.69921875 C-39.36753426 31.20537712 -35.52974646 27.5496587 -31.59863281 24.30859375 C-29.00788351 22.18788266 -26.34517521 20.16054499 -23.6875 18.125 C-23.16091797 17.71781738 -22.63433594 17.31063477 -22.09179688 16.89111328 C-17.08054861 13.02465017 -11.97579268 9.28920945 -6.84838867 5.57861328 C-4.42504415 3.81812191 -2.12181799 2.12181799 0 0 Z " fill="#13AFE5" transform="translate(250,243)"/>
<path d="M0 0 C2.36716494 3.17891398 2.17229755 5.2042799 2.015625 9.12109375 C1.97953125 10.2915625 1.9434375 11.46203125 1.90625 12.66796875 C1.83664063 14.00601562 1.83664063 14.00601562 1.765625 15.37109375 C0.775625 15.70109375 -0.214375 16.03109375 -1.234375 16.37109375 C-1.234375 17.03109375 -1.234375 17.69109375 -1.234375 18.37109375 C-4.97533352 20.24157301 -9.16006937 19.89557265 -13.234375 19.37109375 C-16.359375 17.62109375 -16.359375 17.62109375 -18.234375 14.37109375 C-18.85326789 10.28417042 -19.0447418 6.43410522 -18.234375 2.37109375 C-16.43398936 0.20186642 -15.04084399 -1.25447422 -12.484375 -2.44140625 C-7.8656935 -2.82629637 -3.82880903 -2.79128211 0 0 Z M-12.234375 4.37109375 C-13.16592126 7.2077791 -13.16592126 7.2077791 -13.234375 10.37109375 C-11.92302088 12.7340006 -11.92302088 12.7340006 -10.234375 14.37109375 C-8.584375 14.04109375 -6.934375 13.71109375 -5.234375 13.37109375 C-3.42135742 8.94016177 -3.42135742 8.94016177 -4.234375 4.37109375 C-8.33661085 3.35569263 -8.33661085 3.35569263 -12.234375 4.37109375 Z " fill="#232539" transform="translate(191.234375,370.62890625)"/>
<path d="M0 0 C0.33 0 0.66 0 1 0 C1 14.85 1 29.7 1 45 C0.67 45 0.34 45 0 45 C-0.33 37.41 -0.66 29.82 -1 22 C-7.08112593 28.08112593 -9.23136525 30.83707037 -11 39 C-11.33 39 -11.66 39 -12 39 C-12.495 21.675 -12.495 21.675 -13 4 C-12.34 4 -11.68 4 -11 4 C-10.67 6.64 -10.34 9.28 -10 12 C-9.67 10.68 -9.34 9.36 -9 8 C-8.38125 7.938125 -7.7625 7.87625 -7.125 7.8125 C-4.72238859 7.171081 -4.72238859 7.171081 -3.75 4.4375 C-3.37875 3.2309375 -3.37875 3.2309375 -3 2 C-2.01 2 -1.02 2 0 2 C0 1.34 0 0.68 0 0 Z " fill="#F0DCA7" transform="translate(264,238)"/>
<path d="M0 0 C2.35546875 0.15234375 2.35546875 0.15234375 5 1 C6.91665101 4.52026733 7.80496831 8.14934233 9 12 C10.32 8.37 11.64 4.74 13 1 C15.31 1 17.62 1 20 1 C18.43376933 5.09009953 16.84410872 9.1706937 15.25 13.25 C14.8065625 14.40886719 14.363125 15.56773437 13.90625 16.76171875 C13.46796875 17.87675781 13.0296875 18.99179687 12.578125 20.140625 C12.18012695 21.16704102 11.78212891 22.19345703 11.37207031 23.25097656 C9.91908486 26.16211823 8.53024662 27.96375976 6 30 C3.25 29.75 3.25 29.75 1 29 C1 27.68 1 26.36 1 25 C1.515625 24.5875 2.03125 24.175 2.5625 23.75 C4.38355546 21.91851659 4.38355546 21.91851659 3.9375 18.4375 C3.23876013 14.09246241 1.57911492 10.274773 -0.2578125 6.296875 C-1.08968448 3.72245012 -0.90863029 2.50735953 0 0 Z " fill="#2E3144" transform="translate(127,368)"/>
<path d="M0 0 C1.98 0 3.96 0 6 0 C6.50833591 1.24663331 7.00631145 2.49749387 7.5 3.75 C7.7784375 4.44609375 8.056875 5.1421875 8.34375 5.859375 C9 8 9 8 9 12 C9.66 12 10.32 12 11 12 C11.13277344 11.30132812 11.26554687 10.60265625 11.40234375 9.8828125 C11.57894531 8.97273438 11.75554687 8.06265625 11.9375 7.125 C12.19853516 5.76761719 12.19853516 5.76761719 12.46484375 4.3828125 C13 2 13 2 14 0 C16.31 0 18.62 0 21 0 C19.35325935 5.07880904 17.52383669 10.07396136 15.625 15.0625 C15.33367187 15.85205078 15.04234375 16.64160156 14.7421875 17.45507812 C13.03432342 21.92324006 11.2757449 25.41399732 8 29 C6.35 28.67 4.7 28.34 3 28 C3 26.68 3 25.36 3 24 C3.66 24 4.32 24 5 24 C6.14709734 20.62071324 5.84353618 18.61637607 4.75 15.25 C4.47027344 14.37859375 4.19054687 13.5071875 3.90234375 12.609375 C3.07710459 10.22296913 2.2122531 7.85916123 1.3125 5.5 C0 2 0 2 0 0 Z " fill="#2C2F45" transform="translate(296,369)"/>
<path d="M0 0 C0.495 0.99 0.495 0.99 1 2 C-1.97 1.01 -4.94 0.02 -8 -1 C-8 -1.66 -8 -2.32 -8 -3 C-9.2684375 -3.185625 -9.2684375 -3.185625 -10.5625 -3.375 C-14.15236798 -4.02770327 -17.50824875 -4.95247463 -21 -6 C-21 -6.66 -21 -7.32 -21 -8 C-41.75777315 -8.35457405 -41.75777315 -8.35457405 -61 -2 C-61.33 -1.01 -61.66 -0.02 -62 1 C-62.99 1.495 -62.99 1.495 -64 2 C-64 3.98 -64 5.96 -64 8 C-62.68 8 -61.36 8 -60 8 C-60 7.34 -60 6.68 -60 6 C-57.36 5.67 -54.72 5.34 -52 5 C-53.61236407 8.22472815 -56.94042604 9.31884463 -60 11 C-61.66979326 11.99477045 -63.33779419 12.99260254 -65 14 C-68.33333333 12 -71.66666667 10 -75 8 C-74.87109375 5.75390625 -74.87109375 5.75390625 -74 3 C-71.41015625 0.90234375 -71.41015625 0.90234375 -68.0625 -1.0625 C-67.18440674 -1.57792358 -67.18440674 -1.57792358 -66.28857422 -2.10375977 C-44.78649479 -14.44797998 -20.90097956 -12.20495157 0 0 Z " fill="#F4C00C" transform="translate(239,225)"/>
<path d="M0 0 C0.66 0.33 1.32 0.66 2 1 C-0.70381703 4.71774842 -4.70079457 5.31903838 -9 6 C-13.08813306 6.20539141 -17.1586585 6.14462547 -21.25 6.0625 C-23.38013979 6.02801932 -25.51035561 5.99789011 -27.640625 5.97265625 C-28.57422852 5.95468994 -29.50783203 5.93672363 -30.46972656 5.91821289 C-32.84471798 5.99498075 -34.7668597 6.19428954 -37 7 C-37.33 7.66 -37.66 8.32 -38 9 C-35.03 9.495 -35.03 9.495 -32 10 C-31.67 10.99 -31.34 11.98 -31 13 C-20.11 13 -9.22 13 2 13 C-7.55160776 19.3677385 -21.53566779 17.0256621 -32.25 15.1875 C-37.88055873 13.96386551 -43.86264024 12.13735976 -48 8 C-46.13818673 6.79193022 -44.25988465 5.60924703 -42.375 4.4375 C-40.80878906 3.44556641 -40.80878906 3.44556641 -39.2109375 2.43359375 C-34.94104998 0.52720844 -32.47463174 1.27369299 -28.13671875 2.546875 C-24.72260898 3.27089097 -21.28787231 3.23451361 -17.8125 3.25 C-17.05380615 3.25394775 -16.2951123 3.25789551 -15.51342773 3.26196289 C-9.79014219 3.20249222 -5.33010403 2.15074373 0 0 Z " fill="#E5A319" transform="translate(222,317)"/>
<path d="M0 0 C1.65 1.32 3.3 2.64 5 4 C6.32 3.34 7.64 2.68 9 2 C10.3213258 10.7419859 11.33165588 19.137418 11 28 C10.67 28 10.34 28 10 28 C9.938125 27.21625 9.87625 26.4325 9.8125 25.625 C9.544375 24.75875 9.27625 23.8925 9 23 C6.62374655 21.81608777 6.62374655 21.81608777 4 21 C3.01 20.01 2.02 19.02 1 18 C0.67 23.94 0.34 29.88 0 36 C-0.33 36 -0.66 36 -1 36 C-1.02472039 31.35522856 -1.04286968 26.71049543 -1.05493164 22.06567383 C-1.05996014 20.48558892 -1.06678378 18.90550866 -1.07543945 17.32543945 C-1.08756992 15.05418754 -1.09324313 12.78299715 -1.09765625 10.51171875 C-1.10281754 9.80536789 -1.10797882 9.09901703 -1.11329651 8.3712616 C-1.11364803 5.29745609 -0.9803186 2.9409558 0 0 Z " fill="#E9D295" transform="translate(144,245)"/>
<path d="M0 0 C2 2 2 2 2.1953125 4.8203125 C2.17210937 5.91085937 2.14890625 7.00140625 2.125 8.125 C2.10695313 9.22070312 2.08890625 10.31640625 2.0703125 11.4453125 C2.04710937 12.28835938 2.02390625 13.13140625 2 14 C0.6078125 14.433125 0.6078125 14.433125 -0.8125 14.875 C-4.09791667 15.8875 -4.09791667 15.8875 -7 18 C-7.75968759 19.87763938 -7.75968759 19.87763938 -8.1328125 22.0625 C-8.29910156 22.85914063 -8.46539062 23.65578125 -8.63671875 24.4765625 C-8.79785156 25.30929687 -8.95898438 26.14203125 -9.125 27 C-9.45883915 28.64626024 -9.79468333 30.29211554 -10.1328125 31.9375 C-10.27605957 32.66839844 -10.41930664 33.39929688 -10.56689453 34.15234375 C-11 36 -11 36 -12 38 C-12.99 38 -13.98 38 -15 38 C-15.33 40.64 -15.66 43.28 -16 46 C-17.485 46.495 -17.485 46.495 -19 47 C-19.33 47.66 -19.66 48.32 -20 49 C-21.66279327 50.0064275 -23.32983484 51.00585407 -25 52 C-26.75149165 53.58245275 -26.75149165 53.58245275 -28 55 C-28.66 54.67 -29.32 54.34 -30 54 C-29.36191406 53.37351562 -28.72382813 52.74703125 -28.06640625 52.1015625 C-27.24011719 51.28429687 -26.41382813 50.46703125 -25.5625 49.625 C-24.73878906 48.81289063 -23.91507813 48.00078125 -23.06640625 47.1640625 C-20.96565328 45.17651485 -20.96565328 45.17651485 -20 43 C-19.34 43 -18.68 43 -18 43 C-17.34 40.69 -16.68 38.38 -16 36 C-15.34 36 -14.68 36 -14 36 C-14 35.34 -14 34.68 -14 34 C-13.34 34 -12.68 34 -12 34 C-12.061875 32.865625 -12.12375 31.73125 -12.1875 30.5625 C-12.19483054 26.40608232 -11.22044302 23.10631141 -9.78515625 19.234375 C-9.02782439 17.07918186 -8.52851032 14.98349093 -8.0625 12.75 C-6.96746445 8.88516866 -5.77228093 6.85891471 -3 4 C-2.34 3.67 -1.68 3.34 -1 3 C-0.67 2.01 -0.34 1.02 0 0 Z " fill="#F2C652" transform="translate(262,258)"/>
<path d="M0 0 C6 4 6 4 7 6 C9.01669827 7.13350534 9.01669827 7.13350534 11 8 C11 8.66 11 9.32 11 10 C12.32 10.33 13.64 10.66 15 11 C14.34 11 13.68 11 13 11 C13 20.9 13 30.8 13 41 C12.67 41 12.34 41 12 41 C11.94465088 40.31897217 11.88930176 39.63794434 11.83227539 38.9362793 C11.57952368 35.85302403 11.32107872 32.77027182 11.0625 29.6875 C10.97548828 28.61564453 10.88847656 27.54378906 10.79882812 26.43945312 C10.71181641 25.41142578 10.62480469 24.38339844 10.53515625 23.32421875 C10.456604 22.37635498 10.37805176 21.42849121 10.29711914 20.4519043 C10.06676896 17.86729743 10.06676896 17.86729743 9 15 C8.34 15 7.68 15 7 15 C6.67 16.32 6.34 17.64 6 19 C4.66666667 17 3.33333333 15 2 13 C1.34 13.66 0.68 14.32 0 15 C0 10.05 0 5.1 0 0 Z " fill="#E1EADE" transform="translate(143,233)"/>
<path d="M0 0 C2.64 0 5.28 0 8 0 C8.33 2.31 8.66 4.62 9 7 C8.01 7.66 7.02 8.32 6 9 C5.49378487 11.02276681 5.49378487 11.02276681 5.48828125 13.3515625 C5.45283203 14.20234375 5.41738281 15.053125 5.38085938 15.9296875 C5.35830078 16.81914062 5.33574219 17.70859375 5.3125 18.625 C5.27833984 19.5221875 5.24417969 20.419375 5.20898438 21.34375 C5.12637598 23.56237538 5.05727281 25.7805994 5 28 C3.35 28 1.7 28 0 28 C0 18.76 0 9.52 0 0 Z " fill="#23273B" transform="translate(93,362)"/>
<path d="M0 0 C2.00932273 1.80323834 2.9044737 3.22204414 3.23583984 5.9206543 C3.29545123 8.20448366 3.26133955 10.46665393 3.1875 12.75 C3.17396484 13.54277344 3.16042969 14.33554687 3.14648438 15.15234375 C3.11125223 17.10185564 3.05744821 19.05101626 3 21 C0.69 21 -1.62 21 -4 21 C-4 15.39 -4 9.78 -4 4 C-5.65 4 -7.3 4 -9 4 C-9 2.68 -9 1.36 -9 0 C-5.4314543 -1.18951523 -3.60804584 -0.97717908 0 0 Z " fill="#535669" transform="translate(224,369)"/>
<path d="M0 0 C3.32116353 1.61119643 6.23739 3.48446132 9.25 5.625 C10.14203125 6.25664062 11.0340625 6.88828125 11.953125 7.5390625 C12.96632812 8.26222656 12.96632812 8.26222656 14 9 C10.55639368 9 9.25204608 8.20408468 6.3125 6.5 C5.50425781 6.0359375 4.69601563 5.571875 3.86328125 5.09375 C3.24839844 4.7328125 2.63351563 4.371875 2 4 C2.14029142 8.14604002 2.28824494 12.29177376 2.4375 16.4375 C2.47681641 17.60216797 2.51613281 18.76683594 2.55664062 19.96679688 C2.5961857 31.61397391 2.5961857 31.61397391 5.5625 42.6875 C8.45864163 49.36121767 6.56662047 55.45394044 4 62 C3.34 62.66 2.68 63.32 2 64 C2.23976562 62.72769531 2.23976562 62.72769531 2.484375 61.4296875 C3.00699185 57.95349361 3.20304416 54.63886212 3.25 51.125 C3.27578125 49.97257812 3.3015625 48.82015625 3.328125 47.6328125 C3.16975737 43.90226936 3.16975737 43.90226936 1.49780273 40.31396484 C-0.20846517 35.90228714 -0.39026305 32.03235427 -0.29296875 27.34375 C-0.28872391 26.55601196 -0.28447906 25.76827393 -0.28010559 24.95666504 C-0.26347617 22.4707441 -0.22585614 19.98567081 -0.1875 17.5 C-0.17243271 15.80209514 -0.15874791 14.10417742 -0.14648438 12.40625 C-0.11362466 8.27051281 -0.06195474 4.1353995 0 0 Z " fill="#36A3C9" transform="translate(156,244)"/>
<path d="M0 0 C3 1 3 1 4 3 C4.80050781 3.22042969 5.60101563 3.44085938 6.42578125 3.66796875 C9 5 9 5 10.29296875 8.30078125 C10.61245767 9.63308981 10.9099564 10.97082611 11.1875 12.3125 C12.33058395 17.52737236 12.33058395 17.52737236 14.09375 22.5546875 C16.47919993 28.99128947 15.90570574 37.50159001 13.5 43.875 C13.005 44.90625 12.51 45.9375 12 47 C9.66666667 44.66666667 7.33333333 42.33333333 5 40 C5 39.01 5 38.02 5 37 C5.66 37 6.32 37 7 37 C7.268125 37.639375 7.53625 38.27875 7.8125 38.9375 C8.88667752 41.33131686 8.88667752 41.33131686 12 42 C13.44410213 33.51589997 13.88857053 26.92670147 10 19 C8.8335614 15.69509063 7.78812651 12.41521487 7 9 C4.03 8.505 4.03 8.505 1 8 C0.67 12.95 0.34 17.9 0 23 C-0.33 23 -0.66 23 -1 23 C-1.02911321 19.9166866 -1.04683682 16.83340875 -1.0625 13.75 C-1.07087891 12.87730469 -1.07925781 12.00460937 -1.08789062 11.10546875 C-1.09111328 10.26113281 -1.09433594 9.41679687 -1.09765625 8.546875 C-1.10551147 7.38430176 -1.10551147 7.38430176 -1.11352539 6.19824219 C-1.00036998 4.00716402 -0.60552448 2.10362139 0 0 Z " fill="#E0C45B" transform="translate(145,263)"/>
<path d="M0 0 C0.33 0 0.66 0 1 0 C1.01417969 0.75925781 1.02835938 1.51851563 1.04296875 2.30078125 C1.14244287 8.23848812 1.14244287 8.23848812 3.9375 13.1875 C8.31537982 14.34897832 12.49957701 14.23594451 17 14 C17 15.98 17 17.96 17 20 C3.04314742 20.68828314 3.04314742 20.68828314 -0.6875 18.3125 C-4.85981012 14.14018988 -6.16248826 11.59860902 -6.1875 5.6875 C-6.13958275 4.12448483 -6.08187055 2.56160485 -6 1 C-5.67 1 -5.34 1 -5 1 C-5 3.97 -5 6.94 -5 10 C-3.35 9.67 -1.7 9.34 0 9 C0 6.03 0 3.06 0 0 Z " fill="#16192C" transform="translate(153,370)"/>
<path d="M0 0 C0.495 0.99 0.495 0.99 1 2 C0.34 2 -0.32 2 -1 2 C-1.26296875 2.58136719 -1.5259375 3.16273438 -1.796875 3.76171875 C-6.65723453 12.80388113 -15.89606494 17.24748196 -25 21 C-29.41513343 22.25119416 -33.87910885 22.18353963 -38.4375 22.1875 C-39.17548828 22.19974609 -39.91347656 22.21199219 -40.67382812 22.22460938 C-45.17826622 22.23662121 -48.75624263 21.70153822 -53 20 C-50.1518876 19.18407382 -47.66533016 18.8902774 -44.70703125 18.9375 C-43.91232422 18.94523437 -43.11761719 18.95296875 -42.29882812 18.9609375 C-41.47833984 18.97382813 -40.65785156 18.98671875 -39.8125 19 C-36.86939735 19.04559415 -33.9443094 19.0472507 -31 19 C-30.67 18.67 -30.34 18.34 -30 18 C-28.00041636 17.95919217 -25.99954746 17.95745644 -24 18 C-23.67 16.35 -23.34 14.7 -23 13 C-20.03 13.495 -20.03 13.495 -17 14 C-16.67 13.01 -16.34 12.02 -16 11 C-15.01 11 -14.02 11 -13 11 C-13 10.34 -13 9.68 -13 9 C-12.030625 8.71125 -11.06125 8.4225 -10.0625 8.125 C-6.89335797 7.35785318 -6.89335797 7.35785318 -6 5 C-5.34 5 -4.68 5 -4 5 C-4 4.01 -4 3.02 -4 2 C-2.68 1.34 -1.36 0.68 0 0 Z " fill="#0C8FDE" transform="translate(243,299)"/>
<path d="M0 0 C3.14447232 1.29880379 4.54042422 2.3206271 6.4375 5.125 C7.27564384 9.40884631 6.70067664 12.98430539 5 17 C1.79178777 20.05899306 -0.18760261 20.88597931 -4.5625 21.5 C-8.57409061 20.91649591 -10.19847353 19.88392431 -13 17 C-13.33 16.01 -13.66 15.02 -14 14 C-12.0625 14.3125 -12.0625 14.3125 -10 15 C-9.67 15.99 -9.34 16.98 -9 18 C-6.36 18.33 -3.72 18.66 -1 19 C-1 18.34 -1 17.68 -1 17 C-0.01 16.34 0.98 15.68 2 15 C2.36498034 12.10391601 2.36498034 12.10391601 2.1875 8.875 C2.16042969 7.77929688 2.13335937 6.68359375 2.10546875 5.5546875 C2.07066406 4.71164062 2.03585937 3.86859375 2 3 C-2.69241308 2.53075869 -6.63327614 2.16956919 -10.5 5.1875 C-12.9954447 7.99487529 -13.78931408 9.31299634 -14 13 C-14.33 13 -14.66 13 -15 13 C-15.34751969 10.08083462 -15.53280018 7.86804524 -13.95703125 5.30078125 C-9.70455773 0.15042476 -6.54676818 -0.69111756 0 0 Z " fill="#DEBD67" transform="translate(258,322)"/>
<path d="M0 0 C6.78125 1.75 6.78125 1.75 8.75 4 C10.22311947 7.53548673 11.32329493 11.10557912 12.3515625 14.79296875 C12.93359888 17.01465362 12.93359888 17.01465362 14 19 C14.06950541 20.54023996 14.08452357 22.08334988 14.0625 23.625 C14.05347656 24.44226563 14.04445312 25.25953125 14.03515625 26.1015625 C14.02355469 26.72804688 14.01195312 27.35453125 14 28 C13.67 28 13.34 28 13 28 C12.81824219 26.96939453 12.81824219 26.96939453 12.6328125 25.91796875 C12.46523437 25.01691406 12.29765625 24.11585938 12.125 23.1875 C11.96257812 22.29417969 11.80015625 21.40085937 11.6328125 20.48046875 C11.08811551 17.77272154 11.08811551 17.77272154 9 15 C9 14.01 9 13.02 9 12 C8.34 12 7.68 12 7 12 C6.67 11.01 6.34 10.02 6 9 C4.68 9 3.36 9 2 9 C2.11382653 10.95901454 2.24141125 12.9172338 2.375 14.875 C2.44460937 15.96554687 2.51421875 17.05609375 2.5859375 18.1796875 C2.73253491 21.13046474 2.73253491 21.13046474 5 23 C5.125 26.625 5.125 26.625 5 30 C1.28801301 27.3003731 0.72659644 23.28271848 0 19 C-0.21780094 15.65993884 -0.19180131 12.34520417 -0.125 9 C-0.11597656 8.12988281 -0.10695312 7.25976562 -0.09765625 6.36328125 C-0.07434619 4.2420658 -0.03848579 2.12099438 0 0 Z " fill="#EDB926" transform="translate(145,270)"/>
<path d="M0 0 C0.495 0.99 0.495 0.99 1 2 C-1.97 1.01 -4.94 0.02 -8 -1 C-8 -1.66 -8 -2.32 -8 -3 C-9.2684375 -3.185625 -9.2684375 -3.185625 -10.5625 -3.375 C-14.15236798 -4.02770327 -17.50824875 -4.95247463 -21 -6 C-21 -6.66 -21 -7.32 -21 -8 C-41.05673457 -8.38058982 -41.05673457 -8.38058982 -59.62109375 -2.3359375 C-62 -1 -62 -1 -64.3125 -1.3125 C-64.869375 -1.539375 -65.42625 -1.76625 -66 -2 C-44.0584225 -13.98869698 -21.380176 -12.4847743 0 0 Z " fill="#EACD66" transform="translate(239,225)"/>
<path d="M0 0 C2.16796875 1.59765625 2.16796875 1.59765625 4 4 C4.390625 7.234375 4.390625 7.234375 4.25 10.75 C4.21390625 11.92046875 4.1778125 13.0909375 4.140625 14.296875 C4.07101563 15.63492187 4.07101563 15.63492187 4 17 C3.01 17.33 2.02 17.66 1 18 C1 18.66 1 19.32 1 20 C-1 19 -1 19 -3 16 C-2.67 15.67 -2.34 15.34 -2 15 C-2.08963062 13.30858344 -2.24577676 11.62040398 -2.4375 9.9375 C-2.53933594 9.01839844 -2.64117187 8.09929687 -2.74609375 7.15234375 C-2.82988281 6.44207031 -2.91367188 5.73179687 -3 5 C-5.64 4.34 -8.28 3.68 -11 3 C-11 2.34 -11 1.68 -11 1 C-7.2552458 0.11888137 -3.84133662 -0.40865283 0 0 Z " fill="#161B2F" transform="translate(189,369)"/>
<path d="M0 0 C1.32 0.33 2.64 0.66 4 1 C3.67 1.66 3.34 2.32 3 3 C3.99 3 4.98 3 6 3 C6 8.94 6 14.88 6 21 C4.02 21 2.04 21 0 21 C0 14.07 0 7.14 0 0 Z " fill="#23253A" transform="translate(274,369)"/>
<path d="M0 0 C3.29061343 3.78420545 5.43264318 8.26385656 7 13 C6.75 15.6875 6.75 15.6875 6 18 C5.96227087 19.9996441 5.95350094 22.00054061 6 24 C6.66 24.33 7.32 24.66 8 25 C6.13671875 24.8125 6.13671875 24.8125 4 24 C2.76953125 21.75 2.76953125 21.75 1.8125 19 C0.8395483 15.7389803 0.8395483 15.7389803 -1 13 C-1.33 16.96 -1.66 20.92 -2 25 C-2.33 25 -2.66 25 -3 25 C-3.08710289 21.89601022 -3.14042309 18.79233452 -3.1875 15.6875 C-3.21263672 14.80642578 -3.23777344 13.92535156 -3.26367188 13.01757812 C-3.27333984 12.17001953 -3.28300781 11.32246094 -3.29296875 10.44921875 C-3.3086792 9.66893311 -3.32438965 8.88864746 -3.34057617 8.0847168 C-2.91456884 5.47706334 -1.87222679 4.7809137 0 3 C0 2.01 0 1.02 0 0 Z " fill="#444657" transform="translate(101,365)"/>
<path d="M0 0 C1.32 0.33 2.64 0.66 4 1 C4 5.29 4 9.58 4 14 C6.31 14.33 8.62 14.66 11 15 C11.33 16.32 11.66 17.64 12 19 C11.0925 19.144375 10.185 19.28875 9.25 19.4375 C6.78523044 19.86409473 4.41152893 20.35074221 2 21 C2.33 22.98 2.66 24.96 3 27 C2.01 27 1.02 27 0 27 C0 18.09 0 9.18 0 0 Z " fill="#03071D" transform="translate(232,370)"/>
<path d="M0 0 C0.66 0 1.32 0 2 0 C1.4548447 4.09344678 -0.70865377 6.26355069 -3.4375 9.25 C-4.24058594 10.14203125 -5.04367188 11.0340625 -5.87109375 11.953125 C-8 14 -8 14 -10 14 C-10 14.66 -10 15.32 -10 16 C-14.90293609 19.8428418 -22.67769869 25 -29 25 C-27.9024777 22.00675737 -27.32317108 21.15389099 -24.375 19.75 C-23.59125 19.5025 -22.8075 19.255 -22 19 C-22 18.67 -22 18.34 -22 18 C-20.35 18 -18.7 18 -17 18 C-17 17.34 -17 16.68 -17 16 C-16.34 16 -15.68 16 -15 16 C-15 15.01 -15 14.02 -15 13 C-13.68 13.33 -12.36 13.66 -11 14 C-11 12.68 -11 11.36 -11 10 C-10.0409375 9.566875 -10.0409375 9.566875 -9.0625 9.125 C-6.84793921 8.17176549 -6.84793921 8.17176549 -6 6 C-5.01 6 -4.02 6 -3 6 C-2.67 4.68 -2.34 3.36 -2 2 C-1.34 2 -0.68 2 0 2 C0 1.34 0 0.68 0 0 Z " fill="#DFB452" transform="translate(253,305)"/>
<path d="M0 0 C0.33 0 0.66 0 1 0 C1 3.3 1 6.6 1 10 C0.01 9.67 -0.98 9.34 -2 9 C-6.79608769 12.15492192 -6.79608769 12.15492192 -8.875 17.3125 C-8.91625 18.199375 -8.9575 19.08625 -9 20 C-9.66 20 -10.32 20 -11 20 C-11 26.27 -11 32.54 -11 39 C-11.33 39 -11.66 39 -12 39 C-12.495 21.675 -12.495 21.675 -13 4 C-12.34 4 -11.68 4 -11 4 C-10.67 6.64 -10.34 9.28 -10 12 C-9.67 10.68 -9.34 9.36 -9 8 C-8.38125 7.938125 -7.7625 7.87625 -7.125 7.8125 C-4.72238859 7.171081 -4.72238859 7.171081 -3.75 4.4375 C-3.37875 3.2309375 -3.37875 3.2309375 -3 2 C-2.01 2 -1.02 2 0 2 C0 1.34 0 0.68 0 0 Z " fill="#DEE4CC" transform="translate(264,238)"/>
<path d="M0 0 C10 0 10 0 14 1 C14.33 1.99 14.66 2.98 15 4 C14 5 14 5 11.93359375 5.09765625 C8.46679688 5.04882812 8.46679688 5.04882812 5 5 C5 8.3 5 11.6 5 15 C4.67 15 4.34 15 4 15 C4 10.71 4 6.42 4 2 C3.01 1.67 2.02 1.34 1 1 C1 9.91 1 18.82 1 28 C1.99 28 2.98 28 4 28 C3.34 25.69 2.68 23.38 2 21 C3.65 20.67 5.3 20.34 7 20 C6.34 20.33 5.68 20.66 5 21 C5 23.64 5 26.28 5 29 C3.35 29 1.7 29 0 29 C0 19.43 0 9.86 0 0 Z " fill="#292E42" transform="translate(231,369)"/>
<path d="M0 0 C0.33 0 0.66 0 1 0 C1 1.98 1 3.96 1 6 C1.66 6 2.32 6 3 6 C2.84402344 6.58007812 2.68804687 7.16015625 2.52734375 7.7578125 C1.36774068 12.41158375 0.4005937 16.31602442 2 21 C3.95163118 22.43637698 3.95163118 22.43637698 6 23 C3.69 23.33 1.38 23.66 -1 24 C-1 24.99 -1 25.98 -1 27 C-1.99 27 -2.98 27 -4 27 C-4.72843014 17.44947153 -2.5571371 9.09838514 0 0 Z " fill="#0E6FCD" transform="translate(157,308)"/>
<path d="M0 0 C0.66 0.33 1.32 0.66 2 1 C-0.17984193 4.26976289 -1.65670248 5.06842297 -5 7 C-6.9540116 8.41497391 -8.89066564 9.85412242 -10.8125 11.3125 C-11.85921875 12.10527344 -12.9059375 12.89804687 -13.984375 13.71484375 C-14.97953125 14.46894531 -15.9746875 15.22304688 -17 16 C-19.12436513 17.57297736 -21.24949952 19.1447932 -23.37890625 20.7109375 C-25.05119754 21.98910907 -25.05119754 21.98910907 -26.58984375 23.6015625 C-28.38616156 25.38295246 -29.4854725 25.97516759 -32.0234375 26.09765625 C-32.79945313 26.08605469 -33.57546875 26.07445312 -34.375 26.0625 C-35.14585937 26.05347656 -35.91671875 26.04445313 -36.7109375 26.03515625 C-37.46632812 26.02355469 -38.22171875 26.01195312 -39 26 C-40.32 26 -41.64 26 -43 26 C-43.99 26 -44.98 26 -46 26 C-46 25.34 -46 24.68 -46 24 C-44.68 24 -43.36 24 -42 24 C-42.66 22.35 -43.32 20.7 -44 19 C-42.7625 19.99 -42.7625 19.99 -41.5 21 C-38.54782302 22.88802016 -35.90992217 23.89696441 -32.31640625 23.69921875 C-27.38160187 22.2096235 -23.561673 18.57200765 -19.64257812 15.33935547 C-16.83693656 13.05164001 -13.94283394 10.87980226 -11.0625 8.6875 C-7.34536494 5.82710239 -3.65398328 2.94068268 0 0 Z " fill="#35ABDB" transform="translate(238,252)"/>
<path d="M0 0 C1.65 1.32 3.3 2.64 5 4 C6.32 3.34 7.64 2.68 9 2 C9.33745354 4.39531756 9.6700829 6.79114268 10 9.1875 C10.14308594 10.19780273 10.14308594 10.19780273 10.2890625 11.22851562 C10.78324613 14.84664577 11.11346131 18.34796401 11 22 C9 19 9 19 8 16 C7.01 15.67 6.02 15.34 5 15 C4.3125 12.9375 4.3125 12.9375 4 11 C3.34 11 2.68 11 2 11 C-0.32590854 7.36576791 -0.16265833 4.22911669 0 0 Z " fill="#F4E0B4" transform="translate(144,245)"/>
<path d="M0 0 C0.66 0.33 1.32 0.66 2 1 C1.01 2.485 1.01 2.485 0 4 C0.77085937 4.13277344 1.54171875 4.26554687 2.3359375 4.40234375 C3.33882812 4.57894531 4.34171875 4.75554687 5.375 4.9375 C6.87160156 5.19853516 6.87160156 5.19853516 8.3984375 5.46484375 C11 6 11 6 13 7 C15.48099734 7.08649451 17.93344928 7.11565054 20.4140625 7.09765625 C21.50852188 7.09553383 21.50852188 7.09553383 22.62509155 7.09336853 C24.95843585 7.08776531 27.29168464 7.07521235 29.625 7.0625 C31.20572778 7.05748541 32.78645707 7.05292243 34.3671875 7.04882812 C38.24482854 7.03779484 42.12239807 7.02052811 46 7 C36.44839224 13.3677385 22.46433221 11.0256621 11.75 9.1875 C6.11944127 7.96386551 0.13735976 6.13735976 -4 2 C-2.125 0.9375 -2.125 0.9375 0 0 Z " fill="#D4A44B" transform="translate(178,323)"/>
<path d="M0 0 C2.93678327 4.40517491 4.24985563 6.38113569 4.125 11.6875 C4.10695313 12.68136719 4.08890625 13.67523438 4.0703125 14.69921875 C4.03550781 15.83810547 4.03550781 15.83810547 4 17 C1.36 16.34 -1.28 15.68 -4 15 C-3.67 13.68 -3.34 12.36 -3 11 C-2.34 11 -1.68 11 -1 11 C-1.33 10.34 -1.66 9.68 -2 9 C-4.52733235 8.34444881 -4.52733235 8.34444881 -7 8 C-6.67 6.68 -6.34 5.36 -6 4 C-4.02 4 -2.04 4 0 4 C0 2.68 0 1.36 0 0 Z " fill="#171A2F" transform="translate(266,373)"/>
<path d="M0 0 C0.78375 0.04125 1.5675 0.0825 2.375 0.125 C2.189375 0.74375 2.00375 1.3625 1.8125 2 C1.13813824 4.16660178 1.13813824 4.16660178 2.375 6.125 C4.39169827 7.25850534 4.39169827 7.25850534 6.375 8.125 C6.045 8.785 5.715 9.445 5.375 10.125 C7.025 10.125 8.675 10.125 10.375 10.125 C10.705 10.785 11.035 11.445 11.375 12.125 C9.27195523 12.2330023 7.16733091 12.31058987 5.0625 12.375 C3.30486328 12.44460938 3.30486328 12.44460938 1.51171875 12.515625 C-1.625 12.125 -1.625 12.125 -3.5234375 10.3046875 C-4.98593653 7.41080644 -4.97264551 5.32333868 -4.625 2.125 C-2.625 0.125 -2.625 0.125 0 0 Z " fill="#292D41" transform="translate(256.625,377.875)"/>
<path d="M0 0 C0.99 0.33 1.98 0.66 3 1 C2.34 1 1.68 1 1 1 C0.67 1.99 0.34 2.98 0 4 C-2.44140625 5.4296875 -2.44140625 5.4296875 -5.5625 6.875 C-10.07265942 9.02269496 -14.25790462 11.29895413 -18.37890625 14.1171875 C-20 15 -20 15 -23 15 C-22.25 7.375 -22.25 7.375 -20 4 C-20 6.31 -20 8.62 -20 11 C-19.01 11 -18.02 11 -17 11 C-17 10.01 -17 9.02 -17 8 C-16.2575 7.731875 -15.515 7.46375 -14.75 7.1875 C-12.01197176 6.16786003 -12.01197176 6.16786003 -10.1875 4.4375 C-6.91443453 2.28662841 -3.8795332 2.32329443 0 2 C0 1.34 0 0.68 0 0 Z " fill="#2D7DC2" transform="translate(173,324)"/>
<path d="M0 0 C0.94166016 0.00128906 1.88332031 0.00257813 2.85351562 0.00390625 C8.53027462 0.07501388 13.49186497 0.77145612 18.9375 2.375 C18.9375 3.035 18.9375 3.695 18.9375 4.375 C20.3915625 4.808125 20.3915625 4.808125 21.875 5.25 C24.9375 6.375 24.9375 6.375 25.9375 8.375 C18.3125 6.75 18.3125 6.75 14.9375 3.375 C5.9570275 1.17977339 -3.89317396 1.02914084 -12.0625 5.375 C-14.6171875 5.88671875 -14.6171875 5.88671875 -16.9375 6.0625 C-18.10925781 6.16111328 -18.10925781 6.16111328 -19.3046875 6.26171875 C-19.88476562 6.29910156 -20.46484375 6.33648437 -21.0625 6.375 C-19.49571937 3.24143874 -16.86066108 2.55861552 -13.72314453 1.22167969 C-9.1617953 -0.22984895 -4.74590954 -0.12394815 0 0 Z " fill="#5FBD99" transform="translate(203.0625,227.625)"/>
<path d="M0 0 C2.31 0 4.62 0 7 0 C4.69 5.94 2.38 11.88 0 18 C-0.66 16.68 -1.32 15.36 -2 14 C-2.99 13.34 -3.98 12.68 -5 12 C-3.35 8.04 -1.7 4.08 0 0 Z " fill="#424655" transform="translate(140,369)"/>
<path d="M0 0 C1.32 0 2.64 0 4 0 C4.375 2.0625 4.375 2.0625 4 5 C2.58998414 6.89695827 1.06123961 8.56379019 -0.58984375 10.25390625 C-2.1395359 12.17277714 -2.58393514 13.5931438 -3 16 C-5.4375 15.25 -5.4375 15.25 -8 14 C-8.9375 12.0625 -8.9375 12.0625 -9 10 C-8.34 9.01 -7.68 8.02 -7 7 C-6.360625 6.896875 -5.72125 6.79375 -5.0625 6.6875 C-2.62206786 6.12870121 -2.62206786 6.12870121 -1.25 2.9375 C-0.8375 1.968125 -0.425 0.99875 0 0 Z " fill="#F6AF04" transform="translate(255,290)"/>
<path d="M0 0 C-0.33 1.98 -0.66 3.96 -1 6 C-1.99 6.33 -2.98 6.66 -4 7 C-5.21869929 9.50447516 -5.21869929 9.50447516 -6 12 C-7.32 12 -8.64 12 -10 12 C-10.33 14.64 -10.66 17.28 -11 20 C-11.33 20 -11.66 20 -12 20 C-12.08107583 18.06318839 -12.13922475 16.1254066 -12.1875 14.1875 C-12.22230469 13.10855469 -12.25710937 12.02960938 -12.29296875 10.91796875 C-12 8 -12 8 -10.61328125 6.11328125 C-9 5 -9 5 -7 5 C-7 4.34 -7 3.68 -7 3 C-6.34 3 -5.68 3 -5 3 C-5 2.34 -5 1.68 -5 1 C-3 0 -3 0 0 0 Z " fill="#F1EDE4" transform="translate(265,234)"/>
<path d="M0 0 C1.32 0 2.64 0 4 0 C4 5.61 4 11.22 4 17 C2.35 17 0.7 17 -1 17 C-1.02684679 14.35409986 -1.04676357 11.70846904 -1.0625 9.0625 C-1.07087891 8.30775391 -1.07925781 7.55300781 -1.08789062 6.77539062 C-1.09652441 4.85005687 -1.05224333 2.92464419 -1 1 C-0.67 0.67 -0.34 0.34 0 0 Z " fill="#0E1227" transform="translate(289,373)"/>
<path d="M0 0 C0.33 0 0.66 0 1 0 C1.38614349 6.8218683 0.00865708 12.49577707 -2 19 C-2.99 19 -3.98 19 -5 19 C-5.33 21.64 -5.66 24.28 -6 27 C-6.99 27.33 -7.98 27.66 -9 28 C-9.33 28.66 -9.66 29.32 -10 30 C-11.66279327 31.0064275 -13.32983484 32.00585407 -15 33 C-16.75149165 34.58245275 -16.75149165 34.58245275 -18 36 C-18.66 35.67 -19.32 35.34 -20 35 C-19.36191406 34.37351562 -18.72382813 33.74703125 -18.06640625 33.1015625 C-17.24011719 32.28429687 -16.41382813 31.46703125 -15.5625 30.625 C-14.32693359 29.40683594 -14.32693359 29.40683594 -13.06640625 28.1640625 C-10.96565328 26.17651485 -10.96565328 26.17651485 -10 24 C-9.34 24 -8.68 24 -8 24 C-7.01 20.535 -7.01 20.535 -6 17 C-5.34 17 -4.68 17 -4 17 C-4 16.34 -4 15.68 -4 15 C-3.34 15 -2.68 15 -2 15 C-2.04125 13.824375 -2.0825 12.64875 -2.125 11.4375 C-2.13983635 7.27590326 -1.31170778 3.93512333 0 0 Z " fill="#C5B845" transform="translate(252,277)"/>
<path d="M0 0 C0.99 0 1.98 0 3 0 C4.11165232 4.4378561 4.11527763 8.76956386 4.0625 13.3125 C4.05798828 14.05306641 4.05347656 14.79363281 4.04882812 15.55664062 C4.03712175 17.37112899 4.01918898 19.18557534 4 21 C2.68 21 1.36 21 0 21 C0 14.07 0 7.14 0 0 Z " fill="#03051A" transform="translate(197,369)"/>
<path d="M0 0 C0.66 0 1.32 0 2 0 C2.04990393 5.21035408 2.08595515 10.42056518 2.10986328 15.63110352 C2.11984339 17.39903186 2.13343228 19.16694403 2.15087891 20.93481445 C2.3319431 39.77081595 2.3319431 39.77081595 0 49 C-0.66 49 -1.32 49 -2 49 C-2 49.66 -2 50.32 -2 51 C-2.66 51 -3.32 51 -4 51 C-4.495 53.475 -4.495 53.475 -5 56 C-6.09658936 52.71023192 -5.79953138 51.28696233 -5 48 C-4.34 48 -3.68 48 -3 48 C0.48347986 38.4318849 0.35426651 29.32793031 0.1875 19.3125 C0.17241751 17.72462215 0.15873545 16.13673035 0.14648438 14.54882812 C0.11377999 10.69886779 0.06219823 6.84959216 0 3 C-0.66 2.67 -1.32 2.34 -2 2 C-1.34 1.34 -0.68 0.68 0 0 Z " fill="#55B2B4" transform="translate(250,243)"/>
<path d="M0 0 C0.99 0.33 1.98 0.66 3 1 C2.22095672 11.55808656 2.22095672 11.55808656 0 16 C-1.32 15.67 -2.64 15.34 -4 15 C-4.33 11.7 -4.66 8.4 -5 5 C-4.01 5.33 -3.02 5.66 -2 6 C-1.34 4.02 -0.68 2.04 0 0 Z " fill="#1D2033" transform="translate(111,374)"/>
<path d="M0 0 C2.5 1.375 2.5 1.375 5 3 C5 3.66 5 4.32 5 5 C4.34 5 3.68 5 3 5 C2.773125 5.61875 2.54625 6.2375 2.3125 6.875 C0.60126315 9.64557394 -0.97107345 9.9657324 -4 11 C-4.99 11.66 -5.98 12.32 -7 13 C-8.051875 11.8553125 -8.051875 11.8553125 -9.125 10.6875 C-11.96352604 8.03409522 -14.46949051 6.55999257 -18 5 C-14.19010598 3.53465615 -11.6758821 4.44796089 -8 6 C-7.67 6.66 -7.34 7.32 -7 8 C-6.01 8.33 -5.02 8.66 -4 9 C-3.67 7.68 -3.34 6.36 -3 5 C-2.34 5.33 -1.68 5.66 -1 6 C-0.67 4.02 -0.34 2.04 0 0 Z " fill="#EEC026" transform="translate(240,227)"/>
<path d="M0 0 C2 1.125 2 1.125 4 3 C4.25 6.1875 4.25 6.1875 4 9 C5.98 8.67 7.96 8.34 10 8 C10 11.63 10 15.26 10 19 C8.68 18.67 7.36 18.34 6 18 C5.67 16.68 5.34 15.36 5 14 C4.34 14 3.68 14 3 14 C2.87625 12.88625 2.7525 11.7725 2.625 10.625 C2.3534187 6.96896323 2.3534187 6.96896323 0 5 C-0.125 2.375 -0.125 2.375 0 0 Z " fill="#F3AD04" transform="translate(147,286)"/>
<path d="M0 0 C1.32 0.66 2.64 1.32 4 2 C4 6.29 4 10.58 4 15 C2.68 15.33 1.36 15.66 0 16 C-1 15 -1 15 -1.1328125 11.875 C-1.13023437 10.59625 -1.12765625 9.3175 -1.125 8 C-1.12757813 6.72125 -1.13015625 5.4425 -1.1328125 4.125 C-1 1 -1 1 0 0 Z " fill="#030820" transform="translate(222,371)"/>
<path d="M0 0 C2.0625 0.4375 2.0625 0.4375 4 1 C3.34 1 2.68 1 2 1 C2.33 1.99 2.66 2.98 3 4 C3.07029121 6.57265818 3.09370832 9.11641431 3.0625 11.6875 C3.05798828 12.38939453 3.05347656 13.09128906 3.04882812 13.81445312 C3.03706927 15.54300538 3.01913454 17.27151365 3 19 C1.68 19 0.36 19 -1 19 C-1.02683987 16.02077407 -1.04676037 13.04178705 -1.0625 10.0625 C-1.07087891 9.21236328 -1.07925781 8.36222656 -1.08789062 7.48632812 C-1.09111328 6.67744141 -1.09433594 5.86855469 -1.09765625 5.03515625 C-1.10289307 4.2862915 -1.10812988 3.53742676 -1.11352539 2.76586914 C-1 1 -1 1 0 0 Z " fill="#02081C" transform="translate(210,371)"/>
<path d="M0 0 C0 5.94 0 11.88 0 18 C-1.32 18 -2.64 18 -4 18 C-4 12.39 -4 6.78 -4 1 C-2 0 -2 0 0 0 Z " fill="#020619" transform="translate(123,372)"/>
<path d="M0 0 C1.65 0.33 3.3 0.66 5 1 C5.99 4.3 6.98 7.6 8 11 C7.01 11.33 6.02 11.66 5 12 C4.34 12.66 3.68 13.32 3 14 C2.29866401 12.42274653 1.614417 10.83788667 0.9375 9.25 C0.55464844 8.36828125 0.17179687 7.4865625 -0.22265625 6.578125 C-1.04600008 3.84743691 -0.9773992 2.63098653 0 0 Z " fill="#343646" transform="translate(127,368)"/>
<path d="M0 0 C0.66 0.33 1.32 0.66 2 1 C-0.45111117 3.96713457 -2.23934454 4.46016816 -6 5 C-8.36366135 5.06923437 -10.72917826 5.08461028 -13.09375 5.0625 C-13.76289429 5.05871338 -14.43203857 5.05492676 -15.12145996 5.05102539 C-17.96532851 5.03477377 -20.80904945 5.00658197 -23.65283203 4.97949219 C-25.73729786 4.96135395 -27.82174016 4.94929603 -29.90625 4.9375 C-31.14697266 4.92589844 -32.38769531 4.91429687 -33.66601562 4.90234375 C-36.59085639 4.98801571 -39.16414523 5.31594766 -42 6 C-40.06745228 3.9754262 -38.36841312 2.57894208 -36 1 C-33.33771268 1.28322205 -30.87603689 1.72496516 -28.3203125 2.52734375 C-24.83521081 3.23727187 -21.35513793 3.23421387 -17.8125 3.25 C-17.05380615 3.25394775 -16.2951123 3.25789551 -15.51342773 3.26196289 C-9.79014219 3.20249222 -5.33010403 2.15074373 0 0 Z " fill="#B5A952" transform="translate(222,317)"/>
<path d="M0 0 C0.33 0 0.66 0 1 0 C1.04898438 0.75925781 1.09796875 1.51851563 1.1484375 2.30078125 C1.22320312 3.29464844 1.29796875 4.28851563 1.375 5.3125 C1.44460937 6.29863281 1.51421875 7.28476562 1.5859375 8.30078125 C1.83865472 11.21528433 1.83865472 11.21528433 4 14 C2.68 15.32 1.36 16.64 0 18 C-5.95074431 12.20183888 -5.95074431 12.20183888 -6.09765625 8.6171875 C-6.08605469 7.71226562 -6.07445312 6.80734375 -6.0625 5.875 C-6.05347656 4.96492188 -6.04445312 4.05484375 -6.03515625 3.1171875 C-6.02355469 2.41851562 -6.01195312 1.71984375 -6 1 C-5.67 1 -5.34 1 -5 1 C-5 3.97 -5 6.94 -5 10 C-3.35 9.67 -1.7 9.34 0 9 C0 6.03 0 3.06 0 0 Z " fill="#4D5064" transform="translate(153,370)"/>
<path d="M0 0 C-6.61587276 3.53872264 -11.9962977 4.18103501 -19.4375 4.1875 C-20.17548828 4.19974609 -20.91347656 4.21199219 -21.67382812 4.22460938 C-26.17826622 4.23662121 -29.75624263 3.70153822 -34 2 C-31.1518876 1.18407382 -28.66533016 0.8902774 -25.70703125 0.9375 C-24.91232422 0.94523437 -24.11761719 0.95296875 -23.29882812 0.9609375 C-22.47833984 0.97382813 -21.65785156 0.98671875 -20.8125 1 C-17.86939735 1.04559415 -14.9443094 1.0472507 -12 1 C-11.67 0.67 -11.34 0.34 -11 0 C-3.58695652 -1.19565217 -3.58695652 -1.19565217 0 0 Z " fill="#3F8595" transform="translate(224,317)"/>
<path d="M0 0 C1 2 1 2 0.14453125 4.64453125 C-0.29503906 5.68996094 -0.73460937 6.73539062 -1.1875 7.8125 C-1.61417969 8.85019531 -2.04085938 9.88789063 -2.48046875 10.95703125 C-4.01062444 14.0212762 -5.76800564 16.41432773 -8 19 C-9.65 18.67 -11.3 18.34 -13 18 C-13 16.68 -13 15.36 -13 14 C-12.34 14 -11.68 14 -11 14 C-10.67 13.01 -10.34 12.02 -10 11 C-9.67 12.32 -9.34 13.64 -9 15 C-7.68 14.34 -6.36 13.68 -5 13 C-5 11.02 -5 9.04 -5 7 C-4.34 7 -3.68 7 -3 7 C-2.87625 6.030625 -2.7525 5.06125 -2.625 4.0625 C-2.41875 3.051875 -2.2125 2.04125 -2 1 C-1.34 0.67 -0.68 0.34 0 0 Z " fill="#4D5363" transform="translate(312,379)"/>
<path d="M0 0 C1.65 0 3.3 0 5 0 C5 0.66 5 1.32 5 2 C7.28453433 3.14226716 9.62508799 4.06253473 12 5 C8.25 7 8.25 7 6 7 C6 11.95 6 16.9 6 22 C5.67 22 5.34 22 5 22 C4.93941406 20.87980469 4.87882813 19.75960938 4.81640625 18.60546875 C4.73198576 17.13280016 4.64733851 15.66014456 4.5625 14.1875 C4.52318359 13.44951172 4.48386719 12.71152344 4.44335938 11.95117188 C4.25618965 8.76928658 4.01279207 6.03837622 3 3 C3.33 2.34 3.66 1.68 4 1 C3.01 1 2.02 1 1 1 C1 7.93 1 14.86 1 22 C0.67 22 0.34 22 0 22 C0 14.74 0 7.48 0 0 Z " fill="#434659" transform="translate(196,368)"/>
<path d="M0 0 C0.33 0 0.66 0 1 0 C0.96923271 9.53786073 -0.75589402 16.93214465 -6 25 C-6.66 25.33 -7.32 25.66 -8 26 C-8.3669579 19.51707705 -8.3669579 19.51707705 -6.625 17.0625 C-5 16 -5 16 -3 16 C-2.67 12.04 -2.34 8.08 -2 4 C-1.34 4 -0.68 4 0 4 C0 2.68 0 1.36 0 0 Z " fill="#DFBE5A" transform="translate(263,279)"/>
<path d="M0 0 C2.31 0 4.62 0 7 0 C5.85569823 3.87302138 4.76679902 7.00263439 2 10 C1.34 10 0.68 10 0 10 C-0.99 10.495 -0.99 10.495 -2 11 C-1.85892253 9.54119891 -1.71197585 8.08296449 -1.5625 6.625 C-1.48128906 5.81289063 -1.40007812 5.00078125 -1.31640625 4.1640625 C-1 2 -1 2 0 0 Z " fill="#323548" transform="translate(310,369)"/>
<path d="M0 0 C2.375 1.875 2.375 1.875 4 4 C4 4.66 4 5.32 4 6 C3.01 6.33 2.02 6.66 1 7 C0.34 6.67 -0.32 6.34 -1 6 C-1.33 6.99 -1.66 7.98 -2 9 C-2.33 7.68 -2.66 6.36 -3 5 C-5.64 4.34 -8.28 3.68 -11 3 C-11 2.34 -11 1.68 -11 1 C-7.2552458 0.11888137 -3.84133662 -0.40865283 0 0 Z " fill="#404357" transform="translate(189,369)"/>
<path d="M0 0 C0.66 0.66 1.32 1.32 2 2 C1.85438315 6.22288878 -1.10555276 8.24338358 -4 11 C-6.88587359 14.19507433 -7.51544355 16.73590323 -8 21 C-8.33 21 -8.66 21 -9 21 C-9.57827567 13.71372655 -8.48701787 8.880355 -4 3 C-1.828125 1.2421875 -1.828125 1.2421875 0 0 Z " fill="#F1D176" transform="translate(262,254)"/>
<path d="M0 0 C0.66 0.33 1.32 0.66 2 1 C-0.98912674 3.34752126 -3.99150315 5.67735628 -7 8 C-7.51868652 8.40089844 -8.03737305 8.80179688 -8.57177734 9.21484375 C-10.18951983 10.4612772 -11.81275129 11.70021789 -13.4375 12.9375 C-14.44683594 13.70964844 -15.45617187 14.48179687 -16.49609375 15.27734375 C-19 17 -19 17 -21 17 C-21 16.34 -21 15.68 -21 15 C-18.50172953 13.15916913 -15.90025794 11.5214024 -13.28515625 9.8515625 C-10.86165102 8.21139718 -10.86165102 8.21139718 -10.18359375 5.7734375 C-10.12300781 5.18820313 -10.06242188 4.60296875 -10 4 C-8.35 4 -6.7 4 -5 4 C-5 3.34 -5 2.68 -5 2 C-2.625 0.9375 -2.625 0.9375 0 0 Z " fill="#24BEE6" transform="translate(229,241)"/>
<path d="M0 0 C3 1.3125 3 1.3125 5 3 C5 3.99 5 4.98 5 6 C4.01 5.67 3.02 5.34 2 5 C2 4.34 2 3.68 2 3 C-2.69241308 2.53075869 -6.63327614 2.16956919 -10.5 5.1875 C-12.9954447 7.99487529 -13.78931408 9.31299634 -14 13 C-14.33 13 -14.66 13 -15 13 C-15.34751969 10.08083462 -15.53280018 7.86804524 -13.95703125 5.30078125 C-9.71427677 0.16219591 -6.53865391 -0.71262576 0 0 Z " fill="#E1BF6A" transform="translate(258,322)"/>
<path d="M0 0 C0.5625 1.9375 0.5625 1.9375 1 4 C-0.86127406 5.86127406 -3.49929136 5.46118139 -5.9921875 5.71875 C-8.20138785 5.9662595 -8.20138785 5.9662595 -11 7 C-11 5.02 -11 3.04 -11 1 C-7.26562152 0.12132271 -3.83225427 -0.08912219 0 0 Z " fill="#272B3C" transform="translate(265,368)"/>
<path d="M0 0 C0.53625 0.2475 1.0725 0.495 1.625 0.75 C0.305 3.06 -1.015 5.37 -2.375 7.75 C-3.035 7.75 -3.695 7.75 -4.375 7.75 C-4.045 9.07 -3.715 10.39 -3.375 11.75 C-5.355 10.76 -7.335 9.77 -9.375 8.75 C-9.25 6.5 -9.25 6.5 -8.375 3.75 C-3.49815271 -0.3682266 -3.49815271 -0.3682266 0 0 Z " fill="#EDC747" transform="translate(173.375,224.25)"/>
<path d="M0 0 C3.34427518 5.38281743 2.4680755 11.90823484 2 18 C1.26360343 20.93707304 0.31653783 23.25721285 -1 26 C-3.33333333 23.66666667 -5.66666667 21.33333333 -8 19 C-8 18.01 -8 17.02 -8 16 C-7.34 16 -6.68 16 -6 16 C-5.731875 16.639375 -5.46375 17.27875 -5.1875 17.9375 C-4.11332248 20.33131686 -4.11332248 20.33131686 -1 21 C0.32719886 14.03220597 0.08825381 7.07011089 0 0 Z " fill="#B3B16B" transform="translate(158,284)"/>
<path d="M0 0 C1.32 0 2.64 0 4 0 C3.67 3.63 3.34 7.26 3 11 C1.35 11.33 -0.3 11.66 -2 12 C-2.05422947 10.5629191 -2.09289723 9.12524538 -2.125 7.6875 C-2.14820313 6.88699219 -2.17140625 6.08648437 -2.1953125 5.26171875 C-2 3 -2 3 0 0 Z " fill="#02061D" transform="translate(150,368)"/>
<path d="M0 0 C5.4868068 0.6096452 5.4868068 0.6096452 7.6809082 2.27856445 C9.33031047 4.43106036 9.35013306 5.54374606 9.29296875 8.23046875 C9.28330078 9.03291016 9.27363281 9.83535156 9.26367188 10.66210938 C9.23853516 11.49548828 9.21339844 12.32886719 9.1875 13.1875 C9.17396484 14.03248047 9.16042969 14.87746094 9.14648438 15.74804688 C9.11115799 17.83230384 9.05735139 19.91623277 9 22 C8.67 22 8.34 22 8 22 C8 16.39 8 10.78 8 5 C6.35 5.33 4.7 5.66 3 6 C0.6875 5.0625 0.6875 5.0625 -1 4 C-0.67 2.68 -0.34 1.36 0 0 Z " fill="#606377" transform="translate(285,368)"/>
<path d="M0 0 C0.99 0.33 1.98 0.66 3 1 C3 1.99 3 2.98 3 4 C3.99 3.67 4.98 3.34 6 3 C6.66 3.33 7.32 3.66 8 4 C7.67 5.98 7.34 7.96 7 10 C6.195625 10.12375 5.39125 10.2475 4.5625 10.375 C3.716875 10.58125 2.87125 10.7875 2 11 C1.67 11.66 1.34 12.32 1 13 C1.2475 11.9275 1.495 10.855 1.75 9.75 C2.42428622 5.97254504 2.42428622 5.97254504 0.0625 3.5625 C-0.618125 3.046875 -1.29875 2.53125 -2 2 C-1.34 1.34 -0.68 0.68 0 0 Z " fill="#03041B" transform="translate(132,378)"/>
<path d="M0 0 C0.99 0.33 1.98 0.66 3 1 C-8.46025653 10.62661549 -8.46025653 10.62661549 -13.4375 10.875 C-17.65259651 9.83971314 -19.3170156 8.3537305 -22 5 C-21.13375 5.33 -20.2675 5.66 -19.375 6 C-16.0023474 6.99930447 -13.49068293 7.31733481 -10 7 C-9.34 6.34 -8.68 5.68 -8 5 C-7.01 5 -6.02 5 -5 5 C-5 4.34 -5 3.68 -5 3 C-4.01 3 -3.02 3 -2 3 C-2 2.34 -2 1.68 -2 1 C-1.34 0.67 -0.68 0.34 0 0 Z " fill="#C1F3FC" transform="translate(217,266)"/>
<path d="M0 0 C3.68285005 2.45523336 3.94619813 3.7847925 5 8 C5.63307768 13.57108361 4.02384396 18.83826953 2 24 C1.34 24.66 0.68 25.32 0 26 C0.16242188 25.154375 0.32484375 24.30875 0.4921875 23.4375 C1.01398058 19.90536223 1.13282599 16.56865371 1.125 13 C1.12757813 11.824375 1.13015625 10.64875 1.1328125 9.4375 C1.00783333 6.20274496 0.6098924 3.17531283 0 0 Z " fill="#258CB6" transform="translate(158,282)"/>
<path d="M0 0 C0.33 0.99 0.66 1.98 1 3 C0.34 3 -0.32 3 -1 3 C-1.33 4.98 -1.66 6.96 -2 9 C-2.66 9 -3.32 9 -4 9 C-3.896875 9.928125 -3.79375 10.85625 -3.6875 11.8125 C-3.8421875 13.3903125 -3.8421875 13.3903125 -4 15 C-6.5 16.875 -6.5 16.875 -9 18 C-8.80664062 17.443125 -8.61328125 16.88625 -8.4140625 16.3125 C-6.68625575 11.24882873 -5.2306933 6.20677935 -4 1 C-3.01 1 -2.02 1 -1 1 C-0.67 0.67 -0.34 0.34 0 0 Z " fill="#0B0E26" transform="translate(311,377)"/>
<path d="M0 0 C3.3125 0.125 3.3125 0.125 7 1 C9.86298537 4.97123777 10.34454953 8.17630663 10 13 C9.67 13 9.34 13 9 13 C9 11.35 9 9.7 9 8 C5.9254644 8.7763932 5.9254644 8.7763932 4 11 C3.34 9.02 2.68 7.04 2 5 C2.66 4.34 3.32 3.68 4 3 C4 2.34 4 1.68 4 1 C2.68 0.67 1.36 0.34 0 0 Z " fill="#4A4D62" transform="translate(241,369)"/>
<path d="M0 0 C3.70500184 1.48200074 6.67262 2.908504 10 5 C7.42786866 6.61949011 6.32330841 7.04408751 3.25 6.625 C2.5075 6.41875 1.765 6.2125 1 6 C1 9.3 1 12.6 1 16 C0.67 16 0.34 16 0 16 C0 10.72 0 5.44 0 0 Z " fill="#05A8EE" transform="translate(158,248)"/>
<path d="M0 0 C0 1.98 0 3.96 0 6 C-0.763125 6.28875 -1.52625 6.5775 -2.3125 6.875 C-5.99035903 8.41456889 -7.7691567 9.65373505 -10 13 C-9.43289338 9.03025365 -8.38663899 6.23901005 -6 3 C-1.65517241 0 -1.65517241 0 0 0 Z " fill="#F4BF30" transform="translate(263,266)"/>
<path d="M0 0 C0.66 0 1.32 0 2 0 C2 3.63 2 7.26 2 11 C-0.64 10.34 -3.28 9.68 -6 9 C-5.67 8.01 -5.34 7.02 -5 6 C-4.01 6 -3.02 6 -2 6 C-2 5.01 -2 4.02 -2 3 C-1.34 2.67 -0.68 2.34 0 2 C0 1.34 0 0.68 0 0 Z " fill="#020618" transform="translate(268,379)"/>
<path d="M0 0 C-0.33 0.66 -0.66 1.32 -1 2 C-6.82407765 3.57407504 -13.01639051 3.08713994 -19 3 C-17.06739148 0.3471204 -16.02412349 0.0040158 -12.71484375 -0.546875 C-10.84505859 -0.64742188 -10.84505859 -0.64742188 -8.9375 -0.75 C-7.06384766 -0.86601562 -7.06384766 -0.86601562 -5.15234375 -0.984375 C-2 -1 -2 -1 0 0 Z " fill="#DF9E11" transform="translate(225,328)"/>
<path d="M0 0 C5.75 1.875 5.75 1.875 8 3 C8 3.66 8 4.32 8 5 C8.556875 5.2475 9.11375 5.495 9.6875 5.75 C12 7 12 7 14.4375 9.0625 C17.08871521 11.06707735 18.74294429 11.62776506 22 12 C20.02 12.99 20.02 12.99 18 14 C15.18257063 12.04868413 12.37194335 10.08779256 9.5625 8.125 C8.76005859 7.56941406 7.95761719 7.01382813 7.13085938 6.44140625 C6.36708984 5.90644531 5.60332031 5.37148437 4.81640625 4.8203125 C4.10943604 4.32805176 3.40246582 3.83579102 2.67407227 3.32861328 C1 2 1 2 0 0 Z " fill="#35B6D9" transform="translate(185,247)"/>
<path d="M0 0 C-0.66 0 -1.32 0 -2 0 C-2.33 0.99 -2.66 1.98 -3 3 C-3 2.34 -3 1.68 -3 1 C-4.32 1 -5.64 1 -7 1 C-7 1.66 -7 2.32 -7 3 C-5.700625 3.12375 -4.40125 3.2475 -3.0625 3.375 C-0.84765625 3.5859375 -0.84765625 3.5859375 1 4 C1.33 4.66 1.66 5.32 2 6 C-0.64 6 -3.28 6 -6 6 C-6.33 6.99 -6.66 7.98 -7 9 C-9 5.125 -9 5.125 -9 4 C-9.66 3.67 -10.32 3.34 -11 3 C-7.6562111 -0.84535724 -4.83651161 -1.55459302 0 0 Z " fill="#616377" transform="translate(185,369)"/>
<path d="M0 0 C0.33 0.66 0.66 1.32 1 2 C0.34 2 -0.32 2 -1 2 C-1.25265625 2.57621094 -1.5053125 3.15242188 -1.765625 3.74609375 C-5.01690683 9.68276975 -10.70743522 14.60283246 -17 17 C-17.66 17 -18.32 17 -19 17 C-19 16.34 -19 15.68 -19 15 C-18.22076172 14.67128906 -18.22076172 14.67128906 -17.42578125 14.3359375 C-12.19673886 11.95822137 -9.49225062 9.51938315 -6 5 C-5.34 5 -4.68 5 -4 5 C-4 4.01 -4 3.02 -4 2 C-2.68 1.34 -1.36 0.68 0 0 Z " fill="#3F8D9A" transform="translate(243,299)"/>
<path d="M0 0 C0.14285714 7.42857143 0.14285714 7.42857143 -1 11 C-1.66 11 -2.32 11 -3 11 C-2.41070989 7.96936513 -1.74955438 4.9982175 -1 2 C-3.97 3.65 -6.94 5.3 -10 7 C-9 3 -9 3 -7.25 1.25 C-4.62056017 -0.21079991 -2.9625559 -0.24687966 0 0 Z " fill="#F0B71B" transform="translate(264,272)"/>
<path d="M0 0 C0.66 0.33 1.32 0.66 2 1 C1.07347299 2.17539996 0.13336613 3.34010577 -0.8125 4.5 C-1.59560547 5.47453125 -1.59560547 5.47453125 -2.39453125 6.46875 C-4 8 -4 8 -7 8 C-7 8.99 -7 9.98 -7 11 C-8.98 11 -10.96 11 -13 11 C-10.24881027 8.14784917 -7.39684775 5.65641299 -4.25 3.25 C-3.45078125 2.63640625 -2.6515625 2.0228125 -1.828125 1.390625 C-1.22484375 0.93171875 -0.6215625 0.4728125 0 0 Z " fill="#D0F8FC" transform="translate(220,249)"/>
<path d="M0 0 C3 1 3 1 4 3 C5.64363134 3.72159424 7.31050386 4.39351421 9 5 C8.67 6.32 8.34 7.64 8 9 C1.125 6.125 1.125 6.125 0 5 C-0.04063832 3.33382885 -0.042721 1.66611905 0 0 Z " fill="#F7CC65" transform="translate(145,263)"/>
<path d="M0 0 C0.99 1.485 0.99 1.485 2 3 C3.32 2.34 4.64 1.68 6 1 C6 3.97 6 6.94 6 10 C5.01 10 4.02 10 3 10 C2.67 9.01 2.34 8.02 2 7 C1.34 7.66 0.68 8.32 0 9 C0 6.03 0 3.06 0 0 Z " fill="#F1E6D0" transform="translate(143,239)"/>
<path d="M0 0 C0.5534764 2.07553648 1 3.84365964 1 6 C1.33 6.66 1.66 7.32 2 8 C1.67 8.66 1.34 9.32 1 10 C-2.3 10 -5.6 10 -9 10 C-9 9.67 -9 9.34 -9 9 C-7.35 9 -5.7 9 -4 9 C-4 8.34 -4 7.68 -4 7 C-4.66 6.34 -5.32 5.68 -6 5 C-5.195625 4.731875 -4.39125 4.46375 -3.5625 4.1875 C-2.716875 3.795625 -1.87125 3.40375 -1 3 C-0.67 2.01 -0.34 1.02 0 0 Z " fill="#37394F" transform="translate(187,380)"/>
<path d="M0 0 C1.984375 1.17578125 1.984375 1.17578125 4 3 C4.390625 5.48046875 4.390625 5.48046875 4.25 8.1875 C4.21390625 9.08855469 4.1778125 9.98960937 4.140625 10.91796875 C4.09421875 11.60503906 4.0478125 12.29210937 4 13 C4.99 13.33 5.98 13.66 7 14 C9 17 9 17 10 19 C8.68 18.67 7.36 18.34 6 18 C5.67 16.68 5.34 15.36 5 14 C4.34 14 3.68 14 3 14 C2.87625 12.88625 2.7525 11.7725 2.625 10.625 C2.3534187 6.96896323 2.3534187 6.96896323 0 5 C-0.125 2.375 -0.125 2.375 0 0 Z " fill="#E9AE16" transform="translate(147,286)"/>
<path d="M0 0 C0.66 0 1.32 0 2 0 C3.65497356 3.30994713 3.10084335 6.99123 3.0625 10.625 C3.05798828 11.42679687 3.05347656 12.22859375 3.04882812 13.0546875 C3.03703168 15.03649006 3.01909605 17.01825433 3 19 C2.67 19 2.34 19 2 19 C1.92652344 17.86111328 1.92652344 17.86111328 1.8515625 16.69921875 C1.77679688 15.70535156 1.70203125 14.71148437 1.625 13.6875 C1.55539062 12.70136719 1.48578125 11.71523438 1.4140625 10.69921875 C1.16134528 7.78471567 1.16134528 7.78471567 -1 5 C-0.625 2.3125 -0.625 2.3125 0 0 Z " fill="#7C7E8B" transform="translate(268,371)"/>
<path d="M0 0 C4.84686607 0.55812397 9.25256733 1.24073381 13.828125 3.046875 C13.828125 3.376875 13.828125 3.706875 13.828125 4.046875 C7.46824696 4.24877589 1.97591371 3.6746583 -4.171875 2.046875 C-2.171875 0.046875 -2.171875 0.046875 0 0 Z " fill="#0A82D4" transform="translate(189.171875,314.953125)"/>
<path d="M0 0 C1.32 0 2.64 0 4 0 C4 0.66 4 1.32 4 2 C5.65 2.33 7.3 2.66 9 3 C9.33 5.97 9.66 8.94 10 12 C9.67 12 9.34 12 9 12 C8.938125 11.21625 8.87625 10.4325 8.8125 9.625 C8.544375 8.75875 8.27625 7.8925 8 7 C5.62374655 5.81608777 5.62374655 5.81608777 3 5 C1.1875 3.5 1.1875 3.5 0 2 C0 1.34 0 0.68 0 0 Z " fill="#F3D27A" transform="translate(145,261)"/>
<path d="M0 0 C1.98 0 3.96 0 6 0 C6.1875 2.875 6.1875 2.875 6 6 C5.01 6.66 4.02 7.32 3 8 C3 7.34 3 6.68 3 6 C2.34 6 1.68 6 1 6 C0.67 4.02 0.34 2.04 0 0 Z " fill="#1D1F31" transform="translate(296,369)"/>
<path d="M0 0 C2.3828125 -0.29296875 2.3828125 -0.29296875 5.125 -0.1875 C6.03507813 -0.16042969 6.94515625 -0.13335937 7.8828125 -0.10546875 C8.58148438 -0.07066406 9.28015625 -0.03585937 10 0 C10 1.32 10 2.64 10 4 C6.04 3.67 2.08 3.34 -2 3 C-1.34 2.01 -0.68 1.02 0 0 Z " fill="#05081A" transform="translate(160,363)"/>
<path d="M0 0 C0.66 0.33 1.32 0.66 2 1 C1.01 2.485 1.01 2.485 0 4 C0.77085937 4.13277344 1.54171875 4.26554687 2.3359375 4.40234375 C3.33882812 4.57894531 4.34171875 4.75554687 5.375 4.9375 C6.87160156 5.19853516 6.87160156 5.19853516 8.3984375 5.46484375 C11 6 11 6 13 7 C13 7.66 13 8.32 13 9 C6.94864177 8.37934787 0.37506738 6.37506738 -4 2 C-2.125 0.9375 -2.125 0.9375 0 0 Z " fill="#D0B873" transform="translate(178,323)"/>
<path d="M0 0 C3.83663072 1.34929464 6.65172569 3.07751025 9.8125 5.625 C10.99779297 6.57246094 10.99779297 6.57246094 12.20703125 7.5390625 C12.79871094 8.02117187 13.39039063 8.50328125 14 9 C11 10 11 10 7 10 C7 8.68 7 7.36 7 6 C6.401875 5.896875 5.80375 5.79375 5.1875 5.6875 C2.68741714 4.90175967 1.62464918 4.03081147 0 2 C0 1.34 0 0.68 0 0 Z " fill="#29A7D8" transform="translate(170,254)"/>
<path d="M0 0 C0 1.98 0 3.96 0 6 C-0.99 6 -1.98 6 -3 6 C-3.99 6.33 -4.98 6.66 -6 7 C-7.10636395 9.39068734 -7.10636395 9.39068734 -8 12 C-8.66 12.99 -9.32 13.98 -10 15 C-9.15599121 10.07661538 -6.80329703 0 0 0 Z " fill="#F2D895" transform="translate(264,250)"/>
<path d="M0 0 C0.4140625 2.50390625 0.4140625 2.50390625 0.625 5.5625 C0.69976562 6.57441406 0.77453125 7.58632813 0.8515625 8.62890625 C0.90054688 9.41136719 0.94953125 10.19382812 1 11 C-1 8 -1 8 -2 5 C-2.99 4.67 -3.98 4.34 -5 4 C-5.6875 1.9375 -5.6875 1.9375 -6 0 C-2.25 -1.125 -2.25 -1.125 0 0 Z " fill="#F2DDA5" transform="translate(154,256)"/>
<path d="M0 0 C1.85776765 3.13498292 2.20140476 5.37471432 2 9 C0.35 9 -1.3 9 -3 9 C-2.4140625 2.84765625 -2.4140625 2.84765625 -2 1 C-1.34 0.67 -0.68 0.34 0 0 Z " fill="#F6E5C3" transform="translate(152,247)"/>
<path d="M0 0 C-3.53980214 3.40295412 -7.06652107 3.5325645 -11.75 3.6875 C-12.79607422 3.73874023 -12.79607422 3.73874023 -13.86328125 3.79101562 C-15.57497108 3.87308295 -17.2874576 3.93822919 -19 4 C-15.93089979 1.9539332 -14.19311799 1.49086694 -10.625 0.875 C-9.68914062 0.70742187 -8.75328125 0.53984375 -7.7890625 0.3671875 C-5.15262977 0.02009412 -2.65503612 -0.06758274 0 0 Z " fill="#F6C21A" transform="translate(201,217)"/>
<path d="M0 0 C0.66 0.33 1.32 0.66 2 1 C1.2884375 1.6496875 1.2884375 1.6496875 0.5625 2.3125 C-1.23686957 4.02309613 -1.23686957 4.02309613 -2 7 C-1.34 7 -0.68 7 0 7 C1.7143618 8.95927063 3.38405168 10.95880212 5 13 C0.39860359 11.51131293 -2.50227094 9.25370145 -6 6 C-6 5.34 -6 4.68 -6 4 C-4.36368108 2.95107762 -2.69514137 1.95093297 -1 1 C-0.67 0.67 -0.34 0.34 0 0 Z " fill="#44BAC9" transform="translate(180,234)"/>
<path d="M0 0 C3.37705625 0.53725895 6.696686 1.11064623 10 2 C10.103125 2.639375 10.20625 3.27875 10.3125 3.9375 C10.6528125 4.9584375 10.6528125 4.9584375 11 6 C11.99 6.33 12.98 6.66 14 7 C13.01 7.66 12.02 8.32 11 9 C10.29875 8.236875 9.5975 7.47375 8.875 6.6875 C6.03647396 4.03409522 3.53050949 2.55999257 0 1 C0 0.67 0 0.34 0 0 Z " fill="#B9C656" transform="translate(222,231)"/>
<path d="M0 0 C-1.39176632 0.96423026 -2.7886223 1.92111602 -4.1875 2.875 C-4.96480469 3.40867188 -5.74210938 3.94234375 -6.54296875 4.4921875 C-8.9676609 5.98015439 -11.3333499 7.02428078 -14 8 C-14.99 7.01 -15.98 6.02 -17 5 C-16.071875 5.103125 -15.14375 5.20625 -14.1875 5.3125 C-13.135625 5.209375 -12.08375 5.10625 -11 5 C-9.98133771 3.34467377 -8.98189187 1.67739862 -8 0 C-2.90909091 -1.45454545 -2.90909091 -1.45454545 0 0 Z " fill="#C5C751" transform="translate(187,231)"/>
<path d="M0 0 C2.5224581 2.62756052 2.99258956 3.9140389 3.3125 7.625 C3 11 3 11 1 13 C0.896875 12.38125 0.79375 11.7625 0.6875 11.125 C0.12474627 8.63473516 0.12474627 8.63473516 -3 7 C-2.01 4.69 -1.02 2.38 0 0 Z " fill="#474859" transform="translate(138,374)"/>
<path d="M0 0 C-0.5775 0.28488281 -1.155 0.56976563 -1.75 0.86328125 C-3.17964173 1.58554817 -4.59815875 2.3306229 -6 3.10546875 C-6.66 3.46253906 -7.32 3.81960937 -8 4.1875 C-8.66 4.55230469 -9.32 4.91710937 -10 5.29296875 C-12.40675537 6.14379438 -13.62761499 5.83139386 -16 5 C-14.09118566 3.96455826 -12.17260796 2.94709915 -10.25 1.9375 C-8.64898437 1.08478516 -8.64898437 1.08478516 -7.015625 0.21484375 C-3.97406463 -1.01044806 -2.95106435 -1.25348607 0 0 Z " fill="#F0DC88" transform="translate(189,218)"/>
<path d="M0 0 C-0.33 1.32 -0.66 2.64 -1 4 C-5.455 3.01 -5.455 3.01 -10 2 C-10 1.34 -10 0.68 -10 0 C-6.30458414 -0.95024979 -3.69541586 -0.95024979 0 0 Z " fill="#03061B" transform="translate(188,370)"/>
<path d="M0 0 C0.99 0 1.98 0 3 0 C3.80967438 2.91482778 4.21845993 4.46113217 3.0625 7.3125 C2.5365625 8.1478125 2.5365625 8.1478125 2 9 C1.34 9 0.68 9 0 9 C0 6.03 0 3.06 0 0 Z " fill="#D8B242" transform="translate(261,328)"/>
<path d="M0 0 C0.66 0 1.32 0 2 0 C2.309375 0.969375 2.61875 1.93875 2.9375 2.9375 C3.69523342 5.84065792 3.69523342 5.84065792 5 7 C5.04092937 9.33297433 5.04241723 11.66705225 5 14 C1.84888788 11.47047712 1.41201983 9.23243734 0.8125 5.3125 C0.65394531 4.31863281 0.49539062 3.32476562 0.33203125 2.30078125 C0.22246094 1.54152344 0.11289063 0.78226562 0 0 Z " fill="#E6C262" transform="translate(145,286)"/>
<path d="M0 0 C1 2 1 2 0.07421875 4.78515625 C-0.38339844 5.86667969 -0.84101563 6.94820313 -1.3125 8.0625 C-1.76238281 9.14660156 -2.21226562 10.23070312 -2.67578125 11.34765625 C-4 14 -4 14 -6 15 C-5.67 12.36 -5.34 9.72 -5 7 C-4.34 7 -3.68 7 -3 7 C-2.87625 6.030625 -2.7525 5.06125 -2.625 4.0625 C-2.41875 3.051875 -2.2125 2.04125 -2 1 C-1.34 0.67 -0.68 0.34 0 0 Z " fill="#55576D" transform="translate(312,379)"/>
<path d="M0 0 C6.47511312 1.3438914 6.47511312 1.3438914 9 4.5 C9.33 5.325 9.66 6.15 10 7 C9.67 7.66 9.34 8.32 9 9 C8.38125 8.525625 7.7625 8.05125 7.125 7.5625 C5.09294454 5.97582559 5.09294454 5.97582559 3 5 C3 4.34 3 3.68 3 3 C2.01 3.33 1.02 3.66 0 4 C0 2.68 0 1.36 0 0 Z " fill="#F6C239" transform="translate(145,270)"/>
<path d="M0 0 C5.08938811 1.59043379 8.87456643 4.7446951 13 8 C9.30932235 8 7.75664691 6.79367173 4.71875 4.875 C2.87586165 3.77315848 2.87586165 3.77315848 0 4 C0 2.68 0 1.36 0 0 Z " fill="#2BA5D0" transform="translate(157,245)"/>
<path d="M0 0 C0.66 0.33 1.32 0.66 2 1 C0.95600254 2.34786992 -0.11102066 3.67792729 -1.1875 5 C-1.77917969 5.7425 -2.37085938 6.485 -2.98046875 7.25 C-5 9 -5 9 -7.73828125 9.25 C-8.48464844 9.1675 -9.23101562 9.085 -10 9 C-6.85281112 5.7317654 -3.50647501 2.8689341 0 0 Z " fill="#C9F7FD" transform="translate(232,240)"/>
<path d="M0 0 C0.66 0 1.32 0 2 0 C1.84402344 0.61488281 1.68804687 1.22976563 1.52734375 1.86328125 C1.33269531 2.67152344 1.13804687 3.47976563 0.9375 4.3125 C0.74027344 5.11300781 0.54304687 5.91351563 0.33984375 6.73828125 C-0.19885554 9.15957179 -0.19885554 9.15957179 1 12 C-0.32 12.33 -1.64 12.66 -3 13 C-2.69240822 11.02006459 -2.3787932 9.04106401 -2.0625 7.0625 C-1.88847656 5.96035156 -1.71445313 4.85820312 -1.53515625 3.72265625 C-1 1 -1 1 0 0 Z " fill="#0476DA" transform="translate(158,314)"/>
<path d="M0 0 C0.25 2.75 0.25 2.75 0 6 C-2 8.375 -2 8.375 -4 10 C-4.36814024 3.49618902 -4.36814024 3.49618902 -2.5625 1.0625 C-1 0 -1 0 0 0 Z " fill="#E2B945" transform="translate(259,295)"/>
<path d="M0 0 C1.67542976 0.28604898 3.34385343 0.61781233 5 1 C4.01 1.33 3.02 1.66 2 2 C2 7.94 2 13.88 2 20 C1.67 20 1.34 20 1 20 C0.93941406 18.87980469 0.87882813 17.75960938 0.81640625 16.60546875 C0.73198576 15.13280016 0.64733851 13.66014456 0.5625 12.1875 C0.52318359 11.44951172 0.48386719 10.71152344 0.44335938 9.95117188 C0.25618965 6.76928658 0.01279207 4.03837622 -1 1 C-0.67 0.67 -0.34 0.34 0 0 Z " fill="#E3EDE1" transform="translate(153,242)"/>
<path d="M0 0 C2.475 0.495 2.475 0.495 5 1 C4.67 1.99 4.34 2.98 4 4 C5.65 4 7.3 4 9 4 C9.33 4.66 9.66 5.32 10 6 C7.36 6 4.72 6 2 6 C1.34 4.02 0.68 2.04 0 0 Z " fill="#383F50" transform="translate(258,384)"/>
<path d="M0 0 C2.475 0.99 2.475 0.99 5 2 C3.25 9.75 3.25 9.75 1 12 C1.020625 10.7625 1.04125 9.525 1.0625 8.25 C1.06766681 5.3359175 0.93015558 2.79046673 0 0 Z " fill="#444859" transform="translate(112,371)"/>
<path d="M0 0 C2 2 2 2 2.125 4.625 C2.08375 5.40875 2.0425 6.1925 2 7 C1.67 6.34 1.34 5.68 1 5 C-1.64 6.98 -4.28 8.96 -7 11 C-5.19097041 7.38194081 -3.76364161 5.76364161 -1 3 C-0.67 2.01 -0.34 1.02 0 0 Z " fill="#F3CC64" transform="translate(262,258)"/>
<path d="M0 0 C0.99 0.495 0.99 0.495 2 1 C2.99 0.67 3.98 0.34 5 0 C5.66 0 6.32 0 7 0 C7 1.32 7 2.64 7 4 C5.02 4.33 3.04 4.66 1 5 C0.67 3.35 0.34 1.7 0 0 Z " fill="#43485B" transform="translate(128,393)"/>
<path d="M0 0 C0.268125 0.639375 0.53625 1.27875 0.8125 1.9375 C1.88667752 4.33131686 1.88667752 4.33131686 5 5 C4.34 5 3.68 5 3 5 C2.67 5.66 2.34 6.32 2 7 C2 6.34 2 5.68 2 5 C-0.86724686 5.57344937 -1.8614515 5.8614515 -4 8 C-3.40072174 4.64404172 -2.15377564 2.62198774 0 0 Z " fill="#494D62" transform="translate(152,363)"/>
<path d="M0 0 C0.66 0.33 1.32 0.66 2 1 C0.37982158 2.33918806 -1.24629343 3.6711969 -2.875 5 C-4.23238281 6.11375 -4.23238281 6.11375 -5.6171875 7.25 C-8 9 -8 9 -10 9 C-10 8.34 -10 7.68 -10 7 C-7.8125 5.2734375 -7.8125 5.2734375 -5 3.375 C-4.071875 2.74335938 -3.14375 2.11171875 -2.1875 1.4609375 C-1.1046875 0.73777344 -1.1046875 0.73777344 0 0 Z " fill="#34B9D9" transform="translate(218,249)"/>
<path d="M0 0 C1.32 0.33 2.64 0.66 4 1 C4.125 3.875 4.125 3.875 4 7 C3.34 7.66 2.68 8.32 2 9 C0.50178941 5.62902617 0 3.79557881 0 0 Z " fill="#1D2033" transform="translate(139,373)"/>
<path d="M0 0 C0.33 0 0.66 0 1 0 C1 3.66666667 1 7.33333333 1 11 C0.01 11 -0.98 11 -2 11 C-1.125 3.375 -1.125 3.375 0 0 Z " fill="#659BCA" transform="translate(152,328)"/>
<path d="M0 0 C0.33 0 0.66 0 1 0 C1.14285714 7.42857143 1.14285714 7.42857143 0 11 C-0.66 11 -1.32 11 -2 11 C-2.33 11.66 -2.66 12.32 -3 13 C-2.69128878 11.20767663 -2.37790936 9.41615679 -2.0625 7.625 C-1.88847656 6.62726563 -1.71445313 5.62953125 -1.53515625 4.6015625 C-1 2 -1 2 0 0 Z " fill="#549ACA" transform="translate(157,308)"/>
<path d="M0 0 C7.57142857 4.14285714 7.57142857 4.14285714 10 7 C7.23723823 6.47731534 4.6739124 5.89130413 2 5 C2 4.34 2 3.68 2 3 C1.34 3 0.68 3 0 3 C0 2.01 0 1.02 0 0 Z " fill="#D4FAFD" transform="translate(179,244)"/>
<path d="M0 0 C1.15837573 3.47512718 0.77265943 5.13670286 0.0625 8.6875 C-0.22947266 10.17830078 -0.22947266 10.17830078 -0.52734375 11.69921875 C-0.76130859 12.83810547 -0.76130859 12.83810547 -1 14 C-1.33 14 -1.66 14 -2 14 C-2.05389087 12.04196493 -2.09274217 10.08351091 -2.125 8.125 C-2.14820313 7.03445312 -2.17140625 5.94390625 -2.1953125 4.8203125 C-2 2 -2 2 0 0 Z " fill="#E8F2EC" transform="translate(255,240)"/>
<path d="M0 0 C0.66 0.99 1.32 1.98 2 3 C1 5 1 5 -1 6 C-1.66 6.66 -2.32 7.32 -3 8 C-3.625 5.625 -3.625 5.625 -4 3 C-2 1 -2 1 0 0 Z " fill="#3E4156" transform="translate(133,374)"/>
<path d="M0 0 C0.99 0.33 1.98 0.66 3 1 C3 1.99 3 2.98 3 4 C3.66 4 4.32 4 5 4 C4.34 5.32 3.68 6.64 3 8 C2.71125 7.195625 2.4225 6.39125 2.125 5.5625 C1.26737432 2.8673532 1.26737432 2.8673532 -1 2 C-1 3.65 -1 5.3 -1 7 C-1.33 7 -1.66 7 -2 7 C-2 5.02 -2 3.04 -2 1 C-1.34 0.67 -0.68 0.34 0 0 Z " fill="#FAB711" transform="translate(149,278)"/>
<path d="M0 0 C1.65 0.99 3.3 1.98 5 3 C4.67 3.99 4.34 4.98 4 6 C1.4375 7.1875 1.4375 7.1875 -1 8 C-1.33 7.01 -1.66 6.02 -2 5 C-0.68 5 0.64 5 2 5 C1.34 3.35 0.68 1.7 0 0 Z " fill="#19A5E0" transform="translate(194,271)"/>
<path d="M0 0 C0.66 0.33 1.32 0.66 2 1 C0.02 3.31 -1.96 5.62 -4 8 C-5.32 7.34 -6.64 6.68 -8 6 C-7.360625 5.896875 -6.72125 5.79375 -6.0625 5.6875 C-5.381875 5.460625 -4.70125 5.23375 -4 5 C-3.67 4.01 -3.34 3.02 -3 2 C-2.01 1.34 -1.02 0.68 0 0 Z " fill="#05A8F1" transform="translate(216,271)"/>
<path d="M0 0 C0.99 0.33 1.98 0.66 3 1 C2.34 1 1.68 1 1 1 C0.67 1.99 0.34 2.98 0 4 C-2.9375 5.25 -2.9375 5.25 -6 6 C-6.66 5.67 -7.32 5.34 -8 5 C-8 4.34 -8 3.68 -8 3 C-5.36 2.67 -2.72 2.34 0 2 C0 1.34 0 0.68 0 0 Z " fill="#428AC8" transform="translate(173,324)"/>
<path d="M0 0 C-1.69179328 2.04219706 -2.63727666 2.91793306 -5.26171875 3.51171875 C-6.06222656 3.56972656 -6.86273438 3.62773437 -7.6875 3.6875 C-8.49574219 3.75324219 -9.30398437 3.81898438 -10.13671875 3.88671875 C-11.05904297 3.94279297 -11.05904297 3.94279297 -12 4 C-11 2 -11 2 -9.00390625 1.11328125 C-7.79541016 0.71689453 -7.79541016 0.71689453 -6.5625 0.3125 C-5.75941406 0.04050781 -4.95632812 -0.23148437 -4.12890625 -0.51171875 C-2 -1 -2 -1 0 0 Z " fill="#BDAA45" transform="translate(224,318)"/>
<path d="M0 0 C0.33 1.32 0.66 2.64 1 4 C-0.1446875 4.6496875 -0.1446875 4.6496875 -1.3125 5.3125 C-3.58093768 6.73686785 -5.2199723 8.03260097 -7 10 C-7.66 9.67 -8.32 9.34 -9 9 C-6.03 6.03 -3.06 3.06 0 0 Z " fill="#B3AE55" transform="translate(241,303)"/>
<path d="M0 0 C3.7910119 1.44950455 7.3874638 3.15172566 11 5 C10.67 5.99 10.34 6.98 10 8 C8.33055479 6.85821872 6.6645052 5.71147095 5 4.5625 C4.071875 3.92441406 3.14375 3.28632813 2.1875 2.62890625 C1.465625 2.09136719 0.74375 1.55382812 0 1 C0 0.67 0 0.34 0 0 Z " fill="#C6F4FC" transform="translate(181,261)"/>
<path d="M0 0 C0 0.66 0 1.32 0 2 C-1.65532623 3.01866229 -3.32260138 4.01810813 -5 5 C-5.33 5.66 -5.66 6.32 -6 7 C-7.32 6.67 -8.64 6.34 -10 6 C-8.71283353 4.99421411 -7.42011342 3.99553202 -6.125 3 C-5.40570313 2.443125 -4.68640625 1.88625 -3.9453125 1.3125 C-2 0 -2 0 0 0 Z " fill="#2EA6D3" transform="translate(218,269)"/>
<path d="M0 0 C0.66 0.66 1.32 1.32 2 2 C1.625 4.125 1.625 4.125 1 6 C1 5.34 1 4.68 1 4 C-2.11785113 4.64644661 -2.11785113 4.64644661 -3 7 C-3.66 7 -4.32 7 -5 7 C-4.60196439 4.11424181 -4.20990931 3.17810487 -1.9375 1.25 C-1.298125 0.8375 -0.65875 0.425 0 0 Z " fill="#F3D482" transform="translate(262,254)"/>
<path d="M0 0 C0.99 0.495 0.99 0.495 2 1 C2 1.99 2 2.98 2 4 C2.66 4 3.32 4 4 4 C4.33 5.32 4.66 6.64 5 8 C4.01 7.67 3.02 7.34 2 7 C1.01 7.495 1.01 7.495 0 8 C0 5.36 0 2.72 0 0 Z " fill="#F2D794" transform="translate(144,252)"/>
<path d="M0 0 C2.97 0.495 2.97 0.495 6 1 C3.31158141 3.25245881 1.35358125 4.88213958 -2 6 C-2 5.01 -2 4.02 -2 3 C-1.34 3 -0.68 3 0 3 C0 2.01 0 1.02 0 0 Z " fill="#D3F7FC" transform="translate(240,246)"/>
<path d="M0 0 C0.99 0 1.98 0 3 0 C3 0.99 3 1.98 3 3 C5.475 3.99 5.475 3.99 8 5 C7.01 5.495 7.01 5.495 6 6 C3.64018187 5.06421005 1.30368736 4.06652192 -1 3 C-0.67 2.01 -0.34 1.02 0 0 Z " fill="#FCF7D2" transform="translate(161,230)"/>
<path d="M0 0 C0.33 0.66 0.66 1.32 1 2 C1.66 2 2.32 2 3 2 C3.33 1.34 3.66 0.68 4 0 C4.33 0.99 4.66 1.98 5 3 C3.5625 5.1875 3.5625 5.1875 2 7 C0.5393715 4.35261084 0 3.10551666 0 0 Z " fill="#42465E" transform="translate(301,383)"/>
<path d="M0 0 C0.66 0 1.32 0 2 0 C1.52797514 4.24822374 -0.96655518 6.19989709 -4 9 C-3.34 6.69 -2.68 4.38 -2 2 C-1.34 2 -0.68 2 0 2 C0 1.34 0 0.68 0 0 Z " fill="#E3C277" transform="translate(253,305)"/>
<path d="M0 0 C0.99 0 1.98 0 3 0 C3 1.65 3 3.3 3 5 C1.35 4.67 -0.3 4.34 -2 4 C-1.34 2.68 -0.68 1.36 0 0 Z " fill="#06081D" transform="translate(247,377)"/>
<path d="M0 0 C0.99 0 1.98 0 3 0 C3.33 0.99 3.66 1.98 4 3 C2.02 3.99 0.04 4.98 -2 6 C-2 5.34 -2 4.68 -2 4 C-2.66 3.67 -3.32 3.34 -4 3 C-2.68 3 -1.36 3 0 3 C0 2.01 0 1.02 0 0 Z " fill="#3D83C8" transform="translate(156,332)"/>
<path d="M0 0 C-0.66 0 -1.32 0 -2 0 C-2.33 0.99 -2.66 1.98 -3 3 C-4.65 3.33 -6.3 3.66 -8 4 C-7.1875 2.0625 -7.1875 2.0625 -6 0 C-3 -1 -3 -1 0 0 Z " fill="#D8AC40" transform="translate(232,326)"/>
<path d="M0 0 C1.24546405 2.49092811 0.7767578 3.41080733 0 6 C-1.32 6.33 -2.64 6.66 -4 7 C-4 5.68 -4 4.36 -4 3 C-3.34 3 -2.68 3 -2 3 C-2 2.34 -2 1.68 -2 1 C-1.34 0.67 -0.68 0.34 0 0 Z " fill="#CEB036" transform="translate(246,298)"/>
<path d="M0 0 C2 2 2 2 2 6 C1.01 6.495 1.01 6.495 0 7 C-0.65555119 9.52733235 -0.65555119 9.52733235 -1 12 C-1.33 12 -1.66 12 -2 12 C-2.21278058 7.53160785 -1.59138085 4.17737474 0 0 Z " fill="#058BE7" transform="translate(163,292)"/>
<path d="M0 0 C1.24546405 2.49092811 0.7767578 3.41080733 0 6 C-0.66 6 -1.32 6 -2 6 C-2.33 7.65 -2.66 9.3 -3 11 C-4.09658936 7.71023192 -3.79953138 6.28696233 -3 3 C-2.34 3 -1.68 3 -1 3 C-0.67 2.01 -0.34 1.02 0 0 Z " fill="#2F9EB2" transform="translate(248,288)"/>
<path d="M0 0 C0 0.99 0 1.98 0 3 C-1.8125 4.75 -1.8125 4.75 -4 6 C-4.99 5.67 -5.98 5.34 -7 5 C-4.63707344 2.47411298 -3.33537489 1.11179163 0 0 Z " fill="#F8C440" transform="translate(262,266)"/>
<path d="M0 0 C0.78375 0.04125 1.5675 0.0825 2.375 0.125 C-2.25 5 -2.25 5 -5.625 6.125 C-4.86443086 2.32215429 -4.27658992 0.20364714 0 0 Z " fill="#D2F7FD" transform="translate(229.625,256.875)"/>
<path d="M0 0 C6.875 3.75 6.875 3.75 8 6 C6.68 6 5.36 6 4 6 C4 5.34 4 4.68 4 4 C2.68 3.67 1.36 3.34 0 3 C0 2.01 0 1.02 0 0 Z " fill="#CAF8FD" transform="translate(189,251)"/>
<path d="M0 0 C2.5 1.375 2.5 1.375 5 3 C5 3.66 5 4.32 5 5 C4.34 5 3.68 5 3 5 C2.34 6.32 1.68 7.64 1 9 C0.34 8.67 -0.32 8.34 -1 8 C-0.34 7.34 0.32 6.68 1 6 C1.6425235 3.93125966 1.6425235 3.93125966 2 2 C1.34 2 0.68 2 0 2 C0 1.34 0 0.68 0 0 Z " fill="#F0D990" transform="translate(240,227)"/>
<path d="M0 0 C1.32 0 2.64 0 4 0 C4 1.98 4 3.96 4 6 C2.68 5.67 1.36 5.34 0 5 C0 3.33333333 0 1.66666667 0 0 Z " fill="#515466" transform="translate(166,384)"/>
<path d="M0 0 C2 3 2 3 1.625 5.1875 C1.41875 5.785625 1.2125 6.38375 1 7 C0.01 7 -0.98 7 -2 7 C-2 5.35 -2 3.7 -2 2 C-1.34 2 -0.68 2 0 2 C0 1.34 0 0.68 0 0 Z " fill="#05071C" transform="translate(176,371)"/>
<path d="M0 0 C0.99 0.33 1.98 0.66 3 1 C4.1875 3.5625 4.1875 3.5625 5 6 C1.34683329 4.75023244 0.21934164 4.32901247 -2 1 C-1.34 0.67 -0.68 0.34 0 0 Z " fill="#C4F1FB" transform="translate(160,243)"/>
<path d="M0 0 C3.14737182 0.69941596 6.02588876 1.76078698 9 3 C9 3.66 9 4.32 9 5 C7.68 5 6.36 5 5 5 C5 4.34 5 3.68 5 3 C4.01 3 3.02 3 2 3 C2 2.34 2 1.68 2 1 C1.34 0.67 0.68 0.34 0 0 Z " fill="#EEC229" transform="translate(231,224)"/>
<path d="M0 0 C0.33 0.99 0.66 1.98 1 3 C0.01 4.485 0.01 4.485 -1 6 C-1.99 6 -2.98 6 -4 6 C-4 5.01 -4 4.02 -4 3 C-2 1.3125 -2 1.3125 0 0 Z " fill="#333545" transform="translate(305,392)"/>
<path d="M0 0 C0.99 0.33 1.98 0.66 3 1 C3 1.99 3 2.98 3 4 C0.5 5.6875 0.5 5.6875 -2 7 C-1.34 4.69 -0.68 2.38 0 0 Z " fill="#02061C" transform="translate(304,388)"/>
<path d="M0 0 C0.33 0 0.66 0 1 0 C1 1.98 1 3.96 1 6 C-0.98 6.99 -0.98 6.99 -3 8 C-3.33 6.68 -3.66 5.36 -4 4 C-3.01 4 -2.02 4 -1 4 C-0.67 2.68 -0.34 1.36 0 0 Z " fill="#393B4D" transform="translate(302,371)"/>
<path d="M0 0 C-0.33 0.99 -0.66 1.98 -1 3 C-3.5625 4.1875 -3.5625 4.1875 -6 5 C-6 4.01 -6 3.02 -6 2 C-3 0 -3 0 0 0 Z " fill="#D2B45C" transform="translate(263,337)"/>
<path d="M0 0 C0.33 0.66 0.66 1.32 1 2 C0.34 2 -0.32 2 -1 2 C-1.268125 2.639375 -1.53625 3.27875 -1.8125 3.9375 C-3 6 -3 6 -6 7 C-6 6.34 -6 5.68 -6 5 C-5.34 5 -4.68 5 -4 5 C-4 4.01 -4 3.02 -4 2 C-2.68 1.34 -1.36 0.68 0 0 Z " fill="#2C98B0" transform="translate(243,299)"/>
<path d="M0 0 C5.94 1.485 5.94 1.485 12 3 C12 3.33 12 3.66 12 4 C6.140625 4.390625 6.140625 4.390625 4 4 C2.68 2.68 1.36 1.36 0 0 Z " fill="#D0F6FA" transform="translate(195,271)"/>
<path d="M0 0 C0.86625 0.4640625 0.86625 0.4640625 1.75 0.9375 C3.84294184 1.92583364 5.74535275 2.5168613 8 3 C8 3.66 8 4.32 8 5 C4.62537285 4.45276317 2.91765 3.9451 0 2 C0 1.34 0 0.68 0 0 Z " fill="#F8C957" transform="translate(145,266)"/>
<path d="M0 0 C2.31 0.33 4.62 0.66 7 1 C6.67 1.99 6.34 2.98 6 4 C4.35 4 2.7 4 1 4 C0.67 2.68 0.34 1.36 0 0 Z " fill="#C4F3FB" transform="translate(200,259)"/>
<path d="M0 0 C0.66 0.33 1.32 0.66 2 1 C0.7260411 3.03833424 -0.61061923 5.03852126 -2 7 C-2.66 7 -3.32 7 -4 7 C-3.43628586 3.73045798 -2.50037734 2.17424117 0 0 Z " fill="#0DBDEA" transform="translate(182,234)"/>
<path d="M0 0 C3.77545388 1.09068668 6.47043472 1.9083091 9 5 C7.68428397 4.7452486 6.37239624 4.47065859 5.0625 4.1875 C4.33160156 4.03667969 3.60070312 3.88585937 2.84765625 3.73046875 C2.23792969 3.48941406 1.62820312 3.24835938 1 3 C0.67 2.01 0.34 1.02 0 0 Z " fill="#3BBDB4" transform="translate(220,231)"/>
</svg>
