<?xml version="1.0" encoding="UTF-8"?>
<svg version="1.1" xmlns="http://www.w3.org/2000/svg" width="409" height="610">
<path d="M0 0 C2.79950633 1.57361724 5.43444896 3.38728889 8.10546875 5.16796875 C8.10546875 5.82796875 8.10546875 6.48796875 8.10546875 7.16796875 C9.19408203 7.52955078 9.19408203 7.52955078 10.3046875 7.8984375 C13.48348604 9.3393155 15.40730462 11.06714862 17.91796875 13.48046875 C21.04921622 16.40046265 24.04693919 18.92021321 27.73046875 21.10546875 C28.84421875 21.78609375 29.95796875 22.46671875 31.10546875 23.16796875 C31.10546875 23.82796875 31.10546875 24.48796875 31.10546875 25.16796875 C31.64171875 25.41546875 32.17796875 25.66296875 32.73046875 25.91796875 C35.66888679 27.46450456 38.353539 29.31324349 41.10546875 31.16796875 C50.92258707 23.50208526 50.92258707 23.50208526 60.60546875 15.66796875 C64.91047782 12.1317113 69.24248148 8.63229746 73.60546875 5.16796875 C74.20552734 4.68650391 74.80558594 4.20503906 75.42382812 3.70898438 C80.47646413 -0.28357749 83.67720375 -1.16452772 90.10546875 -0.83203125 C95.11660445 0.3610963 97.11947285 3.18664089 100.10546875 7.16796875 C101.54754646 10.05212418 101.25673358 12.56272486 101.2824707 15.78564453 C101.2890419 16.46558975 101.2956131 17.14553497 101.30238342 17.84608459 C101.32213032 20.10181793 101.33378527 22.35748448 101.34375 24.61328125 C101.34782553 25.38477383 101.35190105 26.1562664 101.35610008 26.95113754 C101.37697199 31.03871137 101.39126585 35.12625157 101.40063477 39.21386719 C101.41166997 43.4237485 101.44603257 47.63309697 101.48580647 51.8427906 C101.51204111 55.08917172 101.52033289 58.33542758 101.52391624 61.58190536 C101.5287687 63.13275606 101.54034432 64.68360167 101.55895424 66.2343483 C101.67061352 76.16001893 101.41809322 83.1918636 94.66796875 90.98046875 C89.07225452 95.75729797 84.47933418 97.36489691 77.10546875 97.16796875 C72.34720466 96.20445733 67.60585285 94.66835285 64.10546875 91.16796875 C64.10546875 90.50796875 64.10546875 89.84796875 64.10546875 89.16796875 C63.54859375 88.92046875 62.99171875 88.67296875 62.41796875 88.41796875 C59.66386396 86.92926346 57.41372361 85.28386903 55.10546875 83.16796875 C55.10546875 82.17796875 55.10546875 81.18796875 55.10546875 80.16796875 C55.81832031 80.1421875 56.53117187 80.11640625 57.265625 80.08984375 C63.65552161 79.71143803 67.87522262 78.92010184 73.10546875 75.16796875 C74.6052996 72.16830705 74.3444893 69.04849914 74.421875 65.75390625 C74.45304665 64.65944687 74.45304665 64.65944687 74.48484802 63.5428772 C74.55028792 61.20967112 74.60920243 58.87635154 74.66796875 56.54296875 C74.71115928 54.9622278 74.75477374 53.38149836 74.79882812 51.80078125 C74.90596356 47.92329371 75.00724657 44.0456919 75.10546875 40.16796875 C74.32171875 40.82796875 73.53796875 41.48796875 72.73046875 42.16796875 C70.10546875 44.16796875 70.10546875 44.16796875 68.10546875 44.16796875 C68.10546875 44.82796875 68.10546875 45.48796875 68.10546875 46.16796875 C66.05708908 47.92033979 64.00864884 49.55423635 61.85546875 51.16796875 C61.26894531 51.61914062 60.68242187 52.0703125 60.078125 52.53515625 C51.22992531 59.25581129 43.05837814 60.06511835 32.23046875 58.66796875 C26.47694974 57.084004 21.51895302 53.06221958 17.10546875 49.16796875 C17.10546875 48.50796875 17.10546875 47.84796875 17.10546875 47.16796875 C16.56921875 46.94109375 16.03296875 46.71421875 15.48046875 46.48046875 C13.10546875 45.16796875 13.10546875 45.16796875 7.10546875 40.16796875 C6.77546875 60.29796875 6.44546875 80.42796875 6.10546875 101.16796875 C-3.07561366 99.63778835 -9.31250472 95.4232421 -15.421875 88.48828125 C-20.59040488 80.34476202 -20.36869293 72.10967038 -20.36328125 62.79296875 C-20.37039456 61.29898803 -20.37809525 59.80501 -20.38635254 58.31103516 C-20.39974577 55.1910033 -20.40138884 52.0712243 -20.39550781 48.95117188 C-20.38960692 44.96990348 -20.42024166 40.98985255 -20.46062469 37.00881958 C-20.48657609 33.92709922 -20.48937264 30.84566953 -20.48573303 27.76385498 C-20.48741638 26.29674208 -20.49698276 24.8296146 -20.51487732 23.36260986 C-20.67985163 8.17188858 -20.67985163 8.17188858 -14.89453125 2.16796875 C-10.29522238 -1.03155047 -5.34644851 -2.3480279 0 0 Z " fill="#64B1FB" transform="translate(163.89453125,227.83203125)"/>
<path d="M0 0 C3.79596613 2.1976646 6.40486057 5.43472114 8.375 9.375 C8.48753451 11.57880949 8.53438072 13.78606531 8.55200195 15.99267578 C8.56185875 17.01259361 8.56185875 17.01259361 8.57191467 18.05311584 C8.59166157 20.30884918 8.60331652 22.56451573 8.61328125 24.8203125 C8.61735678 25.59180508 8.6214323 26.36329765 8.62563133 27.15816879 C8.64650324 31.24574262 8.6607971 35.33328282 8.67016602 39.42089844 C8.68120122 43.63077975 8.71556382 47.84012822 8.75533772 52.04982185 C8.78157236 55.29620297 8.78986414 58.54245883 8.79344749 61.78893661 C8.79829995 63.33978731 8.80987557 64.89063292 8.82848549 66.44137955 C8.94014477 76.36705018 8.68762447 83.39889485 1.9375 91.1875 C-3.65821423 95.96432922 -8.25113457 97.57192816 -15.625 97.375 C-20.38326409 96.41148858 -25.1246159 94.8753841 -28.625 91.375 C-28.625 90.715 -28.625 90.055 -28.625 89.375 C-29.4603125 89.00375 -29.4603125 89.00375 -30.3125 88.625 C-33.06660479 87.13629471 -35.31674514 85.49090028 -37.625 83.375 C-37.625 82.385 -37.625 81.395 -37.625 80.375 C-36.91214844 80.34921875 -36.19929688 80.3234375 -35.46484375 80.296875 C-29.07494714 79.91846928 -24.85524613 79.12713309 -19.625 75.375 C-18.12516915 72.3753383 -18.38597945 69.25553039 -18.30859375 65.9609375 C-18.28781265 65.23129791 -18.26703156 64.50165833 -18.24562073 63.74990845 C-18.18018083 61.41670237 -18.12126632 59.08338279 -18.0625 56.75 C-18.01930947 55.16925905 -17.97569501 53.58852961 -17.93164062 52.0078125 C-17.82450519 48.13032496 -17.72322218 44.25272315 -17.625 40.375 C-18.37136719 41.02549316 -19.11773437 41.67598633 -19.88671875 42.34619141 C-23.445492 44.98290732 -26.37634151 44.89893821 -30.625 44.75 C-31.67300781 44.74806641 -31.67300781 44.74806641 -32.7421875 44.74609375 C-36.80575496 44.67708977 -39.97178408 44.14331196 -43.625 42.375 C-44.6975 41.900625 -45.77 41.42625 -46.875 40.9375 C-49.625 39.375 -49.625 39.375 -50.625 36.375 C-51.91855827 35.00304426 -53.24798702 33.66317344 -54.625 32.375 C-54.295 31.715 -53.965 31.055 -53.625 30.375 C-52.965 30.705 -52.305 31.035 -51.625 31.375 C-41.80788168 23.70911651 -41.80788168 23.70911651 -32.125 15.875 C-27.81999093 12.33874255 -23.48798727 8.83932871 -19.125 5.375 C-18.52494141 4.89353516 -17.92488281 4.41207031 -17.30664062 3.91601562 C-11.67260096 -0.53596783 -7.1144219 -1.69390998 0 0 Z " fill="#F0B42E" transform="translate(256.625,227.625)"/>
<path d="M0 0 C0.33 0 0.66 0 1 0 C1 2.97 1 5.94 1 9 C2.98 9.495 2.98 9.495 5 10 C8.25 11.9375 8.25 11.9375 11 14 C11 14.66 11 15.32 11 16 C11.55300781 16.2475 12.10601562 16.495 12.67578125 16.75 C15.44188688 18.23765345 17.73983973 20.0331947 20.1875 22 C21.06792969 22.70125 21.94835937 23.4025 22.85546875 24.125 C25 26 25 26 26 28 C26.09144783 30.0016875 26.11751697 32.00648256 26.11352539 34.01025391 C26.11344986 35.27141022 26.11337433 36.53256653 26.11329651 37.8319397 C26.10818949 39.21348103 26.10297349 40.59502196 26.09765625 41.9765625 C26.09579144 43.3861791 26.09436783 44.79579634 26.09336853 46.20541382 C26.08954833 49.91753932 26.07972228 53.62962578 26.06866455 57.34173584 C26.05843975 61.12886019 26.05386862 64.91599083 26.04882812 68.703125 C26.03809958 76.13543448 26.02102911 83.56771177 26 91 C16.91318429 89.6269471 10.50039714 85.16261297 4.47265625 78.3203125 C-0.77256342 70.05596108 -0.39611733 61.78536665 -0.29296875 52.34375 C-0.2873649 50.8306114 -0.28309854 49.31746731 -0.28010559 47.80432129 C-0.26871877 43.84554693 -0.23930579 39.88710926 -0.20599365 35.9284668 C-0.17515886 31.87944084 -0.16157176 27.83035983 -0.14648438 23.78125 C-0.11442922 15.85401315 -0.06330882 7.9270486 0 0 Z " fill="#358EED" transform="translate(144,238)"/>
<path d="M0 0 C3.373729 1.95321152 5.70011422 3.86379367 7.375 7.375 C8.30458146 11.58987244 8.48579083 15.18507397 7.375 19.375 C4.75258995 22.16928048 1.76376212 23.65787557 -1.625 25.375 C-2.594375 26.15875 -3.56375 26.9425 -4.5625 27.75 C-6.625 29.375 -6.625 29.375 -8.625 29.375 C-9.12 30.86 -9.12 30.86 -9.625 32.375 C-11.27139965 33.73327971 -12.93795807 35.06754251 -14.625 36.375 C-14.955 37.035 -15.285 37.695 -15.625 38.375 C-22.29929128 40.30312859 -28.11059932 38.26834798 -34.625 36.375 C-34.625 35.715 -34.625 35.055 -34.625 34.375 C-35.98625 34.189375 -35.98625 34.189375 -37.375 34 C-40.21470323 33.45390323 -42.15090591 32.80236197 -44.625 31.375 C-44.13 29.89 -44.13 29.89 -43.625 28.375 C-42.965 28.375 -42.305 28.375 -41.625 28.375 C-41.53605469 27.62476563 -41.44710937 26.87453125 -41.35546875 26.1015625 C-40.4827363 22.84398364 -39.49714008 21.89801589 -36.9375 19.75 C-35.73287109 18.73292969 -35.73287109 18.73292969 -34.50390625 17.6953125 C-29.43972707 13.61373525 -24.34048601 9.58001791 -19.19335938 5.60351562 C-17.7388643 4.46419134 -16.31331475 3.28817508 -14.890625 2.109375 C-10.35321761 -1.36408859 -5.42736067 -1.29222873 0 0 Z " fill="#FBD145" transform="translate(256.625,227.625)"/>
<path d="M0 0 C0.33 0 0.66 0 1 0 C1.09291788 9.11901578 1.16387492 18.23786713 1.20724869 27.35725403 C1.22807209 31.59234407 1.25629279 35.82710884 1.30175781 40.06201172 C1.34540424 44.15339326 1.36917653 48.24446307 1.37950897 52.33605957 C1.3868668 53.89250593 1.40123476 55.44893635 1.42292023 57.00524902 C1.55232479 66.68224447 1.52051589 73.97720456 -5.25 81.5 C-5.8275 81.995 -6.405 82.49 -7 83 C-6.63264205 79.78561795 -6.3272115 78.3218001 -3.97753906 76.01098633 C-1.00254484 71.48128216 -1.50249833 67.31350517 -1.609375 62.01171875 C-1.61786469 60.42421562 -1.61786469 60.42421562 -1.62652588 58.80464172 C-1.64887652 55.43179674 -1.69907224 52.0600227 -1.75 48.6875 C-1.77006662 46.39780182 -1.7883171 44.10808696 -1.8046875 41.81835938 C-1.84873695 36.21187556 -1.91563646 30.6060143 -2 25 C-3.44475303 26.70220378 -4.8804864 28.41206507 -6.3125 30.125 C-7.51326172 31.55199219 -7.51326172 31.55199219 -8.73828125 33.0078125 C-10.92906109 35.9061499 -12.45216308 38.7252447 -14 42 C-15.16275508 43.63750443 -16.36975012 45.24477302 -17.625 46.8125 C-18.23601562 47.58207031 -18.84703125 48.35164063 -19.4765625 49.14453125 C-21 51 -21 51 -22 52 C-22.0318525 55.30355894 -21.93137077 58.59614271 -21.83984375 61.8984375 C-22 65 -22 65 -24 68 C-25.32 67.67 -26.64 67.34 -28 67 C-27.01 65.515 -27.01 65.515 -26 64 C-25.76006345 61.46413152 -25.62746781 59.02783969 -25.5859375 56.48828125 C-25.56657135 55.76005661 -25.5472052 55.03183197 -25.5272522 54.28153992 C-25.46753624 51.95864525 -25.42110383 49.63570081 -25.375 47.3125 C-25.33681279 45.73630668 -25.29776062 44.16013405 -25.2578125 42.58398438 C-25.16184152 38.72282465 -25.07778151 34.86156724 -25 31 C-25.74636719 31.65049316 -26.49273437 32.30098633 -27.26171875 32.97119141 C-30.820492 35.60790732 -33.75134151 35.52393821 -38 35.375 C-39.04800781 35.37306641 -39.04800781 35.37306641 -40.1171875 35.37109375 C-44.18075496 35.30208977 -47.34678408 34.76831196 -51 33 C-52.0725 32.525625 -53.145 32.05125 -54.25 31.5625 C-57 30 -57 30 -58 27 C-59.29355827 25.62804426 -60.62298702 24.28817344 -62 23 C-61.67 22.34 -61.34 21.68 -61 21 C-60.34 21.33 -59.68 21.66 -59 22 C-55.7 19.36 -52.4 16.72 -49 14 C-48.67 14.66 -48.34 15.32 -48 16 C-49 19 -49 19 -51 20 C-51 20.66 -51 21.32 -51 22 C-48.03 22.99 -45.06 23.98 -42 25 C-42 25.66 -42 26.32 -42 27 C-39.77149723 27.33774332 -37.54216533 27.6700187 -35.3125 28 C-34.07113281 28.185625 -32.82976562 28.37125 -31.55078125 28.5625 C-28.64113629 28.92100411 -25.92299978 29.08942256 -23 29 C-22.74089844 28.40703125 -22.48179687 27.8140625 -22.21484375 27.203125 C-18.21643285 19.95198755 -8.78083965 14.39498866 -2 10 C-1.34 10 -0.68 10 0 10 C0 6.7 0 3.4 0 0 Z " fill="#DAA82F" transform="translate(264,237)"/>
<path d="M0 0 C2.97 0 5.94 0 9 0 C9.32613281 0.78503906 9.65226562 1.57007813 9.98828125 2.37890625 C10.64376953 3.95478516 10.64376953 3.95478516 11.3125 5.5625 C11.76625 6.655625 12.22 7.74875 12.6875 8.875 C13.70024341 11.28629383 14.74287012 13.67640257 15.8125 16.0625 C17 19 17 19 17 22 C17.66 22 18.32 22 19 22 C19.18175781 21.33613281 19.36351563 20.67226563 19.55078125 19.98828125 C20.91033122 15.21242622 22.28208363 11.19012107 25 7 C26.06704961 4.69049537 27.03097728 2.35334089 28 0 C30.97 0 33.94 0 37 0 C37.02465098 4.96622349 37.04283649 9.93241166 37.05493164 14.89868164 C37.0599719 16.58944316 37.06680405 18.28020029 37.07543945 19.97094727 C37.08751857 22.39600707 37.09323123 24.82100944 37.09765625 27.24609375 C37.10281754 28.00651474 37.10797882 28.76693573 37.11329651 29.55039978 C37.11349238 31.3673257 37.06197277 33.18413127 37 35 C36.67 35.33 36.34 35.66 36 36 C34.02 36 32.04 36 30 36 C29.34 30.39 28.68 24.78 28 19 C27.21625 21.0625 26.4325 23.125 25.625 25.25 C24.22825139 28.92565423 22.84180245 32.52295239 21 36 C19.35 36 17.7 36 16 36 C15.20313394 34.46101439 14.41276859 32.91866216 13.625 31.375 C13.18414062 30.51648438 12.74328125 29.65796875 12.2890625 28.7734375 C10.9539032 25.90082204 9.94769469 23.02022327 9 20 C8.95101562 20.98742187 8.90203125 21.97484375 8.8515625 22.9921875 C8.77679688 24.27351563 8.70203125 25.55484375 8.625 26.875 C8.55539063 28.15117187 8.48578125 29.42734375 8.4140625 30.7421875 C8 34 8 34 6 36 C3.4375 36.1875 3.4375 36.1875 1 36 C0 35 0 35 -0.11352539 31.67358398 C-0.11336629 30.19774444 -0.10767314 28.72189931 -0.09765625 27.24609375 C-0.09553383 26.08292381 -0.09553383 26.08292381 -0.09336853 24.89625549 C-0.08775345 22.40996506 -0.07519846 19.9237634 -0.0625 17.4375 C-0.05748694 15.75586067 -0.0529237 14.07421994 -0.04882812 12.39257812 C-0.03777913 8.26168434 -0.02050445 4.13085724 0 0 Z " fill="#CCCDD0" transform="translate(70,351)"/>
<path d="M0 0 C0.99 0.66 1.98 1.32 3 2 C3.680625 1.484375 4.36125 0.96875 5.0625 0.4375 C8.87319838 -1.42730984 10.9412538 -1.05226753 15 0 C16.69262695 1.20825195 16.69262695 1.20825195 18 3 C18.34057617 5.54370117 18.34057617 5.54370117 18.29296875 8.54296875 C18.2784668 10.15268555 18.2784668 10.15268555 18.26367188 11.79492188 C18.23853516 12.91447266 18.21339844 14.03402344 18.1875 15.1875 C18.16719727 16.88422852 18.16719727 16.88422852 18.14648438 18.61523438 C18.11109958 21.41063317 18.06172948 24.20507892 18 27 C16.00045254 27.04254356 13.99958364 27.04080783 12 27 C11 26 11 26 10.88647461 24.14233398 C10.89171143 23.35157471 10.89694824 22.56081543 10.90234375 21.74609375 C10.90556641 20.89208984 10.90878906 20.03808594 10.91210938 19.15820312 C10.92048828 18.26037109 10.92886719 17.36253906 10.9375 16.4375 C10.94201172 15.53580078 10.94652344 14.63410156 10.95117188 13.70507812 C10.96299775 11.46998686 10.9794778 9.23502563 11 7 C9.33388095 6.957279 7.66617115 6.95936168 6 7 C4.48937307 8.51062693 4.80467543 9.89391289 4.71875 12 C4.68136719 12.804375 4.64398438 13.60875 4.60546875 14.4375 C4.57066406 15.283125 4.53585938 16.12875 4.5 17 C4.43139491 18.66684971 4.35869777 20.33353774 4.28125 22 C4.23581055 23.11375 4.23581055 23.11375 4.18945312 24.25 C4 26 4 26 3 27 C0.5 27.125 0.5 27.125 -2 27 C-3.51421001 25.48578999 -3.21309856 24.07527232 -3.31640625 21.96484375 C-3.37924805 20.75151367 -3.37924805 20.75151367 -3.44335938 19.51367188 C-3.48267578 18.66353516 -3.52199219 17.81339844 -3.5625 16.9375 C-3.60568359 16.08349609 -3.64886719 15.22949219 -3.69335938 14.34960938 C-3.79976702 12.23327963 -3.90041731 10.11666187 -4 8 C-6.97 7.505 -6.97 7.505 -10 7 C-9.98839844 8.27617187 -9.97679687 9.55234375 -9.96484375 10.8671875 C-9.95546583 12.53645687 -9.94636563 14.20572783 -9.9375 15.875 C-9.92912109 16.71675781 -9.92074219 17.55851562 -9.91210938 18.42578125 C-9.90888672 19.23144531 -9.90566406 20.03710938 -9.90234375 20.8671875 C-9.89710693 21.61081543 -9.89187012 22.35444336 -9.88647461 23.12060547 C-10 25 -10 25 -11 27 C-12.99954746 27.04254356 -15.00041636 27.04080783 -17 27 C-18 26 -18 26 -18.11352539 23.49975586 C-18.10828857 22.41573486 -18.10305176 21.33171387 -18.09765625 20.21484375 C-18.09443359 19.04501953 -18.09121094 17.87519531 -18.08789062 16.66992188 C-18.07951172 15.43822266 -18.07113281 14.20652344 -18.0625 12.9375 C-18.05798828 11.70193359 -18.05347656 10.46636719 -18.04882812 9.19335938 C-18.03699608 6.12885883 -18.02051173 3.06445279 -18 0 C-17.06027344 0.01740234 -17.06027344 0.01740234 -16.1015625 0.03515625 C-14.87566406 0.04869141 -14.87566406 0.04869141 -13.625 0.0625 C-12.40683594 0.07990234 -12.40683594 0.07990234 -11.1640625 0.09765625 C-1.70567895 -0.32916611 -1.70567895 -0.32916611 0 0 Z " fill="#D5D7D9" transform="translate(214,360)"/>
<path d="M0 0 C4.04458032 3.14578469 6.01349245 5.96881147 7 11 C6.98807802 17.05636338 5.5178487 21.39222813 1.25 25.8125 C-1.9177091 27.48434647 -4.47580352 27.26105159 -8 27 C-8.66 26.67 -9.32 26.34 -10 26 C-10.06058594 26.63808594 -10.12117187 27.27617187 -10.18359375 27.93359375 C-10.26738281 28.75988281 -10.35117188 29.58617187 -10.4375 30.4375 C-10.51871094 31.26121094 -10.59992188 32.08492188 -10.68359375 32.93359375 C-11 35 -11 35 -12 36 C-14.31 36 -16.62 36 -19 36 C-19 24.12 -19 12.24 -19 0 C-15.66666667 0 -12.33333333 0 -9 0 C-5.77509551 -1.61245225 -3.43772273 -0.81573082 0 0 Z M-9.7265625 7.21875 C-11.32558695 9.45542223 -11.40230462 10.76953801 -11.375 13.5 C-11.38273438 14.2734375 -11.39046875 15.046875 -11.3984375 15.84375 C-10.91103152 18.48147648 -10.11860688 19.39812651 -8 21 C-5.59571094 20.84973193 -4.26482603 20.17024531 -2.25 18.875 C-0.26479449 15.89719174 -0.63366852 13.48014908 -1 10 C-2.08786184 7.51864773 -2.08786184 7.51864773 -4 6 C-7.80758455 5.61554453 -7.80758455 5.61554453 -9.7265625 7.21875 Z " fill="#BFC1C5" transform="translate(255,360)"/>
<path d="M0 0 C2.91359447 2.00727803 4.84715454 4.03440369 6.80859375 6.9765625 C6.93359375 9.6640625 6.93359375 9.6640625 6.80859375 11.9765625 C3.49609375 12.2265625 3.49609375 12.2265625 -0.19140625 11.9765625 C-1.2116949 10.65868965 -2.21112009 9.32445597 -3.19140625 7.9765625 C-6.69813883 7.08393966 -9.10894371 6.60624637 -12.56640625 7.7890625 C-14.34228869 8.89641977 -14.34228869 8.89641977 -15.19140625 10.9765625 C-15.36510457 12.92995673 -15.45836727 14.89098954 -15.50390625 16.8515625 C-15.54128906 17.90085937 -15.57867187 18.95015625 -15.6171875 20.03125 C-15.09229332 23.66216935 -14.08498586 24.79204023 -11.19140625 26.9765625 C-7.63525408 27.34699502 -4.60120761 27.02573215 -1.19140625 25.9765625 C-0.86140625 24.6565625 -0.53140625 23.3365625 -0.19140625 21.9765625 C2.11859375 21.9765625 4.42859375 21.9765625 6.80859375 21.9765625 C6.53549439 25.89098663 6.05867162 27.6791726 3.49609375 30.7265625 C-1.07125691 34.55039096 -4.1482839 35.29548571 -9.99609375 35.1796875 C-12.66453583 34.93278539 -14.81455689 34.20332346 -17.19140625 32.9765625 C-17.19140625 32.3165625 -17.19140625 31.6565625 -17.19140625 30.9765625 C-18.08859375 30.6671875 -18.08859375 30.6671875 -19.00390625 30.3515625 C-22.2983897 28.28074433 -22.92986904 26.69809727 -24.19140625 22.9765625 C-24.80297009 17.24407256 -25.28271413 11.1988006 -22.62890625 5.9140625 C-16.96110588 -0.91636358 -8.48443323 -3.96242693 0 0 Z " fill="#D3D5D7" transform="translate(159.19140625,352.0234375)"/>
<path d="M0 0 C3.30619279 4.54103588 2.85842218 8.40190551 2.64453125 13.8671875 C2.62326172 15.32318359 2.62326172 15.32318359 2.6015625 16.80859375 C2.45206473 23.93465402 2.45206473 23.93465402 1.26953125 25.1171875 C-1.49596535 25.29819103 -4.21265076 25.39537571 -6.98046875 25.4296875 C-8.12708984 25.47319336 -8.12708984 25.47319336 -9.296875 25.51757812 C-13.22338765 25.56165815 -15.27843964 25.38405514 -18.734375 23.34375 C-20.73046875 21.1171875 -20.73046875 21.1171875 -21.41796875 17.1796875 C-21.17490073 13.65848592 -20.67859322 13.05623375 -18.23046875 10.1796875 C-14.58372196 7.57985367 -11.12953357 7.34472534 -6.73046875 7.1171875 C-6.73046875 6.4571875 -6.73046875 5.7971875 -6.73046875 5.1171875 C-9.14692657 4.95031302 -9.14692657 4.95031302 -11.73046875 5.1171875 C-12.39046875 5.7771875 -13.05046875 6.4371875 -13.73046875 7.1171875 C-17.35546875 6.7421875 -17.35546875 6.7421875 -20.73046875 6.1171875 C-19.46364323 2.21114213 -18.2976331 0.21551947 -14.73046875 -1.8828125 C-9.65191073 -4.05933737 -4.36419474 -3.00935889 0 0 Z M-13.73046875 15.1171875 C-13.40046875 16.4371875 -13.07046875 17.7571875 -12.73046875 19.1171875 C-10.31401093 19.28406198 -10.31401093 19.28406198 -7.73046875 19.1171875 C-7.07046875 18.4571875 -6.41046875 17.7971875 -5.73046875 17.1171875 C-6.04898645 15.00897953 -6.04898645 15.00897953 -6.73046875 13.1171875 C-9.83598541 13.1171875 -11.08307959 13.656559 -13.73046875 15.1171875 Z " fill="#D5D7D9" transform="translate(283.73046875,361.8828125)"/>
<path d="M0 0 C0 0.66 0 1.32 0 2 C0.99 2.33 1.98 2.66 3 3 C3.95278997 5.85836991 4.12871126 7.6664456 4.1328125 10.6328125 C4.13474609 11.96505859 4.13474609 11.96505859 4.13671875 13.32421875 C4.13285156 14.24847656 4.12898438 15.17273438 4.125 16.125 C4.13080078 17.52298828 4.13080078 17.52298828 4.13671875 18.94921875 C4.13542969 19.83480469 4.13414062 20.72039062 4.1328125 21.6328125 C4.13168457 22.44637207 4.13055664 23.25993164 4.12939453 24.09814453 C4 26 4 26 3 27 C0 27.125 0 27.125 -3 27 C-4.51421001 25.48578999 -4.21309856 24.07527232 -4.31640625 21.96484375 C-4.37924805 20.75151367 -4.37924805 20.75151367 -4.44335938 19.51367188 C-4.48267578 18.66353516 -4.52199219 17.81339844 -4.5625 16.9375 C-4.60568359 16.08349609 -4.64886719 15.22949219 -4.69335938 14.34960938 C-4.79976702 12.23327963 -4.90041731 10.11666187 -5 8 C-8.04913228 6.98888907 -8.04913228 6.98888907 -11 8 C-11.06058594 9.28777344 -11.12117188 10.57554687 -11.18359375 11.90234375 C-11.26798247 13.58074159 -11.3526313 15.25912636 -11.4375 16.9375 C-11.47681641 17.78763672 -11.51613281 18.63777344 -11.55664062 19.51367188 C-11.59853516 20.32255859 -11.64042969 21.13144531 -11.68359375 21.96484375 C-11.73858032 23.08814087 -11.73858032 23.08814087 -11.79467773 24.23413086 C-12 26 -12 26 -13 27 C-16 27.125 -16 27.125 -19 27 C-20 26 -20 26 -20.11352539 23.49975586 C-20.10828857 22.41573486 -20.10305176 21.33171387 -20.09765625 20.21484375 C-20.09443359 19.04501953 -20.09121094 17.87519531 -20.08789062 16.66992188 C-20.07951172 15.43822266 -20.07113281 14.20652344 -20.0625 12.9375 C-20.05798828 11.70193359 -20.05347656 10.46636719 -20.04882812 9.19335938 C-20.03699608 6.12885883 -20.02051173 3.06445279 -20 0 C-19.07767578 0.01740234 -19.07767578 0.01740234 -18.13671875 0.03515625 C-16.92435547 0.04869141 -16.92435547 0.04869141 -15.6875 0.0625 C-14.88699219 0.07410156 -14.08648437 0.08570313 -13.26171875 0.09765625 C-2.49035036 -0.36742874 -2.49035036 -0.36742874 0 0 Z " fill="#CFD0D3" transform="translate(309,360)"/>
<path d="M0 0 C2.64 0 5.28 0 8 0 C8.65043719 1.72744016 9.29514844 3.4570369 9.9375 5.1875 C10.29714844 6.15042969 10.65679687 7.11335938 11.02734375 8.10546875 C12 11 12 11 13 16 C14.65 10.72 16.3 5.44 18 0 C20.64 0 23.28 0 26 0 C24.55323529 8.10188237 21.73725737 15.53191827 18.72412109 23.15722656 C18.0974652 24.7519665 17.49384049 26.35572053 16.89453125 27.9609375 C14.69363785 33.51257881 14.69363785 33.51257881 11.6875 35.625 C8.27948464 36.10053703 5.36240853 35.65929579 2 35 C2.495 32.03 2.495 32.03 3 29 C4.65 29 6.3 29 8 29 C7.40939775 23.87038719 6.25360481 19.19846172 4.5625 14.3125 C4.34529297 13.66216797 4.12808594 13.01183594 3.90429688 12.34179688 C3.01436426 9.72010349 2.10126667 7.19810079 0.83984375 4.73046875 C0 3 0 3 0 0 Z " fill="#DBDCDF" transform="translate(108,360)"/>
<path d="M0 0 C2.64 0 5.28 0 8 0 C8.67413211 1.91405367 9.3390332 3.83136026 10 5.75 C10.37125 6.81734375 10.7425 7.8846875 11.125 8.984375 C12 12 12 12 12 16 C12.66 16 13.32 16 14 16 C14.12117188 15.43152344 14.24234375 14.86304688 14.3671875 14.27734375 C15.41322054 9.45754536 16.59204484 4.7267066 18 0 C20.64 0 23.28 0 26 0 C25.49862939 4.76302078 24.00085944 8.69684119 22.1796875 13.0703125 C20.34611333 17.62389073 18.76203258 22.26320576 17.1484375 26.8984375 C14.66709845 33.59974093 14.66709845 33.59974093 11.8125 35.3125 C8.28113274 36.17572311 5.539254 35.69397137 2 35 C2.495 32.03 2.495 32.03 3 29 C4.65 29 6.3 29 8 29 C6.89881066 20.63096102 4.07949644 12.85215837 0.76953125 5.12890625 C0 3 0 3 0 0 Z " fill="#D3D4D7" transform="translate(313,360)"/>
<path d="M0 0 C2.17971368 1.77625706 3.98166538 3.35004951 5.25 5.88671875 C5.37271508 8.02995181 5.42553395 10.17750877 5.4375 12.32421875 C5.45167969 13.47792969 5.46585938 14.63164062 5.48046875 15.8203125 C5.25 18.88671875 5.25 18.88671875 3.25 21.88671875 C2.59 21.88671875 1.93 21.88671875 1.25 21.88671875 C1.25 22.54671875 1.25 23.20671875 1.25 23.88671875 C-3.07651035 26.30878324 -6.87324462 26.84567737 -11.75 25.88671875 C-15.67500436 23.57832101 -18.30088018 21.23407822 -19.75 16.88671875 C-20.31497328 11.1826616 -20.01384401 6.78248477 -16.75 1.88671875 C-12.02152438 -2.53669393 -5.7425644 -3.65319387 0 0 Z M-9.75 4.88671875 C-12.393375 7.8946972 -12.76374808 9.48802439 -12.625 13.51171875 C-11.9593319 16.77445225 -11.9593319 16.77445225 -10.5 18.88671875 C-8.71511523 20.09861142 -8.71511523 20.09861142 -6.1875 19.88671875 C-3.59827084 19.09526855 -3.59827084 19.09526855 -2.375 16.76171875 C-1.5862169 13.13331647 -1.86784051 10.48321514 -2.75 6.88671875 C-5.70377498 4.51691862 -5.70377498 4.51691862 -9.75 4.88671875 Z " fill="#DADCDE" transform="translate(187.75,361.11328125)"/>
<path d="M0 0 C1.640625 1.109375 1.640625 1.109375 4.078125 4.234375 C4.9585336 9.21542547 4.90908416 12.98793625 2.078125 17.234375 C1.418125 17.234375 0.758125 17.234375 0.078125 17.234375 C0.078125 17.894375 0.078125 18.554375 0.078125 19.234375 C-4.48785829 20.75636943 -8.32080214 20.98154234 -12.734375 18.921875 C-15.25760977 16.97537961 -16.75704049 15.37751305 -17.22265625 12.1484375 C-17.24704556 7.38439173 -17.13410986 4.04146817 -13.921875 0.234375 C-9.33015911 -1.29619696 -4.59451532 -1.83033537 0 0 Z " fill="#4CA2F5" transform="translate(192.921875,308.765625)"/>
<path d="M0 0 C0.33 0.66 0.66 1.32 1 2 C0 5 0 5 -2 6 C-2 6.66 -2 7.32 -2 8 C0.97 8.99 3.94 9.98 7 11 C7 11.66 7 12.32 7 13 C9.22850277 13.33774332 11.45783467 13.6700187 13.6875 14 C14.92886719 14.185625 16.17023438 14.37125 17.44921875 14.5625 C20.35886371 14.92100411 23.07700022 15.08942256 26 15 C26.10611887 26.05994427 26.00708069 36.9760632 25 48 C24.67 48 24.34 48 24 48 C24 37.77 24 27.54 24 17 C22.35 18.32 20.7 19.64 19 21 C16.17454287 21.3416024 13.80280242 21.47325322 11 21.375 C9.95199219 21.37306641 9.95199219 21.37306641 8.8828125 21.37109375 C4.81924504 21.30208977 1.65321592 20.76831196 -2 19 C-3.0725 18.525625 -4.145 18.05125 -5.25 17.5625 C-8 16 -8 16 -9 13 C-10.29355827 11.62804426 -11.62298702 10.28817344 -13 9 C-12.67 8.34 -12.34 7.68 -12 7 C-11.34 7.33 -10.68 7.66 -10 8 C-6.7 5.36 -3.4 2.72 0 0 Z " fill="#DDB033" transform="translate(215,251)"/>
<path d="M0 0 C2.97 0 5.94 0 9 0 C11.10814567 4.21629134 11.17700355 6.39790775 11 11 C10.01 11.33 9.02 11.66 8 12 C7.97494385 12.69150146 7.9498877 13.38300293 7.92407227 14.09545898 C7.80847839 17.20967866 7.68558758 20.32356789 7.5625 23.4375 C7.52318359 24.52611328 7.48386719 25.61472656 7.44335938 26.73632812 C7.40146484 27.77080078 7.35957031 28.80527344 7.31640625 29.87109375 C7.27974854 30.82943115 7.24309082 31.78776855 7.20532227 32.77514648 C7 35 7 35 6 36 C3.5 36.125 3.5 36.125 1 36 C0 35 0 35 -0.11352539 31.67358398 C-0.11336629 30.19774444 -0.10767314 28.72189931 -0.09765625 27.24609375 C-0.09553383 26.08292381 -0.09553383 26.08292381 -0.09336853 24.89625549 C-0.08775345 22.40996506 -0.07519846 19.9237634 -0.0625 17.4375 C-0.05748694 15.75586067 -0.0529237 14.07421994 -0.04882812 12.39257812 C-0.03777913 8.26168434 -0.02050445 4.13085724 0 0 Z " fill="#DDDEE0" transform="translate(70,351)"/>
<path d="M0 0 C2.1640625 -0.29296875 2.1640625 -0.29296875 4.625 -0.1875 C5.44226563 -0.16042969 6.25953125 -0.13335937 7.1015625 -0.10546875 C8.04128906 -0.05326172 8.04128906 -0.05326172 9 0 C9.02465098 4.96622349 9.04283649 9.93241166 9.05493164 14.89868164 C9.0599719 16.58944316 9.06680405 18.28020029 9.07543945 19.97094727 C9.08751857 22.39600707 9.09323123 24.82100944 9.09765625 27.24609375 C9.10281754 28.00651474 9.10797882 28.76693573 9.11329651 29.55039978 C9.11349238 31.3673257 9.06197277 33.18413127 9 35 C8 36 8 36 4.9375 36.0625 C3.968125 36.041875 2.99875 36.02125 2 36 C0.74831081 24.61925676 0.74831081 24.61925676 1.6875 19.125 C2.3567475 14.59533705 0.68823084 12.66576933 -2 9 C-2.48991613 4.83571287 -2.35620437 3.53430656 0 0 Z " fill="#DEDFE1" transform="translate(98,351)"/>
<path d="M0 0 C2 1 2 1 2.74609375 2.77734375 C3.20603348 4.21433058 3.66437437 5.65183015 4.12109375 7.08984375 C4.95959902 9.35151853 4.95959902 9.35151853 8 11 C11.5382677 11.22584687 14.60907078 11.04336284 18 10 C18.33 8.68 18.66 7.36 19 6 C21.31 6 23.62 6 26 6 C25.72690064 9.91442413 25.25007787 11.7026101 22.6875 14.75 C18.12014934 18.57382846 15.04312235 19.31892321 9.1953125 19.203125 C6.52687042 18.95622289 4.37684936 18.22676096 2 17 C2 16.34 2 15.68 2 15 C1.38125 14.7525 0.7625 14.505 0.125 14.25 C-2.46275992 12.72778828 -3.05592658 11.83222025 -4 9 C-4.125 5.75 -4.125 5.75 -4 3 C-3.34 3 -2.68 3 -2 3 C-1.34 2.01 -0.68 1.02 0 0 Z " fill="#D9DBDF" transform="translate(140,368)"/>
<path d="M0 0 C1.98 0 3.96 0 6 0 C8.43396046 3.72252776 8.19779105 7.34488314 8.0625 11.625 C7.73803683 16.45370356 7.73803683 16.45370356 9 21 C8.67 21.66 8.34 22.32 8 23 C7.34 23 6.68 23 6 23 C6 26.63 6 30.26 6 34 C4.02 34 2.04 34 0 34 C0 22.78 0 11.56 0 0 Z " fill="#F5F6F7" transform="translate(237,361)"/>
<path d="M0 0 C2.31 0 4.62 0 7 0 C7.83088343 3.55013829 8.07031086 6.66409367 7.87890625 10.30078125 C7.83056641 11.27724609 7.78222656 12.25371094 7.73242188 13.25976562 C7.67634766 14.26716797 7.62027344 15.27457031 7.5625 16.3125 C7.51029297 17.33923828 7.45808594 18.36597656 7.40429688 19.42382812 C7.27507334 21.94956087 7.14012709 24.47485261 7 27 C5.00045254 27.04254356 2.99958364 27.04080783 1 27 C0 26 0 26 -0.11352539 23.49975586 C-0.10828857 22.41573486 -0.10305176 21.33171387 -0.09765625 20.21484375 C-0.09443359 19.04501953 -0.09121094 17.87519531 -0.08789062 16.66992188 C-0.07951172 15.43822266 -0.07113281 14.20652344 -0.0625 12.9375 C-0.05798828 11.70193359 -0.05347656 10.46636719 -0.04882812 9.19335938 C-0.03699608 6.12885883 -0.02051173 3.06445279 0 0 Z M8 2 C8.66 2.66 9.32 3.32 10 4 C9.34 4 8.68 4 8 4 C8 3.34 8 2.68 8 2 Z " fill="#E8EAEB" transform="translate(196,360)"/>
<path d="M0 0 C0.33 0 0.66 0 1 0 C1.09291788 9.11901578 1.16387492 18.23786713 1.20724869 27.35725403 C1.22807209 31.59234407 1.25629279 35.82710884 1.30175781 40.06201172 C1.34540424 44.15339326 1.36917653 48.24446307 1.37950897 52.33605957 C1.3868668 53.89250593 1.40123476 55.44893635 1.42292023 57.00524902 C1.55232479 66.68224447 1.52051589 73.97720456 -5.25 81.5 C-5.8275 81.995 -6.405 82.49 -7 83 C-6.62714094 79.73748325 -6.19043183 78.21643975 -3.98625183 75.71122742 C-1.60014307 72.45419656 -1.49171718 70.80378071 -1.4699707 66.80786133 C-1.45347977 65.57920853 -1.43698883 64.35055573 -1.41999817 63.08467102 C-1.4216539 61.7504574 -1.42358865 60.4162441 -1.42578125 59.08203125 C-1.41331967 57.70064028 -1.39898091 56.31926508 -1.38285828 54.93791199 C-1.34486985 51.30362697 -1.32965901 47.6696137 -1.32006836 44.03515625 C-1.30032557 38.23714553 -1.24295957 32.43934144 -1.19130516 26.64154625 C-1.17615101 24.63108661 -1.16954965 22.62056825 -1.16316223 20.61006165 C-1.12398235 13.67903717 -0.87308993 6.87911632 0 0 Z " fill="#AF8F48" transform="translate(264,237)"/>
<path d="M0 0 C0.66 0.33 1.32 0.66 2 1 C2 21.79 2 42.58 2 64 C-2.99875355 63.16687441 -5.71772212 62.34505694 -10 60 C-7.00645224 59.22389502 -4.04275136 58.60855027 -1 58 C-0.67 38.86 -0.34 19.72 0 0 Z " fill="#337DC7" transform="translate(168,265)"/>
<path d="M0 0 C1.21236328 0.01353516 1.21236328 0.01353516 2.44921875 0.02734375 C3.37154297 0.04474609 3.37154297 0.04474609 4.3125 0.0625 C4.3125 0.3925 4.3125 0.7225 4.3125 1.0625 C3.095625 1.10375 1.87875 1.145 0.625 1.1875 C-2.72143185 1.60283729 -4.39771098 2.25766848 -6.625 4.8125 C-8.50448121 7.77410675 -9.38335186 9.61548777 -9.6875 13.0625 C-8.6975 13.3925 -7.7075 13.7225 -6.6875 14.0625 C-5.66730427 15.0418879 -4.66600195 16.04145449 -3.6875 17.0625 C-3.0275 17.3925 -2.3675 17.7225 -1.6875 18.0625 C-1.6875 16.7425 -1.6875 15.4225 -1.6875 14.0625 C2.34121475 13.02654478 3.96305731 13.19261146 8.3125 14.0625 C7.9825 10.4325 7.6525 6.8025 7.3125 3.0625 C8.3025 3.7225 9.2925 4.3825 10.3125 5.0625 C10.67578125 7.33984375 10.67578125 7.33984375 10.625 10 C10.62113281 10.87527344 10.61726563 11.75054687 10.61328125 12.65234375 C10.3125 15.0625 10.3125 15.0625 8.3125 18.0625 C7.6525 18.0625 6.9925 18.0625 6.3125 18.0625 C6.3125 18.7225 6.3125 19.3825 6.3125 20.0625 C1.74651671 21.58449443 -2.08642714 21.80966734 -6.5 19.75 C-9.02323477 17.80350461 -10.52266549 16.20563805 -10.98828125 12.9765625 C-11.01267056 8.21251673 -10.89973486 4.86959317 -7.6875 1.0625 C-4.80538698 0.10179566 -2.98899956 -0.04331883 0 0 Z " fill="#2986ED" transform="translate(186.6875,307.9375)"/>
<path d="M0 0 C2.64 0 5.28 0 8 0 C10.37688265 6.27681633 12.51708173 12.45044429 14 19 C13.34 19 12.68 19 12 19 C11.67 18.34 11.34 17.68 11 17 C9.68 18.65 8.36 20.3 7 22 C6.66226563 20.96359375 6.32453125 19.9271875 5.9765625 18.859375 C5.52620263 17.4895304 5.07567286 16.11974166 4.625 14.75 C4.40328125 14.06808594 4.1815625 13.38617188 3.953125 12.68359375 C3.04680553 9.9379789 2.14470913 7.28553345 0.8359375 4.703125 C0 3 0 3 0 0 Z " fill="#D7D9DD" transform="translate(108,360)"/>
<path d="M0 0 C0 0.99 0 1.98 0 3 C-2.0026823 4.83331599 -3.95931103 6.4452953 -6.125 8.0625 C-6.69476563 8.50916016 -7.26453125 8.95582031 -7.8515625 9.41601562 C-11.42007059 12.1288928 -14.60957439 13.81898886 -19 15 C-17.25 11.125 -17.25 11.125 -15 10 C-14.27840576 8.35636866 -13.60648579 6.68949614 -13 5 C-13.66 5 -14.32 5 -15 5 C-15.33 4.01 -15.66 3.02 -16 2 C-13.70858188 1.66496236 -11.41685737 1.33201958 -9.125 1 C-7.21074219 0.7215625 -7.21074219 0.7215625 -5.2578125 0.4375 C-2 0 -2 0 0 0 Z " fill="#59A2E9" transform="translate(232,271)"/>
<path d="M0 0 C4 1 4 1 7 3 C7 3.99 7 4.98 7 6 C6.34 6 5.68 6 5 6 C5 5.34 5 4.68 5 4 C4.01 4.495 4.01 4.495 3 5 C1.89953349 11.17930369 1.79459875 17.36136151 1.68359375 23.625 C1.66281265 24.61250244 1.64203156 25.60000488 1.62062073 26.61743164 C1.55569247 29.74488961 1.4965063 32.87242527 1.4375 36 C1.39426072 38.13151817 1.35064478 40.26302873 1.30664062 42.39453125 C1.20006997 47.59627412 1.0982026 52.79809277 1 58 C0.67 58 0.34 58 0 58 C0 38.86 0 19.72 0 0 Z " fill="#589CE2" transform="translate(145,247)"/>
<path d="M0 0 C1.125 6.75 1.125 6.75 0 9 C-3.3 9 -6.6 9 -10 9 C-10 10.32 -10 11.64 -10 13 C-12.475 12.01 -12.475 12.01 -15 11 C-15 10.01 -15 9.02 -15 8 C-13.96875 7.608125 -12.9375 7.21625 -11.875 6.8125 C-9.08677995 5.6361313 -6.97029911 4.29656244 -4.6875 2.3125 C-2 0 -2 0 0 0 Z " fill="#1F87F3" transform="translate(195,313)"/>
<path d="M0 0 C0 0.33 0 0.66 0 1 C-1.65 1.33 -3.3 1.66 -5 2 C-5.061875 2.598125 -5.12375 3.19625 -5.1875 3.8125 C-6 6 -6 6 -8.125 7.8125 C-11.79439779 9.32812083 -14.17481546 8.8250398 -18 8 C-16.73317448 4.09395463 -15.56716435 2.09833197 -12 0 C-8.07703375 -1.68127125 -4.09178643 -0.61376796 0 0 Z " fill="#CACDD0" transform="translate(281,360)"/>
<path d="M0 0 C4.37934119 0.51958285 8.68803391 1.05675742 13 2 C13.33 3.32 13.66 4.64 14 6 C16.97 6 19.94 6 23 6 C23 6.66 23 7.32 23 8 C23.66 8.33 24.32 8.66 25 9 C14.76708291 9.42637155 7.75328493 8.07281045 0 1 C0 0.67 0 0.34 0 0 Z " fill="#4E8ECD" transform="translate(184,278)"/>
<path d="M0 0 C1.70586144 0.96642554 3.35844975 2.02562343 5 3.09765625 C5 3.42765625 5 3.75765625 5 4.09765625 C3.35 4.09765625 1.7 4.09765625 0 4.09765625 C-0.33 3.10765625 -0.66 2.11765625 -1 1.09765625 C-5.17521597 0.65840824 -5.17521597 0.65840824 -8.6875 2.53515625 C-9.3371875 3.30859375 -9.3371875 3.30859375 -10 4.09765625 C-10.99 4.42765625 -11.98 4.75765625 -13 5.09765625 C-16.10772305 9.02801188 -17.5250019 12.11017623 -18 17.09765625 C-18.33 17.09765625 -18.66 17.09765625 -19 17.09765625 C-19.3743038 12.41885876 -19.44402217 9.01985614 -17.375 4.72265625 C-12.75259928 -0.38631297 -6.68248347 -3.0149486 0 0 Z " fill="#72A0D5" transform="translate(164,227.90234375)"/>
<path d="M0 0 C1.21236328 0.01353516 1.21236328 0.01353516 2.44921875 0.02734375 C3.37154297 0.04474609 3.37154297 0.04474609 4.3125 0.0625 C4.3125 0.3925 4.3125 0.7225 4.3125 1.0625 C3.095625 1.10375 1.87875 1.145 0.625 1.1875 C-2.72143185 1.60283729 -4.39771098 2.25766848 -6.625 4.8125 C-8.50448121 7.77410675 -9.38335186 9.61548777 -9.6875 13.0625 C-8.6975 13.3925 -7.7075 13.7225 -6.6875 14.0625 C-6.44 14.701875 -6.1925 15.34125 -5.9375 16 C-4.73626124 18.47800456 -4.73626124 18.47800456 -1.0625 19.3125 C0.05125 19.56 1.165 19.8075 2.3125 20.0625 C2.3125 19.4025 2.3125 18.7425 2.3125 18.0625 C3.6325 18.0625 4.9525 18.0625 6.3125 18.0625 C6.3125 18.7225 6.3125 19.3825 6.3125 20.0625 C1.74651671 21.58449443 -2.08642714 21.80966734 -6.5 19.75 C-9.02323477 17.80350461 -10.52266549 16.20563805 -10.98828125 12.9765625 C-11.01267056 8.21251673 -10.89973486 4.86959317 -7.6875 1.0625 C-4.80538698 0.10179566 -2.98899956 -0.04331883 0 0 Z " fill="#2B64A9" transform="translate(186.6875,307.9375)"/>
<path d="M0 0 C1.65 0 3.3 0 5 0 C5.10611887 11.05994427 5.00708069 21.9760632 4 33 C3.67 33 3.34 33 3 33 C3 22.77 3 12.54 3 2 C1.02 3.32 -0.96 4.64 -3 6 C-3 4.68 -3 3.36 -3 2 C-2.01 2 -1.02 2 0 2 C0 1.34 0 0.68 0 0 Z " fill="#7F6A3B" transform="translate(236,266)"/>
<path d="M0 0 C1.83863505 1.11631414 3.67079723 2.24329627 5.5 3.375 C6.5209375 4.00148437 7.541875 4.62796875 8.59375 5.2734375 C9.3878125 5.84320313 10.181875 6.41296875 11 7 C11 7.66 11 8.32 11 9 C12.32 9.66 13.64 10.32 15 11 C15 11.99 15 12.98 15 14 C13.35 14 11.7 14 10 14 C10 12.35 10 10.7 10 9 C7.36 9 4.72 9 2 9 C2 7.68 2 6.36 2 5 C1.34 4.67 0.68 4.34 0 4 C0 2.68 0 1.36 0 0 Z " fill="#669CD0" transform="translate(184,244)"/>
<path d="M0 0 C4.99852094 1.19012403 6.99830301 4.05491253 10 8 C9.67 8.66 9.34 9.32 9 10 C6.525 9.505 6.525 9.505 4 9 C4 9.66 4 10.32 4 11 C3.34 10.67 2.68 10.34 2 10 C2.185625 9.236875 2.37125 8.47375 2.5625 7.6875 C3.22819173 4.91032625 3.22819173 4.91032625 2 2 C-1.96 2 -5.92 2 -10 2 C-6.28424249 -0.47717167 -4.40013262 -0.30345742 0 0 Z " fill="#BCA74F" transform="translate(254,227)"/>
<path d="M0 0 C0.66 0.33 1.32 0.66 2 1 C1.484375 1.556875 0.96875 2.11375 0.4375 2.6875 C-1.18030097 4.89356521 -1.18030097 4.89356521 -1.1875 7.4375 C0.67325849 11.45282096 4.19710388 12.96428112 8 15 C6.1640625 15.5859375 6.1640625 15.5859375 4 16 C1.375 14.625 1.375 14.625 -1 13 C-1.66 12.67 -2.32 12.34 -3 12 C-3.33 11.01 -3.66 10.02 -4 9 C-5.29355827 7.62804426 -6.62298702 6.28817344 -8 5 C-7.67 4.34 -7.34 3.68 -7 3 C-6.34 3.33 -5.68 3.66 -5 4 C-3.35 2.68 -1.7 1.36 0 0 Z " fill="#858067" transform="translate(210,255)"/>
<path d="M0 0 C2.45823172 3.68734758 3.01242616 6.69699971 4 11 C3.34 11 2.68 11 2 11 C1.67 10.34 1.34 9.68 1 9 C-0.32 10.65 -1.64 12.3 -3 14 C-3.66 11.36 -4.32 8.72 -5 6 C-4.360625 5.566875 -3.72125 5.13375 -3.0625 4.6875 C-0.73253997 3.08760823 -0.73253997 3.08760823 0 0 Z " fill="#C3C6C9" transform="translate(118,368)"/>
<path d="M0 0 C0.99 0.66 1.98 1.32 3 2 C-1.75 5 -1.75 5 -4 5 C-4.2475 5.60199219 -4.495 6.20398438 -4.75 6.82421875 C-6.20336161 9.35397631 -7.52445559 10.30624044 -10 11.8125 C-10.70125 12.25207031 -11.4025 12.69164062 -12.125 13.14453125 C-12.74375 13.42683594 -13.3625 13.70914063 -14 14 C-14.66 13.67 -15.32 13.34 -16 13 C-10.87008301 8.31211667 -5.74728311 3.91304382 0 0 Z " fill="#BCA858" transform="translate(243,229)"/>
<path d="M0 0 C0.33 0.66 0.66 1.32 1 2 C0 5 0 5 -2 6 C-1.79375 6.556875 -1.5875 7.11375 -1.375 7.6875 C-0.89304789 10.659538 -1.73434972 12.31979941 -3 15 C-4.32 14.34 -5.64 13.68 -7 13 C-6.70876501 7.02968261 -3.97185616 4.105466 0 0 Z " fill="#CEA847" transform="translate(215,251)"/>
<path d="M0 0 C4 1 4 1 7 3 C7 3.99 7 4.98 7 6 C6.34 6 5.68 6 5 6 C5 5.34 5 4.68 5 4 C4.01 4.495 4.01 4.495 3 5 C2.53476937 6.89533342 2.53476937 6.89533342 2.375 9.0625 C2.25125 10.361875 2.1275 11.66125 2 13 C1.34 12.67 0.68 12.34 0 12 C0 8.04 0 4.08 0 0 Z " fill="#4E93DE" transform="translate(145,247)"/>
<path d="M0 0 C0.66 0 1.32 0 2 0 C3.125 6.75 3.125 6.75 2 9 C0.35 9 -1.3 9 -3 9 C-2.01 8.67 -1.02 8.34 0 8 C0 7.34 0 6.68 0 6 C-1.98 6 -3.96 6 -6 6 C-4 4 -2 2 0 0 Z " fill="#2D89EF" transform="translate(193,313)"/>
<path d="M0 0 C0.33 1.65 0.66 3.3 1 5 C4.63 5.66 8.26 6.32 12 7 C12 7.33 12 7.66 12 8 C10.04233719 8.08082094 8.08373272 8.13910778 6.125 8.1875 C4.48917969 8.23970703 4.48917969 8.23970703 2.8203125 8.29296875 C1.88960937 8.19628906 0.95890625 8.09960938 0 8 C-0.66 7.01 -1.32 6.02 -2 5 C-4.05003955 3.80767387 -4.05003955 3.80767387 -6 3 C-2.25 0 -2.25 0 0 0 Z " fill="#CCAE4A" transform="translate(218,264)"/>
<path d="M0 0 C-0.33 1.65 -0.66 3.3 -1 5 C-0.01 5.33 0.98 5.66 2 6 C2 6.99 2 7.98 2 9 C1.34 9 0.68 9 0 9 C0 8.34 0 7.68 0 7 C-0.5775 6.7525 -1.155 6.505 -1.75 6.25 C-4.3002997 4.83316683 -6.01785701 3.12372463 -8 1 C-5.07175348 0.02391783 -3.04386724 -0.08226668 0 0 Z " fill="#C7953F" transform="translate(228,310)"/>
<path d="M0 0 C0.66 0.33 1.32 0.66 2 1 C2 1.66 2 2.32 2 3 C2.66 3.66 3.32 4.32 4 5 C3.01 5.33 2.02 5.66 1 6 C1 5.34 1 4.68 1 4 C0.34 4 -0.32 4 -1 4 C-1 4.99 -1 5.98 -1 7 C-3.31 7.33 -5.62 7.66 -8 8 C-5.33333333 5.33333333 -2.66666667 2.66666667 0 0 Z " fill="#C3A84C" transform="translate(225,243)"/>
<path d="M0 0 C0.94875 0.04125 1.8975 0.0825 2.875 0.125 C2.8125 1.9375 2.8125 1.9375 1.875 4.125 C-1.6875 5.875 -1.6875 5.875 -5.125 7.125 C-5.25 4.75 -5.25 4.75 -5.125 2.125 C-3.125 0.125 -3.125 0.125 0 0 Z " fill="#EFF1F4" transform="translate(335.125,360.875)"/>
<path d="M0 0 C0.33 0 0.66 0 1 0 C1.22162857 2.77035709 1.42779249 5.54038995 1.625 8.3125 C1.68945312 9.09818359 1.75390625 9.88386719 1.8203125 10.69335938 C1.871875 11.45068359 1.9234375 12.20800781 1.9765625 12.98828125 C2.02893066 13.68477783 2.08129883 14.38127441 2.13525391 15.09887695 C2 17 2 17 0 20 C-1.32 19.67 -2.64 19.34 -4 19 C-3.51917969 18.32582031 -3.03835937 17.65164063 -2.54296875 16.95703125 C-0.68179418 13.39017265 -0.49954907 10.69035008 -0.3125 6.6875 C-0.24675781 5.43324219 -0.18101562 4.17898438 -0.11328125 2.88671875 C-0.05720703 1.45779297 -0.05720703 1.45779297 0 0 Z " fill="#D5A749" transform="translate(240,285)"/>
<path d="M0 0 C4.37934119 0.51958285 8.68803391 1.05675742 13 2 C13.33 2.99 13.66 3.98 14 5 C12.2282281 4.93983797 10.45741321 4.85100672 8.6875 4.75 C7.70136719 4.70359375 6.71523437 4.6571875 5.69921875 4.609375 C3 4 3 4 1.14453125 1.953125 C0.76683594 1.30859375 0.38914063 0.6640625 0 0 Z " fill="#5697DB" transform="translate(184,278)"/>
<path d="M0 0 C1.65 0 3.3 0 5 0 C1.89973691 3.27742098 -0.97098894 5.93104837 -5 8 C-5.66 8 -6.32 8 -7 8 C-6.3125 6.0625 -6.3125 6.0625 -5 4 C-2.375 3.25 -2.375 3.25 0 3 C0 2.01 0 1.02 0 0 Z " fill="#5084C0" transform="translate(220,278)"/>
<path d="M0 0 C1.66611905 -0.042721 3.33382885 -0.04063832 5 0 C6 1 6 1 6.09765625 3.28515625 C6.08605469 4.20167969 6.07445312 5.11820313 6.0625 6.0625 C6.05347656 6.98160156 6.04445313 7.90070313 6.03515625 8.84765625 C6.02355469 9.55792969 6.01195312 10.26820313 6 11 C5.34 10.67 4.68 10.34 4 10 C4 7.69 4 5.38 4 3 C3.01 3.33 2.02 3.66 1 4 C0.67 2.68 0.34 1.36 0 0 Z " fill="#F6D459" transform="translate(258,236)"/>
<path d="M0 0 C0.99 0.66 1.98 1.32 3 2 C3 2.66 3 3.32 3 4 C3.66 4 4.32 4 5 4 C5.66 5.98 6.32 7.96 7 10 C6.01 9.67 5.02 9.34 4 9 C4 8.34 4 7.68 4 7 C3.4225 6.7525 2.845 6.505 2.25 6.25 C-0.3002997 4.83316683 -2.01785701 3.12372463 -4 1 C-2.68 1.33 -1.36 1.66 0 2 C0 1.34 0 0.68 0 0 Z " fill="#5089C1" transform="translate(177,268)"/>
<path d="M0 0 C0.99 0 1.98 0 3 0 C3 1.65 3 3.3 3 5 C2.01 5.33 1.02 5.66 0 6 C0 6.99 0 7.98 0 9 C-1.32 8.67 -2.64 8.34 -4 8 C-3.67 7.01 -3.34 6.02 -3 5 C-2.34 5 -1.68 5 -1 5 C-0.67 3.35 -0.34 1.7 0 0 Z " fill="#F3C84D" transform="translate(216,251)"/>
<path d="M0 0 C2 1 2 1 3 3 C-0.06533164 4.53266582 -3.26754272 4.10276471 -6.625 4.0625 C-7.33140625 4.05798828 -8.0378125 4.05347656 -8.765625 4.04882812 C-10.51045275 4.03703875 -12.255237 4.01910324 -14 4 C-14.33 4.66 -14.66 5.32 -15 6 C-15 5.01 -15 4.02 -15 3 C-14.25234375 2.95101563 -13.5046875 2.90203125 -12.734375 2.8515625 C-11.74953125 2.77679688 -10.7646875 2.70203125 -9.75 2.625 C-8.28820312 2.52058594 -8.28820312 2.52058594 -6.796875 2.4140625 C-4.08763686 2.01297417 -2.40413024 1.22334061 0 0 Z " fill="#AD8A43" transform="translate(234,305)"/>
<path d="M0 0 C0 0.99 0 1.98 0 3 C-4.25566547 4.16063604 -7.6835078 3.76173392 -12 3 C-12 2.34 -12 1.68 -12 1 C-10.37512529 0.83211627 -8.75009558 0.66573213 -7.125 0.5 C-6.22007812 0.4071875 -5.31515625 0.314375 -4.3828125 0.21875 C-2 0 -2 0 0 0 Z " fill="#85A1A0" transform="translate(232,271)"/>
<path d="M0 0 C1.33617352 0.97528737 2.6688751 1.95533319 4 2.9375 C4.7425 3.48277344 5.485 4.02804688 6.25 4.58984375 C6.8275 5.05519531 7.405 5.52054688 8 6 C8 6.33 8 6.66 8 7 C5.69 7.33 3.38 7.66 1 8 C-0.35439668 5.29120665 -0.06501451 2.99066732 0 0 Z " fill="#649FD1" transform="translate(176,237)"/>
<path d="M0 0 C1.485 0.99 1.485 0.99 3 2 C3.36328125 4.27734375 3.36328125 4.27734375 3.3125 6.9375 C3.30863281 7.81277344 3.30476562 8.68804687 3.30078125 9.58984375 C3 12 3 12 1 15 C0.34 15 -0.32 15 -1 15 C-0.855625 14.46375 -0.71125 13.9275 -0.5625 13.375 C0.57010611 8.59288532 1.27649211 4.82230351 0 0 Z " fill="#32619E" transform="translate(194,311)"/>
<path d="M0 0 C2.73704754 2.73704754 3.16182449 5.26044774 4 9 C3.55078125 11.2265625 3.55078125 11.2265625 3 13 C-1.07877462 5.9452954 -1.07877462 5.9452954 -0.75 2 C-0.5025 1.34 -0.255 0.68 0 0 Z " fill="#3A76BC" transform="translate(146,304)"/>
<path d="M0 0 C2.86867231 1.38264837 5.56024032 2.92148553 8.25 4.625 C8.95640625 5.07101562 9.6628125 5.51703125 10.390625 5.9765625 C10.92171875 6.31429688 11.4528125 6.65203125 12 7 C10.1640625 7.5859375 10.1640625 7.5859375 8 8 C5.375 6.625 5.375 6.625 3 5 C2.34 4.67 1.68 4.34 1 4 C0.375 1.9375 0.375 1.9375 0 0 Z " fill="#98AC9C" transform="translate(206,263)"/>
<path d="M0 0 C0.33 0.99 0.66 1.98 1 3 C-0.21484375 5.26171875 -0.21484375 5.26171875 -1.9375 7.6875 C-2.50339844 8.49574219 -3.06929688 9.30398438 -3.65234375 10.13671875 C-4.09707031 10.75160156 -4.54179687 11.36648438 -5 12 C-5.68359375 10.265625 -5.68359375 10.265625 -6 8 C-4.78515625 5.859375 -4.78515625 5.859375 -3.0625 3.75 C-2.49660156 3.04359375 -1.93070312 2.3371875 -1.34765625 1.609375 C-0.90292969 1.07828125 -0.45820313 0.5471875 0 0 Z " fill="#AD8C43" transform="translate(263,308)"/>
<path d="M0 0 C1.5625 1.8125 1.5625 1.8125 3 4 C2.67 4.99 2.34 5.98 2 7 C1.01 7 0.02 7 -1 7 C-1 5.68 -1 4.36 -1 3 C-2.65 3 -4.3 3 -6 3 C-6 2.67 -6 2.34 -6 2 C-4.02 1.34 -2.04 0.68 0 0 Z " fill="#BAC0C2" transform="translate(277,379)"/>
<path d="M0 0 C2.31 0.66 4.62 1.32 7 2 C6.67 2.66 6.34 3.32 6 4 C3.6859378 4.73075648 1.35171131 5.40138258 -1 6 C-1.33 5.34 -1.66 4.68 -2 4 C-1.0625 1.875 -1.0625 1.875 0 0 Z " fill="#3A99FB" transform="translate(180,316)"/>
<path d="M0 0 C0.79921875 0.01804687 1.5984375 0.03609375 2.421875 0.0546875 C3.02515625 0.07789063 3.6284375 0.10109375 4.25 0.125 C4.25 0.455 4.25 0.785 4.25 1.125 C3.0125 1.2075 1.775 1.29 0.5 1.375 C-2.73882964 1.75975459 -3.62907883 2.02524003 -6.25 4.1875 C-6.9925 5.1465625 -6.9925 5.1465625 -7.75 6.125 C-8.08 4.805 -8.41 3.485 -8.75 2.125 C-5.68753253 0.34090198 -3.52920727 -0.10380021 0 0 Z " fill="#467BB1" transform="translate(186.75,307.875)"/>
<path d="M0 0 C0.66 1.32 1.32 2.64 2 4 C-4.4 4.36923077 -4.4 4.36923077 -7.4375 2.5 C-7.953125 2.005 -8.46875 1.51 -9 1 C-4.545 0.505 -4.545 0.505 0 0 Z " fill="#2C7BD5" transform="translate(167,323)"/>
<path d="M0 0 C0.33 0 0.66 0 1 0 C1 1.65 1 3.3 1 5 C-0.98 5.66 -2.96 6.32 -5 7 C-5.33 6.01 -5.66 5.02 -6 4 C-4.02 3.67 -2.04 3.34 0 3 C0 2.01 0 1.02 0 0 Z " fill="#288CF6" transform="translate(167,318)"/>
<path d="M0 0 C0.66 0 1.32 0 2 0 C2.33 0.66 2.66 1.32 3 2 C5.02463255 2.65213292 5.02463255 2.65213292 7 3 C7 3.66 7 4.32 7 5 C5.02 5.33 3.04 5.66 1 6 C1 5.34 1 4.68 1 4 C0.34 3.67 -0.32 3.34 -1 3 C-0.67 2.01 -0.34 1.02 0 0 Z " fill="#76B6F4" transform="translate(169,234)"/>
<path d="M0 0 C3.96 0 7.92 0 12 0 C12 0.66 12 1.32 12 2 C7.31034294 3.11658501 4.46236469 2.80619523 0 1 C0 0.67 0 0.34 0 0 Z " fill="#F7D65C" transform="translate(244,229)"/>
<path d="M0 0 C0 0.66 0 1.32 0 2 C0.66 2.33 1.32 2.66 2 3 C0.54207116 3.05399736 -0.91642712 3.09279177 -2.375 3.125 C-3.18710938 3.14820313 -3.99921875 3.17140625 -4.8359375 3.1953125 C-7 3 -7 3 -9 1 C-5.94152152 0.45627049 -3.11227195 0 0 0 Z " fill="#5B95D2" transform="translate(207,284)"/>
<path d="M0 0 C6.4 -0.49230769 6.4 -0.49230769 9.4375 2 C10.2109375 2.99 10.2109375 2.99 11 4 C9.35 4 7.7 4 6 4 C5.67 3.01 5.34 2.02 5 1 C3.35 1 1.7 1 0 1 C0 0.67 0 0.34 0 0 Z " fill="#7AA3D2" transform="translate(158,228)"/>
<path d="M0 0 C1.65 0 3.3 0 5 0 C5 1.32 5 2.64 5 4 C3.35 3.67 1.7 3.34 0 3 C0 2.01 0 1.02 0 0 Z " fill="#F9FDFE" transform="translate(271,382)"/>
<path d="M0 0 C0 0.33 0 0.66 0 1 C-1.7015625 1.433125 -1.7015625 1.433125 -3.4375 1.875 C-4.613125 2.24625 -5.78875 2.6175 -7 3 C-7.33 3.66 -7.66 4.32 -8 5 C-8.66 4.67 -9.32 4.34 -10 4 C-10 3.01 -10 2.02 -10 1 C-6.52674819 -0.1577506 -3.63932552 -0.06866652 0 0 Z " fill="#49729F" transform="translate(162,227)"/>
<path d="M0 0 C1.65 0 3.3 0 5 0 C5.33 1.65 5.66 3.3 6 5 C1.125 2.25 1.125 2.25 0 0 Z " fill="#2E74B7" transform="translate(152,319)"/>
<path d="M0 0 C0.66 0.33 1.32 0.66 2 1 C2 2.65 2 4.3 2 6 C0.35 5.67 -1.3 5.34 -3 5 C-2.34 4.67 -1.68 4.34 -1 4 C-0.34786708 1.97536745 -0.34786708 1.97536745 0 0 Z " fill="#58A6F2" transform="translate(211,280)"/>
<path d="M0 0 C2.5 1.3125 2.5 1.3125 5 3 C5 3.99 5 4.98 5 6 C4.34 6 3.68 6 3 6 C3 5.34 3 4.68 3 4 C2.01 4.33 1.02 4.66 0 5 C0 3.35 0 1.7 0 0 Z " fill="#4292E5" transform="translate(147,247)"/>
<path d="M0 0 C0.928125 0.20625 1.85625 0.4125 2.8125 0.625 C2.4825 1.285 2.1525 1.945 1.8125 2.625 C-1.125 3.375 -1.125 3.375 -4.1875 3.625 C-4.8475 2.965 -5.5075 2.305 -6.1875 1.625 C-3.1875 -0.375 -3.1875 -0.375 0 0 Z " fill="#7DBBF7" transform="translate(160.1875,228.375)"/>
</svg>
