<svg width="183" height="106" viewBox="0 0 183 106" fill="none" xmlns="http://www.w3.org/2000/svg">
<path d="M85.2462 0C87.8876 0 90.4482 0.352256 92.8836 1.01248C80.4674 4.3785 71.308 15.7463 71.308 29.213C71.308 42.6796 80.4674 54.0473 92.8836 57.4133C90.4482 58.0735 87.8876 58.426 85.2462 58.426C80.2471 58.426 75.3108 57.1209 70.9274 54.6459L57.8956 58.3696C57.7627 58.4076 57.6283 58.426 57.4939 58.426C57.1164 58.426 56.7474 58.2792 56.4706 58.0075C56.0953 57.6387 55.947 57.0975 56.0828 56.5891L59.6425 43.2388C57.2792 38.935 56.0332 34.0988 56.0332 29.213C56.0332 13.1049 69.1381 1.97576e-07 85.2462 0Z" fill="white"/>
<path d="M113.033 24C100.972 39.4388 107.497 31.0866 100.533 40L88.0332 24H113.033Z" fill="#F42A42"/>
<path d="M100.382 2.73047C114.908 2.73047 126.731 14.5529 126.731 29.0791C126.731 33.4796 125.609 37.8423 123.476 41.7266L122.923 42.7334L126.141 54.8027L114.336 51.4287L113.293 52.0186C109.335 54.2533 104.883 55.4277 100.382 55.4277C85.8556 55.4276 74.0332 43.6053 74.0332 29.0791C74.0333 14.5529 85.8557 2.73058 100.382 2.73047ZM88.0332 22.5C87.4597 22.5 86.936 22.8273 86.6846 23.3428C86.4334 23.8581 86.4986 24.472 86.8516 24.9238L99.3516 40.9238C99.6358 41.2874 100.072 41.5 100.533 41.5C100.995 41.5 101.431 41.2874 101.715 40.9238L114.215 24.9238C114.568 24.472 114.633 23.8581 114.382 23.3428C114.13 22.8273 113.607 22.5 113.033 22.5H88.0332Z" fill="white"/>
<path d="M182.485 89.8889C182.894 91.486 182.73 92.2232 182.73 105.041H176.997C176.997 93.206 177.325 90.9946 175.809 89.2746C174.949 88.3327 173.803 87.8822 172.697 87.8822C171.55 87.8822 170.404 88.3327 169.585 89.2746C168.028 90.9946 168.397 93.206 168.397 105.041H162.582C162.582 93.206 162.909 90.9946 161.394 89.2746C160.534 88.3327 159.387 87.8822 158.282 87.8822C157.135 87.8822 155.988 88.3327 155.169 89.2746C153.613 90.9946 153.982 93.206 153.982 105.041H148.207C148.207 92.2232 148.043 91.486 148.453 89.8889C149.6 84.7698 153.941 82.1078 158.282 82.0669C160.903 82.0669 163.564 83.0907 165.489 85.0564C167.414 83.0907 170.035 82.0669 172.697 82.0669C176.997 82.1078 181.338 84.7698 182.485 89.8889Z" fill="white"/>
<path d="M145.211 89.8889C145.621 91.486 145.457 92.2232 145.457 105.041H139.724C139.724 93.206 140.051 90.9946 138.536 89.2746C137.676 88.3327 136.529 87.8822 135.423 87.8822C134.277 87.8822 133.13 88.3327 132.311 89.2746C130.755 90.9946 131.123 93.206 131.123 105.041H125.308C125.308 93.206 125.636 90.9946 124.121 89.2746C123.261 88.3327 122.114 87.8822 121.008 87.8822C119.861 87.8822 118.715 88.3327 117.896 89.2746C116.339 90.9946 116.708 93.206 116.708 105.041H110.934C110.934 92.2232 110.77 91.486 111.179 89.8889C112.326 84.7698 116.667 82.1078 121.008 82.0669C123.629 82.0669 126.291 83.0907 128.216 85.0564C130.141 83.0907 132.762 82.0669 135.423 82.0669C139.724 82.1078 144.065 84.7698 145.211 89.8889Z" fill="white"/>
<path d="M98.982 99.2671C100.538 99.3899 102.094 98.8575 103.364 97.6289L107.869 101.192C107.336 101.806 106.599 102.666 105.002 103.567C103.323 104.509 101.398 105.041 99.3506 105.041C93.0438 105.041 87.8838 99.9223 87.8838 93.5746C87.8838 87.2269 93.0029 82.0669 99.3506 82.0669C103.159 82.0669 107.05 84.0326 109.22 87.6365C104.265 94.0661 105.862 92.0184 102.176 96.7689L97.6715 93.1651L101.48 88.2508C101.193 88.046 100.252 87.8003 99.3506 87.8003C96.1972 87.8003 93.6172 90.3803 93.6172 93.5746C93.6172 96.6051 95.9924 99.1032 98.982 99.2671Z" fill="white"/>
<path d="M85.9423 93.5748C85.9423 99.9225 80.7822 105.042 74.4346 105.042C68.0869 105.042 62.9678 99.9225 62.9678 93.5748C62.9678 87.2271 68.0869 82.0671 74.4346 82.0671C75.4584 82.0671 76.4003 82.1899 77.3012 82.4356V88.5786C76.4822 88.0871 75.4993 87.8005 74.4346 87.8005C71.2812 87.8005 68.7012 90.3805 68.7012 93.5748C68.7012 96.7282 71.2812 99.3082 74.4346 99.3082C77.6289 99.3082 80.2089 96.7282 80.2089 93.5748V73.426H85.9423V93.5748Z" fill="white"/>
<path d="M54.7539 105.042V73.426H60.4873V105.042H54.7539Z" fill="white"/>
<path d="M45.5146 105.042V73.426H51.248V105.042H45.5146Z" fill="white"/>
<path d="M33.1539 99.2671C34.7101 99.3899 36.2663 98.8575 37.5358 97.6289L42.0406 101.192C41.5082 101.806 40.7711 102.666 39.1739 103.567C37.4949 104.509 35.5701 105.041 33.5224 105.041C27.2157 105.041 22.0557 99.9223 22.0557 93.5746C22.0557 87.2269 27.1748 82.0669 33.5224 82.0669C37.331 82.0669 41.2216 84.0326 43.3921 87.6365C38.4368 94.0661 40.0339 92.0184 36.3482 96.7689L31.8434 93.1651L35.652 88.2508C35.3653 88.046 34.4234 87.8003 33.5224 87.8003C30.3691 87.8003 27.7891 90.3803 27.7891 93.5746C27.7891 96.6051 30.1643 99.1032 33.1539 99.2671Z" fill="white"/>
<path d="M15.3163 105.042H9.37819V81.0022H0V75.146H24.6945V81.0022H15.3163V105.042Z" fill="white"/>
</svg>
