<svg width="225" height="50" viewBox="0 0 225 50" fill="none" xmlns="http://www.w3.org/2000/svg">
<path d="M25 0.5C26.5804 0.5 28.1257 0.652399 29.623 0.939453C19.7027 4.43308 12.5723 13.898 12.5723 25L12.5781 25.5498C12.809 36.4133 19.8665 45.6235 29.6221 49.0596C28.125 49.3466 26.5801 49.5 25 49.5C20.8089 49.5 16.6691 48.4061 12.9922 46.3301L12.8096 46.2266L12.6094 46.2842L1.45605 49.4707C1.38759 49.4902 1.31899 49.5 1.25 49.5C1.10481 49.5 0.962058 49.4578 0.839844 49.3779L0.724609 49.2852C0.531757 49.0956 0.455954 48.8181 0.525391 48.5576V48.5566L3.57227 37.1318L3.62402 36.9385L3.52734 36.7627C1.54505 33.1528 0.5 29.0965 0.5 25L0.507812 24.3682C0.838799 11.3598 11.3606 0.838341 24.3691 0.507812L25 0.5Z" fill="#006A4F" stroke="white"/>
<path d="M223.979 25.1519C224.33 26.5188 224.189 27.1496 224.189 38.1192H219.283C219.283 27.9907 219.563 26.0982 218.266 24.6262C217.53 23.8202 216.549 23.4346 215.603 23.4346C214.622 23.4346 213.64 23.8202 212.939 24.6262C211.608 26.0982 211.923 27.9907 211.923 38.1192H206.946C206.946 27.9907 207.227 26.0982 205.93 24.6262C205.194 23.8202 204.213 23.4346 203.266 23.4346C202.285 23.4346 201.304 23.8202 200.603 24.6262C199.271 26.0982 199.586 27.9907 199.586 38.1192H194.645C194.645 27.1496 194.505 26.5188 194.855 25.1519C195.836 20.7711 199.551 18.4931 203.266 18.458C205.509 18.458 207.787 19.3342 209.435 21.0164C211.082 19.3342 213.325 18.458 215.603 18.458C219.283 18.4931 222.998 20.7711 223.979 25.1519Z" fill="white"/>
<path d="M192.081 25.1519C192.431 26.5188 192.291 27.1496 192.291 38.1192H187.384C187.384 27.9907 187.665 26.0982 186.368 24.6262C185.632 23.8202 184.651 23.4346 183.704 23.4346C182.723 23.4346 181.742 23.8202 181.041 24.6262C179.709 26.0982 180.025 27.9907 180.025 38.1192H175.048C175.048 27.9907 175.328 26.0982 174.032 24.6262C173.296 23.8202 172.314 23.4346 171.368 23.4346C170.387 23.4346 169.405 23.8202 168.704 24.6262C167.373 26.0982 167.688 27.9907 167.688 38.1192H162.746C162.746 27.1496 162.606 26.5188 162.957 25.1519C163.938 20.7711 167.653 18.4931 171.368 18.458C173.611 18.458 175.889 19.3342 177.536 21.0164C179.183 19.3342 181.426 18.458 183.704 18.458C187.384 18.4931 191.099 20.7711 192.081 25.1519Z" fill="white"/>
<path d="M152.519 33.1776C153.851 33.2828 155.183 32.8272 156.269 31.7758L160.124 34.8248C159.669 35.3505 159.038 36.0865 157.671 36.8575C156.234 37.6636 154.587 38.1192 152.835 38.1192C147.437 38.1192 143.021 33.7384 143.021 28.3061C143.021 22.8739 147.402 18.458 152.835 18.458C156.094 18.458 159.423 20.1403 161.281 23.2244C157.04 28.7267 158.407 26.9744 155.253 31.0398L151.398 27.9557L154.657 23.7501C154.412 23.5748 153.606 23.3645 152.835 23.3645C150.136 23.3645 147.928 25.5725 147.928 28.3061C147.928 30.8996 149.961 33.0374 152.519 33.1776Z" fill="white"/>
<path d="M141.361 28.3065C141.361 33.7387 136.945 38.1196 131.512 38.1196C126.08 38.1196 121.699 33.7387 121.699 28.3065C121.699 22.8742 126.08 18.4583 131.512 18.4583C132.389 18.4583 133.195 18.5635 133.966 18.7738V24.0308C133.265 23.6102 132.424 23.3649 131.512 23.3649C128.814 23.3649 126.606 25.5728 126.606 28.3065C126.606 31.0051 128.814 33.213 131.512 33.213C134.246 33.213 136.454 31.0051 136.454 28.3065V11.0635H141.361V28.3065Z" fill="white"/>
<path d="M114.668 38.1196V11.0635H119.575V38.1196H114.668Z" fill="white"/>
<path d="M106.762 38.1196V11.0635H111.668V38.1196H106.762Z" fill="white"/>
<path d="M96.1833 33.1776C97.515 33.2828 98.8468 32.8272 99.9333 31.7758L103.788 34.8248C103.333 35.3505 102.702 36.0865 101.335 36.8575C99.8982 37.6636 98.251 38.1192 96.4987 38.1192C91.1015 38.1192 86.6855 33.7384 86.6855 28.3061C86.6855 22.8739 91.0664 18.458 96.4987 18.458C99.758 18.458 103.087 20.1403 104.945 23.2244C100.704 28.7267 102.071 26.9744 98.9169 31.0398L95.0618 27.9557L98.3211 23.7501C98.0758 23.5748 97.2697 23.3645 96.4987 23.3645C93.8001 23.3645 91.5921 25.5725 91.5921 28.3061C91.5921 30.8996 93.6248 33.0374 96.1833 33.1776Z" fill="white"/>
<path d="M80.9181 38.1193H75.8363V17.5468H67.8105V12.5352H88.9438V17.5468H80.9181V38.1193Z" fill="white"/>
<path d="M48.7795 20.5386C38.4573 33.7509 44.0414 26.6032 38.0821 34.2311L27.3848 20.5386H48.7795Z" fill="#F42A42"/>
<path d="M37.9531 2.83691C50.1084 2.83691 60.0029 12.7306 60.0029 24.8857C60.0029 28.5669 59.0634 32.2179 57.2783 35.4688L56.8047 36.3301L56.709 36.5059L56.7607 36.6992L59.2861 46.1758L50.0322 43.5312L49.8311 43.4736L49.6484 43.5771L48.7568 44.0811C45.4441 45.9516 41.7181 46.9346 37.9531 46.9346C25.798 46.9345 15.9043 37.0409 15.9043 24.8857L15.9111 24.3174C16.209 12.6126 25.6799 3.14168 37.3848 2.84375L37.9531 2.83691ZM27.3857 18.7549C26.7038 18.7549 26.0812 19.1449 25.7822 19.7578H25.7812C25.4827 20.3709 25.5611 21.1009 25.9805 21.6377L36.6777 35.3301C37.0157 35.7624 37.5341 36.0156 38.083 36.0156C38.5632 36.0155 39.0195 35.8213 39.3525 35.4834L39.4883 35.3301L50.1855 21.6377C50.605 21.1009 50.6824 20.3709 50.3838 19.7578C50.0849 19.145 49.4622 18.755 48.7803 18.7549H27.3857Z" fill="#006A4F" stroke="white"/>
</svg>
