<svg width="262" height="59" viewBox="0 0 262 59" fill="none" xmlns="http://www.w3.org/2000/svg">
<path d="M44.3486 2.73047C58.8749 2.73047 70.6982 14.5529 70.6982 29.0791C70.6982 33.4796 69.5753 37.8423 67.4424 41.7266L66.8896 42.7334L70.1074 54.8027L58.3027 51.4287L57.2598 52.0186C53.3019 54.2533 48.8496 55.4277 44.3486 55.4277C29.8224 55.4276 18 43.6053 18 29.0791C18.0001 14.5529 29.8225 2.73058 44.3486 2.73047Z" fill="#006A4F"/>
<path d="M29.213 0C31.8544 0 34.415 0.352256 36.8504 1.01247C24.4342 4.3785 15.2748 15.7463 15.2748 29.213C15.2748 42.6796 24.4342 54.0473 36.8504 57.4133C34.415 58.0735 31.8544 58.426 29.213 58.426C24.2139 58.426 19.2776 57.1209 14.8942 54.6459L1.86236 58.3696C1.72946 58.4076 1.59508 58.426 1.46072 58.426C1.08315 58.426 0.714225 58.2792 0.437434 58.0075C0.0620471 57.6387 -0.0862421 57.0975 0.0495982 56.5891L3.6093 43.2388C1.24597 38.935 0 34.0988 0 29.213C1.97525e-07 13.1049 13.1049 1.97576e-07 29.213 0Z" fill="#006A4F"/>
<path d="M261.722 29.3903C262.131 30.9875 261.968 31.7246 261.968 44.5429H256.234C256.234 32.7075 256.562 30.4961 255.047 28.776C254.187 27.8341 253.04 27.3837 251.934 27.3837C250.788 27.3837 249.641 27.8341 248.822 28.776C247.266 30.4961 247.634 32.7075 247.634 44.5429H241.819C241.819 32.7075 242.147 30.4961 240.631 28.776C239.771 27.8341 238.625 27.3837 237.519 27.3837C236.372 27.3837 235.225 27.8341 234.406 28.776C232.85 30.4961 233.219 32.7075 233.219 44.5429H227.444C227.444 31.7246 227.281 30.9875 227.69 29.3903C228.837 24.2712 233.178 21.6093 237.519 21.5684C240.14 21.5684 242.802 22.5922 244.727 24.5579C246.651 22.5922 249.272 21.5684 251.934 21.5684C256.234 21.6093 260.575 24.2712 261.722 29.3903Z" fill="#006A4F"/>
<path d="M224.448 29.3903C224.858 30.9875 224.694 31.7246 224.694 44.5429H218.961C218.961 32.7075 219.288 30.4961 217.773 28.776C216.913 27.8341 215.767 27.3837 214.661 27.3837C213.514 27.3837 212.367 27.8341 211.548 28.776C209.992 30.4961 210.361 32.7075 210.361 44.5429H204.545C204.545 32.7075 204.873 30.4961 203.358 28.776C202.498 27.8341 201.351 27.3837 200.245 27.3837C199.099 27.3837 197.952 27.8341 197.133 28.776C195.577 30.4961 195.945 32.7075 195.945 44.5429H190.171C190.171 31.7246 190.007 30.9875 190.417 29.3903C191.563 24.2712 195.904 21.6093 200.245 21.5684C202.866 21.5684 205.528 22.5922 207.453 24.5579C209.378 22.5922 211.999 21.5684 214.661 21.5684C218.961 21.6093 223.302 24.2712 224.448 29.3903Z" fill="#006A4F"/>
<path d="M178.219 38.7685C179.776 38.8914 181.332 38.359 182.601 37.1304L187.106 40.6933C186.574 41.3076 185.837 42.1676 184.239 43.0686C182.56 44.0105 180.636 44.5429 178.588 44.5429C172.281 44.5429 167.121 39.4238 167.121 33.0761C167.121 26.7284 172.24 21.5684 178.588 21.5684C182.396 21.5684 186.287 23.5341 188.457 27.1379C183.502 33.5675 185.099 31.5199 181.414 36.2704L176.909 32.6666L180.717 27.7522C180.431 27.5475 179.489 27.3017 178.588 27.3017C175.435 27.3017 172.854 29.8818 172.854 33.0761C172.854 36.1066 175.23 38.6047 178.219 38.7685Z" fill="#006A4F"/>
<path d="M165.18 33.0763C165.18 39.4239 160.02 44.543 153.672 44.543C147.324 44.543 142.205 39.4239 142.205 33.0763C142.205 26.7286 147.324 21.5685 153.672 21.5685C154.696 21.5685 155.638 21.6914 156.539 21.9371V28.08C155.719 27.5886 154.737 27.3019 153.672 27.3019C150.518 27.3019 147.938 29.8819 147.938 33.0763C147.938 36.2296 150.518 38.8096 153.672 38.8096C156.866 38.8096 159.446 36.2296 159.446 33.0763V12.9275H165.18V33.0763Z" fill="#006A4F"/>
<path d="M133.991 44.543V12.9275H139.725V44.543H133.991Z" fill="#006A4F"/>
<path d="M124.752 44.543V12.9275H130.485V44.543H124.752Z" fill="#006A4F"/>
<path d="M112.391 38.7685C113.947 38.8914 115.504 38.359 116.773 37.1304L121.278 40.6933C120.746 41.3076 120.008 42.1676 118.411 43.0686C116.732 44.0105 114.807 44.5429 112.76 44.5429C106.453 44.5429 101.293 39.4238 101.293 33.0761C101.293 26.7284 106.412 21.5684 112.76 21.5684C116.568 21.5684 120.459 23.5341 122.629 27.1379C117.674 33.5675 119.271 31.5199 115.585 36.2704L111.081 32.6666L114.889 27.7522C114.603 27.5475 113.661 27.3017 112.76 27.3017C109.606 27.3017 107.026 29.8818 107.026 33.0761C107.026 36.1066 109.402 38.6047 112.391 38.7685Z" fill="#006A4F"/>
<path d="M94.5536 44.543H88.6155V20.5037H79.2373V14.6475H103.932V20.5037H94.5536V44.543Z" fill="#006A4F"/>
<path d="M57 23.25C57.2866 23.25 57.5481 23.4134 57.6738 23.6709C57.7995 23.9286 57.7674 24.236 57.5908 24.4619L45.0908 40.4619C44.9487 40.6437 44.7308 40.75 44.5 40.75C44.2692 40.75 44.0513 40.6437 43.9092 40.4619L31.4092 24.4619C31.2326 24.236 31.2005 23.9286 31.3262 23.6709C31.4519 23.4134 31.7134 23.25 32 23.25H57Z" fill="#F42A42" stroke="white" stroke-width="1.5" stroke-linejoin="round"/>
</svg>
