<svg width="183" height="106" viewBox="0 0 183 106" fill="none" xmlns="http://www.w3.org/2000/svg">
<path d="M85.2461 0.5C87.2068 0.5 89.122 0.697251 90.9727 1.07324C79.2589 5.05859 70.8077 16.1664 70.8076 29.2129C70.8076 42.2593 79.259 53.3661 90.9727 57.3516C89.1219 57.7276 87.2069 57.9258 85.2461 57.9258C80.334 57.9258 75.4819 56.644 71.1729 54.2109L70.9912 54.1074L70.79 54.165L57.7578 57.8887C57.6703 57.9137 57.5824 57.9258 57.4941 57.9258C57.2458 57.9258 57.0024 57.8291 56.8203 57.6504C56.5736 57.4075 56.4763 57.0514 56.5654 56.7178H56.5664L60.126 43.3672L60.1777 43.1738L60.0811 42.998C57.7579 38.7675 56.5332 34.014 56.5332 29.2129C56.5333 13.3811 69.4143 0.500049 85.2461 0.5Z" fill="#006A4F" stroke="white"/>
<path d="M113.033 24.0002C100.972 39.4391 107.497 31.0869 100.533 40.0002L88.0332 24.0002H113.033Z" fill="#F42A42"/>
<path d="M100.382 3.23047C114.632 3.23047 126.231 14.829 126.231 29.0791C126.231 33.3949 125.13 37.6753 123.037 41.4863L122.484 42.4932L122.388 42.6689L122.439 42.8623L125.43 54.0791L114.474 50.9482L114.272 50.8906L114.09 50.9932L113.047 51.583C109.163 53.7758 104.796 54.9277 100.382 54.9277C86.1318 54.9276 74.5332 43.3292 74.5332 29.0791L74.542 28.4131C74.8911 14.6908 85.9935 3.58839 99.7158 3.23926L100.382 3.23047ZM87.8906 22.0049C87.1826 22.0554 86.5496 22.4798 86.2354 23.124C85.9004 23.8115 85.9877 24.6294 86.458 25.2314L98.958 41.2314C99.2897 41.6557 99.7758 41.9265 100.305 41.9873L100.533 42C101.149 42 101.729 41.7162 102.108 41.2314L114.608 25.2314C115.079 24.6294 115.166 23.8115 114.831 23.124C114.496 22.4368 113.798 22 113.033 22H88.0332L87.8906 22.0049Z" fill="#006A4F" stroke="white"/>
<path d="M182.485 89.8891C182.894 91.4863 182.73 92.2234 182.73 105.042H176.997C176.997 93.2063 177.325 90.9948 175.809 89.2748C174.949 88.3329 173.803 87.8824 172.697 87.8824C171.55 87.8824 170.404 88.3329 169.585 89.2748C168.028 90.9948 168.397 93.2063 168.397 105.042H162.582C162.582 93.2063 162.909 90.9948 161.394 89.2748C160.534 88.3329 159.387 87.8824 158.282 87.8824C157.135 87.8824 155.988 88.3329 155.169 89.2748C153.613 90.9948 153.982 93.2063 153.982 105.042H148.207C148.207 92.2234 148.043 91.4863 148.453 89.8891C149.6 84.77 153.941 82.1081 158.282 82.0671C160.903 82.0671 163.564 83.091 165.489 85.0567C167.414 83.091 170.035 82.0671 172.697 82.0671C176.997 82.1081 181.338 84.77 182.485 89.8891Z" fill="white"/>
<path d="M145.211 89.8891C145.621 91.4863 145.457 92.2234 145.457 105.042H139.724C139.724 93.2063 140.051 90.9948 138.536 89.2748C137.676 88.3329 136.529 87.8824 135.423 87.8824C134.277 87.8824 133.13 88.3329 132.311 89.2748C130.755 90.9948 131.123 93.2063 131.123 105.042H125.308C125.308 93.2063 125.636 90.9948 124.121 89.2748C123.261 88.3329 122.114 87.8824 121.008 87.8824C119.861 87.8824 118.715 88.3329 117.896 89.2748C116.339 90.9948 116.708 93.2063 116.708 105.042H110.934C110.934 92.2234 110.77 91.4863 111.179 89.8891C112.326 84.77 116.667 82.1081 121.008 82.0671C123.629 82.0671 126.291 83.091 128.216 85.0567C130.141 83.091 132.762 82.0671 135.423 82.0671C139.724 82.1081 144.065 84.77 145.211 89.8891Z" fill="white"/>
<path d="M98.982 99.2673C100.538 99.3902 102.094 98.8578 103.364 97.6292L107.869 101.192C107.336 101.806 106.599 102.666 105.002 103.567C103.323 104.509 101.398 105.042 99.3506 105.042C93.0438 105.042 87.8838 99.9226 87.8838 93.5749C87.8838 87.2272 93.0029 82.0671 99.3506 82.0671C103.159 82.0671 107.05 84.0329 109.22 87.6367C104.265 94.0663 105.862 92.0187 102.176 96.7692L97.6715 93.1653L101.48 88.251C101.193 88.0462 100.252 87.8005 99.3506 87.8005C96.1972 87.8005 93.6172 90.3806 93.6172 93.5749C93.6172 96.6054 95.9924 99.1035 98.982 99.2673Z" fill="white"/>
<path d="M85.9423 93.5748C85.9423 99.9225 80.7822 105.042 74.4346 105.042C68.0869 105.042 62.9678 99.9225 62.9678 93.5748C62.9678 87.2271 68.0869 82.0671 74.4346 82.0671C75.4584 82.0671 76.4003 82.1899 77.3012 82.4356V88.5786C76.4822 88.0871 75.4993 87.8005 74.4346 87.8005C71.2812 87.8005 68.7012 90.3805 68.7012 93.5748C68.7012 96.7282 71.2812 99.3082 74.4346 99.3082C77.6289 99.3082 80.2089 96.7282 80.2089 93.5748V73.426H85.9423V93.5748Z" fill="white"/>
<path d="M54.7539 105.042V73.426H60.4873V105.042H54.7539Z" fill="white"/>
<path d="M45.5146 105.042V73.426H51.248V105.042H45.5146Z" fill="white"/>
<path d="M33.1539 99.2673C34.7101 99.3902 36.2663 98.8578 37.5358 97.6292L42.0406 101.192C41.5082 101.806 40.7711 102.666 39.1739 103.567C37.4949 104.509 35.5701 105.042 33.5224 105.042C27.2157 105.042 22.0557 99.9226 22.0557 93.5749C22.0557 87.2272 27.1748 82.0671 33.5224 82.0671C37.331 82.0671 41.2216 84.0329 43.3921 87.6367C38.4368 94.0663 40.0339 92.0187 36.3482 96.7692L31.8434 93.1653L35.652 88.251C35.3653 88.0462 34.4234 87.8005 33.5224 87.8005C30.3691 87.8005 27.7891 90.3806 27.7891 93.5749C27.7891 96.6054 30.1643 99.1035 33.1539 99.2673Z" fill="white"/>
<path d="M15.3163 105.042H9.37819V81.0025H0V75.1462H24.6945V81.0025H15.3163V105.042Z" fill="white"/>
</svg>
